<svg width="110" height="110" viewBox="0 0 110 110" fill="none" xmlns="http://www.w3.org/2000/svg">
<path d="M68.4438 26.7094L67.9045 23.5507L72.9892 18.466C70.2157 17.2333 66.8259 17.6956 64.4376 20.0839C62.3575 22.164 61.6641 25.1686 62.5116 27.711L42.7118 47.5107C40.0924 46.7403 37.1649 47.3566 35.0848 49.4367C32.7735 51.748 32.2342 55.2149 33.4669 57.9884L38.5516 52.9036L41.7103 53.4429L42.2496 56.6016L37.2419 61.6093C39.9384 62.7649 43.2512 62.2256 45.5624 59.9144C47.6425 57.8342 48.3359 54.8297 47.4884 52.2873L67.2882 32.4876C69.9076 33.258 72.8351 32.6416 74.9153 30.5615C77.1495 28.3273 77.7658 24.9375 76.6102 22.241L71.6025 27.2487L68.4438 26.7094Z" stroke="#060F42" stroke-width="2.3" stroke-miterlimit="10"/>
<path d="M40.7849 21.7025L40.4768 25.4005L36.7017 25.7857L32.9267 20.4698L35.469 17.9275L40.7849 21.7025Z" fill="#01579B" stroke="#01579B" stroke-width="2.3" stroke-miterlimit="10"/>
<path d="M40.4772 25.3997L54.884 40.2688" stroke="#01579B" stroke-width="2.3" stroke-miterlimit="10"/>
<path d="M56.4637 38.382L53.1509 41.6948C52.7893 42.0564 52.7893 42.6428 53.1509 43.0045C53.5126 43.3661 54.099 43.3661 54.4606 43.0045L57.7734 39.6917C58.1351 39.33 58.1351 38.7436 57.7734 38.382C57.4118 38.0203 56.8254 38.0203 56.4637 38.382Z" fill="#FFCD1B"/>
<path d="M59.4023 40.5273L55.297 44.6327C54.516 45.4137 54.516 46.68 55.297 47.4611L68.8785 61.0425C69.6595 61.8236 70.9258 61.8236 71.7069 61.0425L75.8122 56.9372C76.5933 56.1561 76.5933 54.8898 75.8122 54.1088L62.2308 40.5273C61.4497 39.7463 60.1834 39.7463 59.4023 40.5273Z" fill="#FFCD1B"/>
<path d="M58.5704 38.2812L53.0509 43.8007C52.6603 44.1912 52.6603 44.8244 53.0509 45.2149L53.1775 45.3415C53.568 45.7321 54.2012 45.7321 54.5917 45.3415L60.1112 39.822C60.5017 39.4315 60.5017 38.7983 60.1112 38.4078L59.9846 38.2812C59.5941 37.8906 58.9609 37.8906 58.5704 38.2812Z" fill="#060F42"/>
<path d="M57.4258 44.9688L71.6014 59.1444" stroke="#060F42" stroke-width="2.3" stroke-miterlimit="10"/>
<path d="M59.7383 42.6582L73.9139 56.8339" stroke="#060F42" stroke-width="2.3" stroke-miterlimit="10"/>
<path d="M26.5349 85.74C26.8349 85.74 27.0849 85.708 27.2849 85.644C27.4889 85.576 27.6529 85.484 27.7769 85.368C27.9009 85.252 27.9889 85.116 28.0409 84.96C28.0929 84.804 28.1189 84.636 28.1189 84.456C28.1189 84.26 28.0929 84.082 28.0409 83.922C27.9889 83.762 27.9009 83.628 27.7769 83.52C27.6529 83.408 27.4909 83.322 27.2909 83.262C27.0909 83.202 26.8409 83.172 26.5409 83.172H25.1249V85.74H26.5349ZM26.5409 81.912C27.1049 81.912 27.5869 81.974 27.9869 82.098C28.3909 82.222 28.7189 82.392 28.9709 82.608C29.2269 82.82 29.4149 83.072 29.5349 83.364C29.6549 83.652 29.7149 83.962 29.7149 84.294C29.7149 84.702 29.6429 85.072 29.4989 85.404C29.3589 85.736 29.1529 86.022 28.8809 86.262C28.6089 86.498 28.2749 86.68 27.8789 86.808C27.4869 86.936 27.0389 87 26.5349 87H23.5109V78.324H29.3969V79.572H25.1249V81.912H26.5409ZM34.7898 83.214C34.7898 83.022 34.7618 82.842 34.7058 82.674C34.6538 82.502 34.5738 82.352 34.4658 82.224C34.3578 82.096 34.2198 81.996 34.0518 81.924C33.8878 81.848 33.6958 81.81 33.4758 81.81C33.0478 81.81 32.7098 81.932 32.4618 82.176C32.2178 82.42 32.0618 82.766 31.9938 83.214H34.7898ZM31.9638 84.108C31.9878 84.424 32.0438 84.698 32.1318 84.93C32.2198 85.158 32.3358 85.348 32.4798 85.5C32.6238 85.648 32.7938 85.76 32.9898 85.836C33.1898 85.908 33.4098 85.944 33.6498 85.944C33.8898 85.944 34.0958 85.916 34.2678 85.86C34.4438 85.804 34.5958 85.742 34.7238 85.674C34.8558 85.606 34.9698 85.544 35.0658 85.488C35.1658 85.432 35.2618 85.404 35.3538 85.404C35.4778 85.404 35.5698 85.45 35.6298 85.542L36.0558 86.082C35.8918 86.274 35.7078 86.436 35.5038 86.568C35.2998 86.696 35.0858 86.8 34.8618 86.88C34.6418 86.956 34.4158 87.01 34.1838 87.042C33.9558 87.074 33.7338 87.09 33.5178 87.09C33.0898 87.09 32.6918 87.02 32.3238 86.88C31.9558 86.736 31.6358 86.526 31.3638 86.25C31.0918 85.97 30.8778 85.626 30.7218 85.218C30.5658 84.806 30.4878 84.33 30.4878 83.79C30.4878 83.37 30.5558 82.976 30.6918 82.608C30.8278 82.236 31.0218 81.914 31.2738 81.642C31.5298 81.366 31.8398 81.148 32.2038 80.988C32.5718 80.828 32.9858 80.748 33.4458 80.748C33.8338 80.748 34.1918 80.81 34.5198 80.934C34.8478 81.058 35.1298 81.24 35.3658 81.48C35.6018 81.716 35.7858 82.008 35.9178 82.356C36.0538 82.7 36.1218 83.094 36.1218 83.538C36.1218 83.762 36.0978 83.914 36.0498 83.994C36.0018 84.07 35.9098 84.108 35.7738 84.108H31.9638ZM41.644 82.146C41.6 82.202 41.556 82.246 41.512 82.278C41.472 82.31 41.412 82.326 41.332 82.326C41.256 82.326 41.182 82.304 41.11 82.26C41.038 82.212 40.952 82.16 40.852 82.104C40.752 82.044 40.632 81.992 40.492 81.948C40.356 81.9 40.186 81.876 39.982 81.876C39.722 81.876 39.494 81.924 39.298 82.02C39.102 82.112 38.938 82.246 38.806 82.422C38.678 82.598 38.582 82.812 38.518 83.064C38.454 83.312 38.422 83.594 38.422 83.91C38.422 84.238 38.456 84.53 38.524 84.786C38.596 85.042 38.698 85.258 38.83 85.434C38.962 85.606 39.122 85.738 39.31 85.83C39.498 85.918 39.71 85.962 39.946 85.962C40.182 85.962 40.372 85.934 40.516 85.878C40.664 85.818 40.788 85.754 40.888 85.686C40.988 85.614 41.074 85.55 41.146 85.494C41.222 85.434 41.306 85.404 41.398 85.404C41.518 85.404 41.608 85.45 41.668 85.542L42.094 86.082C41.93 86.274 41.752 86.436 41.56 86.568C41.368 86.696 41.168 86.8 40.96 86.88C40.756 86.956 40.544 87.01 40.324 87.042C40.108 87.074 39.892 87.09 39.676 87.09C39.296 87.09 38.938 87.02 38.602 86.88C38.266 86.736 37.972 86.528 37.72 86.256C37.468 85.984 37.268 85.652 37.12 85.26C36.976 84.864 36.904 84.414 36.904 83.91C36.904 83.458 36.968 83.04 37.096 82.656C37.228 82.268 37.42 81.934 37.672 81.654C37.924 81.37 38.236 81.148 38.608 80.988C38.98 80.828 39.408 80.748 39.892 80.748C40.352 80.748 40.754 80.822 41.098 80.97C41.446 81.118 41.758 81.33 42.034 81.606L41.644 82.146ZM48.387 87H46.905V81.942H44.505V87H43.023V80.844H48.387V87ZM55.567 87H54.085V81.978H52.573C52.525 82.734 52.451 83.386 52.351 83.934C52.251 84.478 52.131 84.94 51.991 85.32C51.855 85.7 51.701 86.006 51.529 86.238C51.361 86.466 51.181 86.644 50.989 86.772C50.797 86.9 50.599 86.984 50.395 87.024C50.191 87.068 49.985 87.09 49.777 87.09C49.557 87.09 49.395 87.07 49.291 87.03C49.191 86.994 49.141 86.942 49.141 86.874V85.95H49.495C49.627 85.95 49.759 85.93 49.891 85.89C50.023 85.85 50.151 85.768 50.275 85.644C50.399 85.52 50.517 85.344 50.629 85.116C50.741 84.884 50.843 84.58 50.935 84.204C51.031 83.824 51.115 83.36 51.187 82.812C51.259 82.264 51.315 81.608 51.355 80.844H55.567V87ZM60.2789 84.372C59.8509 84.392 59.4909 84.43 59.1989 84.486C58.9069 84.538 58.6729 84.606 58.4969 84.69C58.3209 84.774 58.1949 84.872 58.1189 84.984C58.0429 85.096 58.0049 85.218 58.0049 85.35C58.0049 85.61 58.0809 85.796 58.2329 85.908C58.3889 86.02 58.5909 86.076 58.8389 86.076C59.1429 86.076 59.4049 86.022 59.6249 85.914C59.8489 85.802 60.0669 85.634 60.2789 85.41V84.372ZM56.8829 81.702C57.5909 81.054 58.4429 80.73 59.4389 80.73C59.7989 80.73 60.1209 80.79 60.4049 80.91C60.6889 81.026 60.9289 81.19 61.1249 81.402C61.3209 81.61 61.4689 81.86 61.5689 82.152C61.6729 82.444 61.7249 82.764 61.7249 83.112V87H61.0529C60.9129 87 60.8049 86.98 60.7289 86.94C60.6529 86.896 60.5929 86.81 60.5489 86.682L60.4169 86.238C60.2609 86.378 60.1089 86.502 59.9609 86.61C59.8129 86.714 59.6589 86.802 59.4989 86.874C59.3389 86.946 59.1669 87 58.9829 87.036C58.8029 87.076 58.6029 87.096 58.3829 87.096C58.1229 87.096 57.8829 87.062 57.6629 86.994C57.4429 86.922 57.2529 86.816 57.0929 86.676C56.9329 86.536 56.8089 86.362 56.7209 86.154C56.6329 85.946 56.5889 85.704 56.5889 85.428C56.5889 85.272 56.6149 85.118 56.6669 84.966C56.7189 84.81 56.8029 84.662 56.9189 84.522C57.0389 84.382 57.1929 84.25 57.3809 84.126C57.5689 84.002 57.7989 83.894 58.0709 83.802C58.3469 83.71 58.6669 83.636 59.0309 83.58C59.3949 83.52 59.8109 83.484 60.2789 83.472V83.112C60.2789 82.7 60.1909 82.396 60.0149 82.2C59.8389 82 59.5849 81.9 59.2529 81.9C59.0129 81.9 58.8129 81.928 58.6529 81.984C58.4969 82.04 58.3589 82.104 58.2389 82.176C58.1189 82.244 58.0089 82.306 57.9089 82.362C57.8129 82.418 57.7049 82.446 57.5849 82.446C57.4809 82.446 57.3929 82.42 57.3209 82.368C57.2489 82.312 57.1909 82.248 57.1469 82.176L56.8829 81.702ZM68.2952 81.942H66.0992V87H64.6172V81.942H62.4272V80.844H68.2952V81.942ZM74.5315 80.844V87H73.0495V84.276H70.6495V87H69.1675V80.844H70.6495V83.178H73.0495V80.844H74.5315ZM79.2516 84.372C78.8236 84.392 78.4636 84.43 78.1716 84.486C77.8796 84.538 77.6456 84.606 77.4696 84.69C77.2936 84.774 77.1676 84.872 77.0916 84.984C77.0156 85.096 76.9776 85.218 76.9776 85.35C76.9776 85.61 77.0536 85.796 77.2056 85.908C77.3616 86.02 77.5636 86.076 77.8116 86.076C78.1156 86.076 78.3776 86.022 78.5976 85.914C78.8216 85.802 79.0396 85.634 79.2516 85.41V84.372ZM75.8556 81.702C76.5636 81.054 77.4156 80.73 78.4116 80.73C78.7716 80.73 79.0936 80.79 79.3776 80.91C79.6616 81.026 79.9016 81.19 80.0976 81.402C80.2936 81.61 80.4416 81.86 80.5416 82.152C80.6456 82.444 80.6976 82.764 80.6976 83.112V87H80.0256C79.8856 87 79.7776 86.98 79.7016 86.94C79.6256 86.896 79.5656 86.81 79.5216 86.682L79.3896 86.238C79.2336 86.378 79.0816 86.502 78.9336 86.61C78.7856 86.714 78.6316 86.802 78.4716 86.874C78.3116 86.946 78.1396 87 77.9556 87.036C77.7756 87.076 77.5756 87.096 77.3556 87.096C77.0956 87.096 76.8556 87.062 76.6356 86.994C76.4156 86.922 76.2256 86.816 76.0656 86.676C75.9056 86.536 75.7816 86.362 75.6936 86.154C75.6056 85.946 75.5616 85.704 75.5616 85.428C75.5616 85.272 75.5876 85.118 75.6396 84.966C75.6916 84.81 75.7756 84.662 75.8916 84.522C76.0116 84.382 76.1656 84.25 76.3536 84.126C76.5416 84.002 76.7716 83.894 77.0436 83.802C77.3196 83.71 77.6396 83.636 78.0036 83.58C78.3676 83.52 78.7836 83.484 79.2516 83.472V83.112C79.2516 82.7 79.1636 82.396 78.9876 82.2C78.8116 82 78.5576 81.9 78.2256 81.9C77.9856 81.9 77.7856 81.928 77.6256 81.984C77.4696 82.04 77.3316 82.104 77.2116 82.176C77.0916 82.244 76.9816 82.306 76.8816 82.362C76.7856 82.418 76.6776 82.446 76.5576 82.446C76.4536 82.446 76.3656 82.42 76.2936 82.368C76.2216 82.312 76.1636 82.248 76.1196 82.176L75.8556 81.702ZM85.3033 83.616V81.81H84.4993C84.3113 81.81 84.1553 81.838 84.0313 81.894C83.9073 81.946 83.8053 82.016 83.7253 82.104C83.6493 82.188 83.5953 82.284 83.5633 82.392C83.5313 82.5 83.5153 82.606 83.5153 82.71C83.5153 82.994 83.6093 83.216 83.7973 83.376C83.9893 83.536 84.2453 83.616 84.5653 83.616H85.3033ZM86.7133 80.844V87H85.3033V84.528H85.0453C84.9253 84.528 84.8253 84.54 84.7453 84.564C84.6693 84.584 84.6033 84.614 84.5473 84.654C84.4953 84.69 84.4493 84.736 84.4093 84.792C84.3733 84.848 84.3353 84.91 84.2953 84.978L83.3113 86.49C83.2633 86.574 83.2113 86.648 83.1553 86.712C83.1033 86.776 83.0413 86.83 82.9693 86.874C82.9013 86.914 82.8193 86.946 82.7233 86.97C82.6313 86.99 82.5193 87 82.3873 87H81.3613L82.9153 84.828C82.9993 84.676 83.0973 84.554 83.2093 84.462C83.3213 84.37 83.4533 84.296 83.6053 84.24C83.3173 84.188 83.0713 84.108 82.8673 84C82.6673 83.888 82.5053 83.76 82.3813 83.616C82.2573 83.468 82.1673 83.31 82.1113 83.142C82.0553 82.974 82.0273 82.808 82.0273 82.644C82.0273 82.416 82.0713 82.194 82.1593 81.978C82.2513 81.762 82.3953 81.57 82.5913 81.402C82.7873 81.234 83.0393 81.1 83.3473 81C83.6553 80.896 84.0253 80.844 84.4573 80.844H86.7133ZM40.5541 94.146C40.5101 94.202 40.4661 94.246 40.4221 94.278C40.3821 94.31 40.3221 94.326 40.2421 94.326C40.1661 94.326 40.0921 94.304 40.0201 94.26C39.9481 94.212 39.8621 94.16 39.7621 94.104C39.6621 94.044 39.5421 93.992 39.4021 93.948C39.2661 93.9 39.0961 93.876 38.8921 93.876C38.6321 93.876 38.4041 93.924 38.2081 94.02C38.0121 94.112 37.8481 94.246 37.7161 94.422C37.5881 94.598 37.4921 94.812 37.4281 95.064C37.3641 95.312 37.3321 95.594 37.3321 95.91C37.3321 96.238 37.3661 96.53 37.4341 96.786C37.5061 97.042 37.6081 97.258 37.7401 97.434C37.8721 97.606 38.0321 97.738 38.2201 97.83C38.4081 97.918 38.6201 97.962 38.8561 97.962C39.0921 97.962 39.2821 97.934 39.4261 97.878C39.5741 97.818 39.6981 97.754 39.7981 97.686C39.8981 97.614 39.9841 97.55 40.0561 97.494C40.1321 97.434 40.2161 97.404 40.3081 97.404C40.4281 97.404 40.5181 97.45 40.5781 97.542L41.0041 98.082C40.8401 98.274 40.6621 98.436 40.4701 98.568C40.2781 98.696 40.0781 98.8 39.8701 98.88C39.6661 98.956 39.4541 99.01 39.2341 99.042C39.0181 99.074 38.8021 99.09 38.5861 99.09C38.2061 99.09 37.8481 99.02 37.5121 98.88C37.1761 98.736 36.8821 98.528 36.6301 98.256C36.3781 97.984 36.1781 97.652 36.0301 97.26C35.8861 96.864 35.8141 96.414 35.8141 95.91C35.8141 95.458 35.8781 95.04 36.0061 94.656C36.1381 94.268 36.3301 93.934 36.5821 93.654C36.8341 93.37 37.1461 93.148 37.5181 92.988C37.8901 92.828 38.3181 92.748 38.8021 92.748C39.2621 92.748 39.6641 92.822 40.0081 92.97C40.3561 93.118 40.6681 93.33 40.9441 93.606L40.5541 94.146ZM44.8135 98.01C45.3255 98.01 45.7075 97.846 45.9595 97.518C46.2115 97.19 46.3375 96.71 46.3375 96.078C46.3375 95.45 46.2135 94.972 45.9655 94.644C45.7215 94.316 45.3475 94.152 44.8435 94.152C44.3395 94.152 43.9555 94.308 43.6915 94.62C43.4275 94.928 43.2955 95.39 43.2955 96.006C43.2955 96.658 43.4195 97.156 43.6675 97.5C43.9195 97.84 44.3015 98.01 44.8135 98.01ZM45.2455 91.728C44.8695 91.752 44.5475 91.826 44.2795 91.95C44.0155 92.07 43.7955 92.234 43.6195 92.442C43.4475 92.646 43.3155 92.892 43.2235 93.18C43.1355 93.464 43.0835 93.78 43.0675 94.128C43.1675 93.972 43.2895 93.83 43.4335 93.702C43.5815 93.57 43.7455 93.458 43.9255 93.366C44.1095 93.27 44.3075 93.196 44.5195 93.144C44.7355 93.092 44.9655 93.066 45.2095 93.066C45.6175 93.066 45.9855 93.138 46.3135 93.282C46.6415 93.426 46.9195 93.63 47.1475 93.894C47.3795 94.158 47.5555 94.476 47.6755 94.848C47.7995 95.216 47.8615 95.624 47.8615 96.072C47.8615 96.536 47.7875 96.954 47.6395 97.326C47.4955 97.698 47.2895 98.016 47.0215 98.28C46.7575 98.54 46.4375 98.74 46.0615 98.88C45.6855 99.02 45.2695 99.09 44.8135 99.09C44.3695 99.09 43.9595 99.018 43.5835 98.874C43.2115 98.73 42.8895 98.496 42.6175 98.172C42.3455 97.848 42.1335 97.428 41.9815 96.912C41.8295 96.392 41.7535 95.758 41.7535 95.01C41.7535 94.382 41.8115 93.798 41.9275 93.258C42.0435 92.718 42.2335 92.246 42.4975 91.842C42.7615 91.434 43.1075 91.106 43.5355 90.858C43.9635 90.61 44.4915 90.462 45.1195 90.414L47.3095 90.246L47.3875 91.014C47.4035 91.178 47.3795 91.318 47.3155 91.434C47.2515 91.546 47.1375 91.606 46.9735 91.614L45.2455 91.728ZM51.7353 92.748C52.1913 92.748 52.6053 92.822 52.9773 92.97C53.3533 93.118 53.6733 93.328 53.9373 93.6C54.2053 93.872 54.4113 94.204 54.5553 94.596C54.6993 94.988 54.7713 95.426 54.7713 95.91C54.7713 96.398 54.6993 96.838 54.5553 97.23C54.4113 97.622 54.2053 97.956 53.9373 98.232C53.6733 98.508 53.3533 98.72 52.9773 98.868C52.6053 99.016 52.1913 99.09 51.7353 99.09C51.2753 99.09 50.8573 99.016 50.4813 98.868C50.1053 98.72 49.7833 98.508 49.5153 98.232C49.2513 97.956 49.0453 97.622 48.8973 97.23C48.7533 96.838 48.6813 96.398 48.6813 95.91C48.6813 95.426 48.7533 94.988 48.8973 94.596C49.0453 94.204 49.2513 93.872 49.5153 93.6C49.7833 93.328 50.1053 93.118 50.4813 92.97C50.8573 92.822 51.2753 92.748 51.7353 92.748ZM51.7353 97.95C52.2473 97.95 52.6253 97.778 52.8693 97.434C53.1173 97.09 53.2413 96.586 53.2413 95.922C53.2413 95.258 53.1173 94.752 52.8693 94.404C52.6253 94.056 52.2473 93.882 51.7353 93.882C51.2153 93.882 50.8293 94.058 50.5773 94.41C50.3293 94.758 50.2053 95.262 50.2053 95.922C50.2053 96.582 50.3293 97.086 50.5773 97.434C50.8293 97.778 51.2153 97.95 51.7353 97.95ZM57.3839 97.404C57.5519 97.608 57.7339 97.752 57.9299 97.836C58.1299 97.92 58.3459 97.962 58.5779 97.962C58.8019 97.962 59.0039 97.92 59.1839 97.836C59.3639 97.752 59.5159 97.624 59.6399 97.452C59.7679 97.28 59.8659 97.064 59.9339 96.804C60.0019 96.54 60.0359 96.23 60.0359 95.874C60.0359 95.514 60.0059 95.21 59.9459 94.962C59.8899 94.71 59.8079 94.506 59.6999 94.35C59.5919 94.194 59.4599 94.08 59.3039 94.008C59.1519 93.936 58.9779 93.9 58.7819 93.9C58.4739 93.9 58.2119 93.966 57.9959 94.098C57.7799 94.226 57.5759 94.408 57.3839 94.644V97.404ZM57.3059 93.684C57.5579 93.4 57.8439 93.17 58.1639 92.994C58.4839 92.818 58.8599 92.73 59.2919 92.73C59.6279 92.73 59.9339 92.8 60.2099 92.94C60.4899 93.08 60.7299 93.284 60.9299 93.552C61.1339 93.816 61.2899 94.144 61.3979 94.536C61.5099 94.924 61.5659 95.37 61.5659 95.874C61.5659 96.334 61.5039 96.76 61.3799 97.152C61.2559 97.544 61.0779 97.884 60.8459 98.172C60.6179 98.46 60.3399 98.686 60.0119 98.85C59.6879 99.01 59.3239 99.09 58.9199 99.09C58.5759 99.09 58.2819 99.038 58.0379 98.934C57.7939 98.826 57.5759 98.678 57.3839 98.49V101.01H55.9019V92.844H56.8079C56.9999 92.844 57.1259 92.934 57.1859 93.114L57.3059 93.684ZM66.3885 93.234C66.4605 93.118 66.5585 93.024 66.6825 92.952C66.8065 92.88 66.9385 92.844 67.0785 92.844H68.2425L66.8085 95.13C66.7085 95.29 66.6065 95.42 66.5025 95.52C66.3985 95.616 66.2725 95.692 66.1245 95.748C66.3245 95.808 66.4885 95.898 66.6165 96.018C66.7445 96.134 66.8605 96.282 66.9645 96.462L68.4045 99H67.3785C67.1185 99 66.9165 98.956 66.7725 98.868C66.6285 98.78 66.5065 98.654 66.4065 98.49L65.5005 96.786C65.4205 96.638 65.3165 96.528 65.1885 96.456C65.0645 96.384 64.9185 96.348 64.7505 96.348H64.1925V99H62.7105V92.844H64.1925V95.382H64.6725C64.8405 95.382 64.9745 95.352 65.0745 95.292C65.1785 95.228 65.2665 95.132 65.3385 95.004L66.3885 93.234ZM72.4781 96.372C72.0501 96.392 71.6901 96.43 71.3981 96.486C71.1061 96.538 70.8721 96.606 70.6961 96.69C70.5201 96.774 70.3941 96.872 70.3181 96.984C70.2421 97.096 70.2041 97.218 70.2041 97.35C70.2041 97.61 70.2801 97.796 70.4321 97.908C70.5881 98.02 70.7901 98.076 71.0381 98.076C71.3421 98.076 71.6041 98.022 71.8241 97.914C72.0481 97.802 72.2661 97.634 72.4781 97.41V96.372ZM69.0821 93.702C69.7901 93.054 70.6421 92.73 71.6381 92.73C71.9981 92.73 72.3201 92.79 72.6041 92.91C72.8881 93.026 73.1281 93.19 73.3241 93.402C73.5201 93.61 73.6681 93.86 73.7681 94.152C73.8721 94.444 73.9241 94.764 73.9241 95.112V99H73.2521C73.1121 99 73.0041 98.98 72.9281 98.94C72.8521 98.896 72.7921 98.81 72.7481 98.682L72.6161 98.238C72.4601 98.378 72.3081 98.502 72.1601 98.61C72.0121 98.714 71.8581 98.802 71.6981 98.874C71.5381 98.946 71.3661 99 71.1821 99.036C71.0021 99.076 70.8021 99.096 70.5821 99.096C70.3221 99.096 70.0821 99.062 69.8621 98.994C69.6421 98.922 69.4521 98.816 69.2921 98.676C69.1321 98.536 69.0081 98.362 68.9201 98.154C68.8321 97.946 68.7881 97.704 68.7881 97.428C68.7881 97.272 68.8141 97.118 68.8661 96.966C68.9181 96.81 69.0021 96.662 69.1181 96.522C69.2381 96.382 69.3921 96.25 69.5801 96.126C69.7681 96.002 69.9981 95.894 70.2701 95.802C70.5461 95.71 70.8661 95.636 71.2301 95.58C71.5941 95.52 72.0101 95.484 72.4781 95.472V95.112C72.4781 94.7 72.3901 94.396 72.2141 94.2C72.0381 94 71.7841 93.9 71.4521 93.9C71.2121 93.9 71.0121 93.928 70.8521 93.984C70.6961 94.04 70.5581 94.104 70.4381 94.176C70.3181 94.244 70.2081 94.306 70.1081 94.362C70.0121 94.418 69.9041 94.446 69.7841 94.446C69.6801 94.446 69.5921 94.42 69.5201 94.368C69.4481 94.312 69.3901 94.248 69.3461 94.176L69.0821 93.702Z" fill="#060F42"/>
</svg>
