<svg width="110" height="110" viewBox="0 0 110 110" fill="none" xmlns="http://www.w3.org/2000/svg">
<g clip-path="url(#clip0_6924_6573)">
<path d="M74.0409 40.4192H71.6457V29.0419C71.6457 19.8802 64.1606 12.3952 54.999 12.3952C45.8373 12.3952 38.3522 19.8802 38.3522 29.0419V40.4192H35.957V29.0419C35.957 18.5629 44.5199 10 54.999 10C65.478 10 74.0409 18.5629 74.0409 29.0419V40.4192Z" fill="#060F42"/>
<path d="M74.5175 42.1548C74.5175 44.1908 72.8409 45.8674 70.8049 45.8674H70.5055C68.4696 45.8674 66.793 44.1908 66.793 42.1548V35.3884C66.793 33.3524 68.4696 31.6758 70.5055 31.6758H70.8049C72.8409 31.6758 74.5175 33.3524 74.5175 35.3884V42.1548Z" fill="#01579B"/>
<path d="M70.3292 57.4251C70.3292 59.4012 68.6526 60.9581 66.5568 60.9581H43.3232C41.2274 60.9581 39.5508 59.4012 39.5508 57.4251V33.5329C39.5508 31.5569 41.2274 30 43.3232 30H66.5568C68.6526 30 70.3292 31.5569 70.3292 33.5329V57.4251Z" fill="#FFCD1B"/>
<path d="M69.253 31.7949V40.4177C69.253 48.262 62.9057 54.6692 55.0015 54.6692C47.1572 54.6692 40.75 48.3219 40.75 40.4177V34.4296L47.2171 24.25L69.253 27.244" fill="white"/>
<path d="M54.9999 55.8677C46.4969 55.8677 39.5508 48.9216 39.5508 40.4186V34.0713L46.6166 22.9336L69.3711 26.0474L69.0717 28.4426L47.8143 25.5084L41.946 34.73V40.3587C41.946 47.5444 47.8143 53.4126 54.9999 53.4126C62.1855 53.4126 68.0538 47.5444 68.0538 40.3587V31.7959H70.449V40.4186C70.449 48.9216 63.5029 55.8677 54.9999 55.8677Z" fill="#060F42"/>
<path d="M40.75 29.041V34.4901C45.7799 34.3104 49.7919 29.1009 49.7919 22.5739C49.7919 20.2985 49.3129 18.2027 48.4147 16.4062C43.8638 18.7416 40.75 23.532 40.75 29.041Z" fill="#FFCD1B"/>
<path d="M39.5508 35.6886V29.0418C39.5508 23.2335 42.7244 18.0239 47.8741 15.3293L48.952 14.7305L49.4909 15.8682C50.449 17.9041 50.9879 20.2395 50.9879 22.5748C50.9879 29.7604 46.4969 35.5089 40.7484 35.6886H39.5508ZM47.8741 18.0838C44.2214 20.479 41.946 24.5508 41.946 28.982V33.0538C45.7184 32.1556 48.5927 27.7245 48.5927 22.5149C48.6526 21.0179 48.3532 19.5209 47.8741 18.0838Z" fill="#FFCD1B"/>
<path d="M34.6406 69.999V64.1307C34.6406 61.0169 37.5149 58.502 40.9879 58.502H68.952C72.4849 58.502 75.2993 61.0169 75.2993 64.1307V69.999" fill="white"/>
<path d="M76.4996 68.7758C76.5299 69.4423 75.9976 69.9993 75.3304 69.9993C74.684 69.9993 74.16 69.4753 74.16 68.8289V64.131C74.16 61.6759 71.8246 59.6999 69.0103 59.6999H40.9863C38.1719 59.6999 35.8366 61.7358 35.8366 64.131V68.8017C35.8366 69.4631 35.3004 69.9993 34.639 69.9993C33.9776 69.9993 33.4414 69.4631 33.4414 68.8017V64.131C33.4414 60.4185 36.8546 57.3047 40.9863 57.3047H68.9504C73.142 57.3047 76.4953 60.3586 76.4953 64.131V68.6819L76.4996 68.7758Z" fill="#060F42"/>
<path d="M55.208 62.3945H55.1481C54.5033 62.3945 53.9805 62.9173 53.9805 63.5622C53.9805 64.2071 54.5032 64.7299 55.1481 64.7299H55.208C55.8529 64.7299 56.3757 64.2071 56.3757 63.5622C56.3757 62.9173 55.8529 62.3945 55.208 62.3945Z" fill="#060F42"/>
<path d="M55.208 67.6641H55.1481C54.5033 67.6641 53.9805 68.1868 53.9805 68.8317C53.9805 69.4766 54.5032 69.9994 55.1481 69.9994H55.208C55.8529 69.9994 56.3757 69.4766 56.3757 68.8317C56.3757 68.1868 55.8529 67.6641 55.208 67.6641Z" fill="#060F42"/>
<path d="M42.6047 42.1548C42.6047 44.1908 40.9281 45.8674 38.8922 45.8674H38.5329C36.497 45.8674 34.8203 44.1908 34.8203 42.1548V35.3884C34.8203 33.3524 36.497 31.6758 38.5329 31.6758H38.8323C40.8682 31.6758 42.5449 33.3524 42.5449 35.3884V42.1548H42.6047Z" fill="#01579B"/>
<path d="M57.153 43.113V38.1429C57.153 37.4815 56.6168 36.9453 55.9554 36.9453C55.294 36.9453 54.7578 37.4815 54.7578 38.1429V43.113C54.7578 43.7744 55.294 44.3106 55.9554 44.3106C56.6168 44.3106 57.153 43.7744 57.153 43.113Z" fill="#060F42"/>
<path d="M38.3522 40.4192H35.957V29.0419C35.957 18.5629 44.5199 10 54.9989 10V12.3952C45.8373 12.3952 38.3522 19.8802 38.3522 29.0419V40.4192Z" fill="#060F42"/>
<path d="M55 14.791C51.2276 14.791 47.7545 16.288 45.1797 18.6832C45.4192 27.9647 54.2216 35.3898 65 35.3898C66.4372 35.3898 67.8743 35.2701 69.2515 34.9707V29.0425C69.2515 21.1383 62.8444 14.791 55 14.791Z" fill="#FFCD1B"/>
<path d="M64.9984 36.5878C53.5014 36.5878 44.2799 28.7435 43.9805 18.7435V18.2045L44.3398 17.8452C47.2739 15.0908 51.0463 13.5938 54.9984 13.5938C63.5014 13.5938 70.4475 20.5399 70.4475 29.0429V35.989L69.4894 36.1686C67.9924 36.4081 66.4954 36.5878 64.9984 36.5878ZM46.4356 19.2225C46.9745 27.486 55.238 34.1926 65.0583 34.1926C66.0763 34.1926 67.0942 34.1327 68.1122 33.953V29.0429C68.0523 21.8572 62.1841 15.989 54.9984 15.989C51.8248 15.989 48.7709 17.1267 46.4356 19.2225Z" fill="#FFCD1B"/>
<path d="M69.1297 51.7366H58.471C57.8096 51.7366 57.2734 51.2004 57.2734 50.539C57.2734 49.8776 57.8096 49.3414 58.471 49.3414H69.1297C69.7884 49.3414 70.3273 48.8025 70.3273 48.1438V46.4671C70.3273 45.8057 70.8635 45.2695 71.5249 45.2695C72.1864 45.2695 72.7225 45.8057 72.7225 46.4671V48.1438C72.7225 50.1198 71.1657 51.7366 69.1297 51.7366Z" fill="#060F42"/>
</g>
<path d="M8.96242 87H7.33642V79.566H3.56842V87H1.94842V78.324H8.96242V87ZM12.0441 85.404C12.2121 85.608 12.3941 85.752 12.5901 85.836C12.7901 85.92 13.0061 85.962 13.2381 85.962C13.4621 85.962 13.6641 85.92 13.8441 85.836C14.0241 85.752 14.1761 85.624 14.3001 85.452C14.4281 85.28 14.5261 85.064 14.5941 84.804C14.6621 84.54 14.6961 84.23 14.6961 83.874C14.6961 83.514 14.6661 83.21 14.6061 82.962C14.5501 82.71 14.4681 82.506 14.3601 82.35C14.2521 82.194 14.1201 82.08 13.9641 82.008C13.8121 81.936 13.6381 81.9 13.4421 81.9C13.1341 81.9 12.8721 81.966 12.6561 82.098C12.4401 82.226 12.2361 82.408 12.0441 82.644V85.404ZM11.9661 81.684C12.2181 81.4 12.5041 81.17 12.8241 80.994C13.1441 80.818 13.5201 80.73 13.9521 80.73C14.2881 80.73 14.5941 80.8 14.8701 80.94C15.1501 81.08 15.3901 81.284 15.5901 81.552C15.7941 81.816 15.9501 82.144 16.0581 82.536C16.1701 82.924 16.2261 83.37 16.2261 83.874C16.2261 84.334 16.1641 84.76 16.0401 85.152C15.9161 85.544 15.7381 85.884 15.5061 86.172C15.2781 86.46 15.0001 86.686 14.6721 86.85C14.3481 87.01 13.9841 87.09 13.5801 87.09C13.2361 87.09 12.9421 87.038 12.6981 86.934C12.4541 86.826 12.2361 86.678 12.0441 86.49V89.01H10.5621V80.844H11.4681C11.6601 80.844 11.7861 80.934 11.8461 81.114L11.9661 81.684ZM20.0947 80.748C20.5507 80.748 20.9647 80.822 21.3367 80.97C21.7127 81.118 22.0327 81.328 22.2967 81.6C22.5647 81.872 22.7707 82.204 22.9147 82.596C23.0587 82.988 23.1307 83.426 23.1307 83.91C23.1307 84.398 23.0587 84.838 22.9147 85.23C22.7707 85.622 22.5647 85.956 22.2967 86.232C22.0327 86.508 21.7127 86.72 21.3367 86.868C20.9647 87.016 20.5507 87.09 20.0947 87.09C19.6347 87.09 19.2167 87.016 18.8407 86.868C18.4647 86.72 18.1427 86.508 17.8747 86.232C17.6107 85.956 17.4047 85.622 17.2567 85.23C17.1127 84.838 17.0407 84.398 17.0407 83.91C17.0407 83.426 17.1127 82.988 17.2567 82.596C17.4047 82.204 17.6107 81.872 17.8747 81.6C18.1427 81.328 18.4647 81.118 18.8407 80.97C19.2167 80.822 19.6347 80.748 20.0947 80.748ZM20.0947 85.95C20.6067 85.95 20.9847 85.778 21.2287 85.434C21.4767 85.09 21.6007 84.586 21.6007 83.922C21.6007 83.258 21.4767 82.752 21.2287 82.404C20.9847 82.056 20.6067 81.882 20.0947 81.882C19.5747 81.882 19.1887 82.058 18.9367 82.41C18.6887 82.758 18.5647 83.262 18.5647 83.922C18.5647 84.582 18.6887 85.086 18.9367 85.434C19.1887 85.778 19.5747 85.95 20.0947 85.95ZM28.5633 85.986C29.1593 85.942 29.6193 85.742 29.9433 85.386C30.2713 85.03 30.4353 84.542 30.4353 83.922C30.4353 83.302 30.2713 82.814 29.9433 82.458C29.6193 82.098 29.1593 81.896 28.5633 81.852V85.986ZM27.2673 81.852C26.9713 81.876 26.7073 81.94 26.4753 82.044C26.2473 82.144 26.0513 82.282 25.8873 82.458C25.7273 82.634 25.6053 82.846 25.5213 83.094C25.4373 83.338 25.3953 83.614 25.3953 83.922C25.3953 84.23 25.4373 84.508 25.5213 84.756C25.6053 85 25.7273 85.21 25.8873 85.386C26.0513 85.558 26.2473 85.696 26.4753 85.8C26.7073 85.9 26.9713 85.962 27.2673 85.986V81.852ZM28.6113 80.754C29.1033 80.782 29.5513 80.876 29.9553 81.036C30.3633 81.192 30.7113 81.406 30.9993 81.678C31.2913 81.95 31.5173 82.274 31.6773 82.65C31.8373 83.026 31.9173 83.446 31.9173 83.91C31.9173 84.378 31.8373 84.802 31.6773 85.182C31.5173 85.558 31.2913 85.882 30.9993 86.154C30.7113 86.426 30.3633 86.642 29.9553 86.802C29.5513 86.962 29.1033 87.056 28.6113 87.084V89.064H27.2193V87.084C26.7273 87.056 26.2773 86.962 25.8693 86.802C25.4653 86.642 25.1173 86.426 24.8253 86.154C24.5373 85.882 24.3133 85.558 24.1533 85.182C23.9933 84.802 23.9133 84.378 23.9133 83.91C23.9133 83.446 23.9933 83.026 24.1533 82.65C24.3133 82.274 24.5373 81.95 24.8253 81.678C25.1173 81.406 25.4653 81.192 25.8693 81.036C26.2773 80.876 26.7273 80.782 27.2193 80.754V78.324H28.6113V80.754ZM37.0046 83.214C37.0046 83.022 36.9766 82.842 36.9206 82.674C36.8686 82.502 36.7886 82.352 36.6806 82.224C36.5726 82.096 36.4346 81.996 36.2666 81.924C36.1026 81.848 35.9106 81.81 35.6906 81.81C35.2626 81.81 34.9246 81.932 34.6766 82.176C34.4326 82.42 34.2766 82.766 34.2086 83.214H37.0046ZM34.1786 84.108C34.2026 84.424 34.2586 84.698 34.3466 84.93C34.4346 85.158 34.5506 85.348 34.6946 85.5C34.8386 85.648 35.0086 85.76 35.2046 85.836C35.4046 85.908 35.6246 85.944 35.8646 85.944C36.1046 85.944 36.3106 85.916 36.4826 85.86C36.6586 85.804 36.8106 85.742 36.9386 85.674C37.0706 85.606 37.1846 85.544 37.2806 85.488C37.3806 85.432 37.4766 85.404 37.5686 85.404C37.6926 85.404 37.7846 85.45 37.8446 85.542L38.2706 86.082C38.1066 86.274 37.9226 86.436 37.7186 86.568C37.5146 86.696 37.3006 86.8 37.0766 86.88C36.8566 86.956 36.6306 87.01 36.3986 87.042C36.1706 87.074 35.9486 87.09 35.7326 87.09C35.3046 87.09 34.9066 87.02 34.5386 86.88C34.1706 86.736 33.8506 86.526 33.5786 86.25C33.3066 85.97 33.0926 85.626 32.9366 85.218C32.7806 84.806 32.7026 84.33 32.7026 83.79C32.7026 83.37 32.7706 82.976 32.9066 82.608C33.0426 82.236 33.2366 81.914 33.4886 81.642C33.7446 81.366 34.0546 81.148 34.4186 80.988C34.7866 80.828 35.2006 80.748 35.6606 80.748C36.0486 80.748 36.4066 80.81 36.7346 80.934C37.0626 81.058 37.3446 81.24 37.5806 81.48C37.8166 81.716 38.0006 82.008 38.1326 82.356C38.2686 82.7 38.3366 83.094 38.3366 83.538C38.3366 83.762 38.3126 83.914 38.2646 83.994C38.2166 84.07 38.1246 84.108 37.9886 84.108H34.1786ZM43.8588 82.146C43.8148 82.202 43.7708 82.246 43.7268 82.278C43.6868 82.31 43.6268 82.326 43.5468 82.326C43.4708 82.326 43.3968 82.304 43.3248 82.26C43.2528 82.212 43.1668 82.16 43.0668 82.104C42.9668 82.044 42.8468 81.992 42.7068 81.948C42.5708 81.9 42.4008 81.876 42.1968 81.876C41.9368 81.876 41.7088 81.924 41.5128 82.02C41.3168 82.112 41.1528 82.246 41.0208 82.422C40.8928 82.598 40.7968 82.812 40.7328 83.064C40.6688 83.312 40.6368 83.594 40.6368 83.91C40.6368 84.238 40.6708 84.53 40.7388 84.786C40.8108 85.042 40.9128 85.258 41.0448 85.434C41.1768 85.606 41.3368 85.738 41.5248 85.83C41.7128 85.918 41.9248 85.962 42.1608 85.962C42.3968 85.962 42.5868 85.934 42.7308 85.878C42.8788 85.818 43.0028 85.754 43.1028 85.686C43.2028 85.614 43.2888 85.55 43.3608 85.494C43.4368 85.434 43.5208 85.404 43.6128 85.404C43.7328 85.404 43.8228 85.45 43.8828 85.542L44.3088 86.082C44.1448 86.274 43.9668 86.436 43.7748 86.568C43.5828 86.696 43.3828 86.8 43.1748 86.88C42.9708 86.956 42.7588 87.01 42.5388 87.042C42.3228 87.074 42.1068 87.09 41.8908 87.09C41.5108 87.09 41.1528 87.02 40.8168 86.88C40.4808 86.736 40.1868 86.528 39.9348 86.256C39.6828 85.984 39.4828 85.652 39.3348 85.26C39.1908 84.864 39.1188 84.414 39.1188 83.91C39.1188 83.458 39.1828 83.04 39.3108 82.656C39.4428 82.268 39.6348 81.934 39.8868 81.654C40.1388 81.37 40.4508 81.148 40.8228 80.988C41.1948 80.828 41.6228 80.748 42.1068 80.748C42.5668 80.748 42.9688 80.822 43.3128 80.97C43.6608 81.118 43.9728 81.33 44.2488 81.606L43.8588 82.146ZM49.5424 82.146C49.4984 82.202 49.4544 82.246 49.4104 82.278C49.3704 82.31 49.3104 82.326 49.2304 82.326C49.1544 82.326 49.0804 82.304 49.0084 82.26C48.9364 82.212 48.8504 82.16 48.7504 82.104C48.6504 82.044 48.5304 81.992 48.3904 81.948C48.2544 81.9 48.0844 81.876 47.8804 81.876C47.6204 81.876 47.3924 81.924 47.1964 82.02C47.0004 82.112 46.8364 82.246 46.7044 82.422C46.5764 82.598 46.4804 82.812 46.4164 83.064C46.3524 83.312 46.3204 83.594 46.3204 83.91C46.3204 84.238 46.3544 84.53 46.4224 84.786C46.4944 85.042 46.5964 85.258 46.7284 85.434C46.8604 85.606 47.0204 85.738 47.2084 85.83C47.3964 85.918 47.6084 85.962 47.8444 85.962C48.0804 85.962 48.2704 85.934 48.4144 85.878C48.5624 85.818 48.6864 85.754 48.7864 85.686C48.8864 85.614 48.9724 85.55 49.0444 85.494C49.1204 85.434 49.2044 85.404 49.2964 85.404C49.4164 85.404 49.5064 85.45 49.5664 85.542L49.9924 86.082C49.8284 86.274 49.6504 86.436 49.4584 86.568C49.2664 86.696 49.0664 86.8 48.8584 86.88C48.6544 86.956 48.4424 87.01 48.2224 87.042C48.0064 87.074 47.7904 87.09 47.5744 87.09C47.1944 87.09 46.8364 87.02 46.5004 86.88C46.1644 86.736 45.8704 86.528 45.6184 86.256C45.3664 85.984 45.1664 85.652 45.0184 85.26C44.8744 84.864 44.8024 84.414 44.8024 83.91C44.8024 83.458 44.8664 83.04 44.9944 82.656C45.1264 82.268 45.3184 81.934 45.5704 81.654C45.8224 81.37 46.1344 81.148 46.5064 80.988C46.8784 80.828 47.3064 80.748 47.7904 80.748C48.2504 80.748 48.6524 80.822 48.9964 80.97C49.3444 81.118 49.6564 81.33 49.9324 81.606L49.5424 82.146ZM56.4535 80.844V87H54.9715V83.406C54.9715 83.314 54.9755 83.214 54.9835 83.106C54.9955 82.994 55.0095 82.882 55.0255 82.77C54.9455 82.954 54.8575 83.116 54.7615 83.256C54.7535 83.264 54.7135 83.32 54.6415 83.424C54.5695 83.524 54.4755 83.654 54.3595 83.814C54.2475 83.974 54.1195 84.156 53.9755 84.36C53.8315 84.56 53.6855 84.764 53.5375 84.972C53.1895 85.464 52.7955 86.02 52.3555 86.64C52.2995 86.724 52.2255 86.806 52.1335 86.886C52.0455 86.966 51.9435 87.006 51.8275 87.006H50.9215V80.85H52.4035V84.444C52.4035 84.536 52.3975 84.638 52.3855 84.75C52.3775 84.858 52.3655 84.968 52.3495 85.08C52.4375 84.884 52.5255 84.722 52.6135 84.594C52.6175 84.586 52.6555 84.532 52.7275 84.432C52.7995 84.332 52.8915 84.202 53.0035 84.042C53.1195 83.882 53.2495 83.702 53.3935 83.502C53.5375 83.298 53.6835 83.09 53.8315 82.878C54.1795 82.386 54.5755 81.83 55.0195 81.21C55.0755 81.122 55.1495 81.04 55.2415 80.964C55.3335 80.884 55.4375 80.844 55.5535 80.844H56.4535ZM60.6415 80.748C61.0975 80.748 61.5115 80.822 61.8835 80.97C62.2595 81.118 62.5795 81.328 62.8435 81.6C63.1115 81.872 63.3175 82.204 63.4615 82.596C63.6055 82.988 63.6775 83.426 63.6775 83.91C63.6775 84.398 63.6055 84.838 63.4615 85.23C63.3175 85.622 63.1115 85.956 62.8435 86.232C62.5795 86.508 62.2595 86.72 61.8835 86.868C61.5115 87.016 61.0975 87.09 60.6415 87.09C60.1815 87.09 59.7635 87.016 59.3875 86.868C59.0115 86.72 58.6895 86.508 58.4215 86.232C58.1575 85.956 57.9515 85.622 57.8035 85.23C57.6595 84.838 57.5875 84.398 57.5875 83.91C57.5875 83.426 57.6595 82.988 57.8035 82.596C57.9515 82.204 58.1575 81.872 58.4215 81.6C58.6895 81.328 59.0115 81.118 59.3875 80.97C59.7635 80.822 60.1815 80.748 60.6415 80.748ZM60.6415 85.95C61.1535 85.95 61.5315 85.778 61.7755 85.434C62.0235 85.09 62.1475 84.586 62.1475 83.922C62.1475 83.258 62.0235 82.752 61.7755 82.404C61.5315 82.056 61.1535 81.882 60.6415 81.882C60.1215 81.882 59.7355 82.058 59.4835 82.41C59.2355 82.758 59.1115 83.262 59.1115 83.922C59.1115 84.582 59.2355 85.086 59.4835 85.434C59.7355 85.778 60.1215 85.95 60.6415 85.95ZM70.1722 80.844V87H68.6902V84.276H66.2902V87H64.8082V80.844H66.2902V83.178H68.6902V80.844H70.1722ZM74.8922 84.372C74.4642 84.392 74.1042 84.43 73.8122 84.486C73.5202 84.538 73.2862 84.606 73.1102 84.69C72.9342 84.774 72.8082 84.872 72.7322 84.984C72.6562 85.096 72.6182 85.218 72.6182 85.35C72.6182 85.61 72.6942 85.796 72.8462 85.908C73.0022 86.02 73.2042 86.076 73.4522 86.076C73.7562 86.076 74.0182 86.022 74.2382 85.914C74.4622 85.802 74.6802 85.634 74.8922 85.41V84.372ZM71.4962 81.702C72.2042 81.054 73.0562 80.73 74.0522 80.73C74.4122 80.73 74.7342 80.79 75.0182 80.91C75.3022 81.026 75.5422 81.19 75.7382 81.402C75.9342 81.61 76.0822 81.86 76.1822 82.152C76.2862 82.444 76.3382 82.764 76.3382 83.112V87H75.6662C75.5262 87 75.4182 86.98 75.3422 86.94C75.2662 86.896 75.2062 86.81 75.1622 86.682L75.0302 86.238C74.8742 86.378 74.7222 86.502 74.5742 86.61C74.4262 86.714 74.2722 86.802 74.1122 86.874C73.9522 86.946 73.7802 87 73.5962 87.036C73.4162 87.076 73.2162 87.096 72.9962 87.096C72.7362 87.096 72.4962 87.062 72.2762 86.994C72.0562 86.922 71.8662 86.816 71.7062 86.676C71.5462 86.536 71.4222 86.362 71.3342 86.154C71.2462 85.946 71.2022 85.704 71.2022 85.428C71.2022 85.272 71.2282 85.118 71.2802 84.966C71.3322 84.81 71.4162 84.662 71.5322 84.522C71.6522 84.382 71.8062 84.25 71.9942 84.126C72.1822 84.002 72.4122 83.894 72.6842 83.802C72.9602 83.71 73.2802 83.636 73.6442 83.58C74.0082 83.52 74.4242 83.484 74.8922 83.472V83.112C74.8922 82.7 74.8042 82.396 74.6282 82.2C74.4522 82 74.1982 81.9 73.8662 81.9C73.6262 81.9 73.4262 81.928 73.2662 81.984C73.1102 82.04 72.9722 82.104 72.8522 82.176C72.7322 82.244 72.6222 82.306 72.5222 82.362C72.4262 82.418 72.3182 82.446 72.1982 82.446C72.0942 82.446 72.0062 82.42 71.9342 82.368C71.8622 82.312 71.8042 82.248 71.7602 82.176L71.4962 81.702ZM83.446 87H81.964V81.978H80.452C80.404 82.734 80.33 83.386 80.23 83.934C80.13 84.478 80.01 84.94 79.87 85.32C79.734 85.7 79.58 86.006 79.408 86.238C79.24 86.466 79.06 86.644 78.868 86.772C78.676 86.9 78.478 86.984 78.274 87.024C78.07 87.068 77.864 87.09 77.656 87.09C77.436 87.09 77.274 87.07 77.17 87.03C77.07 86.994 77.02 86.942 77.02 86.874V85.95H77.374C77.506 85.95 77.638 85.93 77.77 85.89C77.902 85.85 78.03 85.768 78.154 85.644C78.278 85.52 78.396 85.344 78.508 85.116C78.62 84.884 78.722 84.58 78.814 84.204C78.91 83.824 78.994 83.36 79.066 82.812C79.138 82.264 79.194 81.608 79.234 80.844H83.446V87ZM87.4198 85.938C87.7558 85.938 88.0058 85.854 88.1698 85.686C88.3378 85.518 88.4218 85.302 88.4218 85.038C88.4218 84.926 88.4018 84.818 88.3618 84.714C88.3258 84.61 88.2678 84.518 88.1878 84.438C88.1078 84.358 88.0038 84.296 87.8758 84.252C87.7478 84.204 87.5938 84.18 87.4138 84.18H86.3158V85.938H87.4198ZM87.4078 83.124C87.8358 83.124 88.1978 83.176 88.4938 83.28C88.7898 83.384 89.0298 83.524 89.2138 83.7C89.3978 83.876 89.5298 84.08 89.6098 84.312C89.6938 84.54 89.7358 84.78 89.7358 85.032C89.7358 85.32 89.6838 85.586 89.5798 85.83C89.4798 86.07 89.3298 86.278 89.1298 86.454C88.9338 86.626 88.6918 86.76 88.4038 86.856C88.1198 86.952 87.7938 87 87.4258 87H84.9058V80.844H86.3158V83.124H87.4078ZM96.094 80.844V87H94.612V84.276H92.212V87H90.73V80.844H92.212V83.178H94.612V80.844H96.094ZM100.814 84.372C100.386 84.392 100.026 84.43 99.7341 84.486C99.4421 84.538 99.2081 84.606 99.0321 84.69C98.8561 84.774 98.7301 84.872 98.6541 84.984C98.5781 85.096 98.5401 85.218 98.5401 85.35C98.5401 85.61 98.6161 85.796 98.7681 85.908C98.9241 86.02 99.1261 86.076 99.3741 86.076C99.6781 86.076 99.9401 86.022 100.16 85.914C100.384 85.802 100.602 85.634 100.814 85.41V84.372ZM97.4181 81.702C98.1261 81.054 98.9781 80.73 99.9741 80.73C100.334 80.73 100.656 80.79 100.94 80.91C101.224 81.026 101.464 81.19 101.66 81.402C101.856 81.61 102.004 81.86 102.104 82.152C102.208 82.444 102.26 82.764 102.26 83.112V87H101.588C101.448 87 101.34 86.98 101.264 86.94C101.188 86.896 101.128 86.81 101.084 86.682L100.952 86.238C100.796 86.378 100.644 86.502 100.496 86.61C100.348 86.714 100.194 86.802 100.034 86.874C99.8741 86.946 99.7021 87 99.5181 87.036C99.3381 87.076 99.1381 87.096 98.9181 87.096C98.6581 87.096 98.4181 87.062 98.1981 86.994C97.9781 86.922 97.7881 86.816 97.6281 86.676C97.4681 86.536 97.3441 86.362 97.2561 86.154C97.1681 85.946 97.1241 85.704 97.1241 85.428C97.1241 85.272 97.1501 85.118 97.2021 84.966C97.2541 84.81 97.3381 84.662 97.4541 84.522C97.5741 84.382 97.7281 84.25 97.9161 84.126C98.1041 84.002 98.3341 83.894 98.6061 83.802C98.8821 83.71 99.2021 83.636 99.5661 83.58C99.9301 83.52 100.346 83.484 100.814 83.472V83.112C100.814 82.7 100.726 82.396 100.55 82.2C100.374 82 100.12 81.9 99.7881 81.9C99.5481 81.9 99.3481 81.928 99.1881 81.984C99.0321 82.04 98.8941 82.104 98.7741 82.176C98.6541 82.244 98.5441 82.306 98.4441 82.362C98.3481 82.418 98.2401 82.446 98.1201 82.446C98.0161 82.446 97.9281 82.42 97.8561 82.368C97.7841 82.312 97.7261 82.248 97.6821 82.176L97.4181 81.702ZM106.866 83.616V81.81H106.062C105.874 81.81 105.718 81.838 105.594 81.894C105.47 81.946 105.368 82.016 105.288 82.104C105.212 82.188 105.158 82.284 105.126 82.392C105.094 82.5 105.078 82.606 105.078 82.71C105.078 82.994 105.172 83.216 105.36 83.376C105.552 83.536 105.808 83.616 106.128 83.616H106.866ZM108.276 80.844V87H106.866V84.528H106.608C106.488 84.528 106.388 84.54 106.308 84.564C106.232 84.584 106.166 84.614 106.11 84.654C106.058 84.69 106.012 84.736 105.972 84.792C105.936 84.848 105.898 84.91 105.858 84.978L104.874 86.49C104.826 86.574 104.774 86.648 104.718 86.712C104.666 86.776 104.604 86.83 104.532 86.874C104.464 86.914 104.382 86.946 104.286 86.97C104.194 86.99 104.082 87 103.95 87H102.924L104.478 84.828C104.562 84.676 104.66 84.554 104.772 84.462C104.884 84.37 105.016 84.296 105.168 84.24C104.88 84.188 104.634 84.108 104.43 84C104.23 83.888 104.068 83.76 103.944 83.616C103.82 83.468 103.73 83.31 103.674 83.142C103.618 82.974 103.59 82.808 103.59 82.644C103.59 82.416 103.634 82.194 103.722 81.978C103.814 81.762 103.958 81.57 104.154 81.402C104.35 81.234 104.602 81.1 104.91 81C105.218 80.896 105.588 80.844 106.02 80.844H108.276ZM21.1776 93.234C21.2496 93.118 21.3476 93.024 21.4716 92.952C21.5956 92.88 21.7276 92.844 21.8676 92.844H23.0316L21.5976 95.13C21.4976 95.29 21.3956 95.42 21.2916 95.52C21.1876 95.616 21.0616 95.692 20.9136 95.748C21.1136 95.808 21.2776 95.898 21.4056 96.018C21.5336 96.134 21.6496 96.282 21.7536 96.462L23.1936 99H22.1676C21.9076 99 21.7056 98.956 21.5616 98.868C21.4176 98.78 21.2956 98.654 21.1956 98.49L20.2896 96.786C20.2096 96.638 20.1056 96.528 19.9776 96.456C19.8536 96.384 19.7076 96.348 19.5396 96.348H18.9816V99H17.4996V92.844H18.9816V95.382H19.4616C19.6296 95.382 19.7636 95.352 19.8636 95.292C19.9676 95.228 20.0556 95.132 20.1276 95.004L21.1776 93.234ZM26.5165 92.748C26.9725 92.748 27.3865 92.822 27.7585 92.97C28.1345 93.118 28.4545 93.328 28.7185 93.6C28.9865 93.872 29.1925 94.204 29.3365 94.596C29.4805 94.988 29.5525 95.426 29.5525 95.91C29.5525 96.398 29.4805 96.838 29.3365 97.23C29.1925 97.622 28.9865 97.956 28.7185 98.232C28.4545 98.508 28.1345 98.72 27.7585 98.868C27.3865 99.016 26.9725 99.09 26.5165 99.09C26.0565 99.09 25.6385 99.016 25.2625 98.868C24.8865 98.72 24.5645 98.508 24.2965 98.232C24.0325 97.956 23.8265 97.622 23.6785 97.23C23.5345 96.838 23.4625 96.398 23.4625 95.91C23.4625 95.426 23.5345 94.988 23.6785 94.596C23.8265 94.204 24.0325 93.872 24.2965 93.6C24.5645 93.328 24.8865 93.118 25.2625 92.97C25.6385 92.822 26.0565 92.748 26.5165 92.748ZM26.5165 97.95C27.0285 97.95 27.4065 97.778 27.6505 97.434C27.8985 97.09 28.0225 96.586 28.0225 95.922C28.0225 95.258 27.8985 94.752 27.6505 94.404C27.4065 94.056 27.0285 93.882 26.5165 93.882C25.9965 93.882 25.6105 94.058 25.3585 94.41C25.1105 94.758 24.9865 95.262 24.9865 95.922C24.9865 96.582 25.1105 97.086 25.3585 97.434C25.6105 97.778 25.9965 97.95 26.5165 97.95ZM36.0472 92.844V99H34.5652V96.276H32.1652V99H30.6832V92.844H32.1652V95.178H34.5652V92.844H36.0472ZM41.9252 94.146C41.8812 94.202 41.8372 94.246 41.7932 94.278C41.7532 94.31 41.6932 94.326 41.6132 94.326C41.5372 94.326 41.4632 94.304 41.3912 94.26C41.3192 94.212 41.2332 94.16 41.1332 94.104C41.0332 94.044 40.9132 93.992 40.7732 93.948C40.6372 93.9 40.4672 93.876 40.2632 93.876C40.0032 93.876 39.7752 93.924 39.5792 94.02C39.3832 94.112 39.2192 94.246 39.0872 94.422C38.9592 94.598 38.8632 94.812 38.7992 95.064C38.7352 95.312 38.7032 95.594 38.7032 95.91C38.7032 96.238 38.7372 96.53 38.8052 96.786C38.8772 97.042 38.9792 97.258 39.1112 97.434C39.2432 97.606 39.4032 97.738 39.5912 97.83C39.7792 97.918 39.9912 97.962 40.2272 97.962C40.4632 97.962 40.6532 97.934 40.7972 97.878C40.9452 97.818 41.0692 97.754 41.1692 97.686C41.2692 97.614 41.3552 97.55 41.4272 97.494C41.5032 97.434 41.5872 97.404 41.6792 97.404C41.7992 97.404 41.8892 97.45 41.9492 97.542L42.3752 98.082C42.2112 98.274 42.0332 98.436 41.8412 98.568C41.6492 98.696 41.4492 98.8 41.2412 98.88C41.0372 98.956 40.8252 99.01 40.6052 99.042C40.3892 99.074 40.1732 99.09 39.9572 99.09C39.5772 99.09 39.2192 99.02 38.8832 98.88C38.5472 98.736 38.2532 98.528 38.0012 98.256C37.7492 97.984 37.5492 97.652 37.4012 97.26C37.2572 96.864 37.1852 96.414 37.1852 95.91C37.1852 95.458 37.2492 95.04 37.3772 94.656C37.5092 94.268 37.7012 93.934 37.9532 93.654C38.2052 93.37 38.5172 93.148 38.8892 92.988C39.2612 92.828 39.6892 92.748 40.1732 92.748C40.6332 92.748 41.0352 92.822 41.3792 92.97C41.7272 93.118 42.0392 93.33 42.3152 93.606L41.9252 94.146ZM48.8963 92.844L45.5423 100.692C45.4983 100.796 45.4403 100.874 45.3683 100.926C45.3003 100.982 45.1943 101.01 45.0503 101.01H43.9463L45.0983 98.538L42.6083 92.844H43.9103C44.0263 92.844 44.1163 92.872 44.1803 92.928C44.2483 92.984 44.2983 93.048 44.3303 93.12L45.6383 96.312C45.6823 96.42 45.7183 96.528 45.7463 96.636C45.7783 96.744 45.8083 96.854 45.8363 96.966C45.8723 96.854 45.9083 96.744 45.9443 96.636C45.9803 96.524 46.0203 96.414 46.0643 96.306L47.3003 93.12C47.3323 93.04 47.3843 92.974 47.4563 92.922C47.5323 92.87 47.6163 92.844 47.7083 92.844H48.8963ZM54.7467 99H53.2647V93.978H51.7527C51.7047 94.734 51.6307 95.386 51.5307 95.934C51.4307 96.478 51.3107 96.94 51.1707 97.32C51.0347 97.7 50.8807 98.006 50.7087 98.238C50.5407 98.466 50.3607 98.644 50.1687 98.772C49.9767 98.9 49.7787 98.984 49.5747 99.024C49.3707 99.068 49.1647 99.09 48.9567 99.09C48.7367 99.09 48.5747 99.07 48.4707 99.03C48.3707 98.994 48.3207 98.942 48.3207 98.874V97.95H48.6747C48.8067 97.95 48.9387 97.93 49.0707 97.89C49.2027 97.85 49.3307 97.768 49.4547 97.644C49.5787 97.52 49.6967 97.344 49.8087 97.116C49.9207 96.884 50.0227 96.58 50.1147 96.204C50.2107 95.824 50.2947 95.36 50.3667 94.812C50.4387 94.264 50.4947 93.608 50.5347 92.844H54.7467V99ZM58.7206 97.938C59.0566 97.938 59.3066 97.854 59.4706 97.686C59.6386 97.518 59.7226 97.302 59.7226 97.038C59.7226 96.926 59.7026 96.818 59.6626 96.714C59.6266 96.61 59.5686 96.518 59.4886 96.438C59.4086 96.358 59.3046 96.296 59.1766 96.252C59.0486 96.204 58.8946 96.18 58.7146 96.18H57.6166V97.938H58.7206ZM58.7086 95.124C59.1366 95.124 59.4986 95.176 59.7946 95.28C60.0906 95.384 60.3306 95.524 60.5146 95.7C60.6986 95.876 60.8306 96.08 60.9106 96.312C60.9946 96.54 61.0366 96.78 61.0366 97.032C61.0366 97.32 60.9846 97.586 60.8806 97.83C60.7806 98.07 60.6306 98.278 60.4306 98.454C60.2346 98.626 59.9926 98.76 59.7046 98.856C59.4206 98.952 59.0946 99 58.7266 99H56.2066V92.844H57.6166V95.124H58.7086ZM66.514 93.942H64.318V99H62.836V93.942H60.646V92.844H66.514V93.942ZM70.6031 96.372C70.1751 96.392 69.8151 96.43 69.5231 96.486C69.2311 96.538 68.9971 96.606 68.8211 96.69C68.6451 96.774 68.5191 96.872 68.4431 96.984C68.3671 97.096 68.3291 97.218 68.3291 97.35C68.3291 97.61 68.4051 97.796 68.5571 97.908C68.7131 98.02 68.9151 98.076 69.1631 98.076C69.4671 98.076 69.7291 98.022 69.9491 97.914C70.1731 97.802 70.3911 97.634 70.6031 97.41V96.372ZM67.2071 93.702C67.9151 93.054 68.7671 92.73 69.7631 92.73C70.1231 92.73 70.4451 92.79 70.7291 92.91C71.0131 93.026 71.2531 93.19 71.4491 93.402C71.6451 93.61 71.7931 93.86 71.8931 94.152C71.9971 94.444 72.0491 94.764 72.0491 95.112V99H71.3771C71.2371 99 71.1291 98.98 71.0531 98.94C70.9771 98.896 70.9171 98.81 70.8731 98.682L70.7411 98.238C70.5851 98.378 70.4331 98.502 70.2851 98.61C70.1371 98.714 69.9831 98.802 69.8231 98.874C69.6631 98.946 69.4911 99 69.3071 99.036C69.1271 99.076 68.9271 99.096 68.7071 99.096C68.4471 99.096 68.2071 99.062 67.9871 98.994C67.7671 98.922 67.5771 98.816 67.4171 98.676C67.2571 98.536 67.1331 98.362 67.0451 98.154C66.9571 97.946 66.9131 97.704 66.9131 97.428C66.9131 97.272 66.9391 97.118 66.9911 96.966C67.0431 96.81 67.1271 96.662 67.2431 96.522C67.3631 96.382 67.5171 96.25 67.7051 96.126C67.8931 96.002 68.1231 95.894 68.3951 95.802C68.6711 95.71 68.9911 95.636 69.3551 95.58C69.7191 95.52 70.1351 95.484 70.6031 95.472V95.112C70.6031 94.7 70.5151 94.396 70.3391 94.2C70.1631 94 69.9091 93.9 69.5771 93.9C69.3371 93.9 69.1371 93.928 68.9771 93.984C68.8211 94.04 68.6831 94.104 68.5631 94.176C68.4431 94.244 68.3331 94.306 68.2331 94.362C68.1371 94.418 68.0291 94.446 67.9091 94.446C67.8051 94.446 67.7171 94.42 67.6451 94.368C67.5731 94.312 67.5151 94.248 67.4711 94.176L67.2071 93.702ZM79.9429 97.902V100.62C79.9429 100.756 79.9029 100.864 79.8229 100.944C79.7429 101.024 79.6409 101.064 79.5169 101.064H78.5929V99H73.4449V92.844H74.9269V97.902H77.3269V92.844H78.8089V97.902H79.9429ZM86.4066 92.844V99H84.9246V95.406C84.9246 95.314 84.9286 95.214 84.9366 95.106C84.9486 94.994 84.9626 94.882 84.9786 94.77C84.8986 94.954 84.8106 95.116 84.7146 95.256C84.7066 95.264 84.6666 95.32 84.5946 95.424C84.5226 95.524 84.4286 95.654 84.3126 95.814C84.2006 95.974 84.0726 96.156 83.9286 96.36C83.7846 96.56 83.6386 96.764 83.4906 96.972C83.1426 97.464 82.7486 98.02 82.3086 98.64C82.2526 98.724 82.1786 98.806 82.0866 98.886C81.9986 98.966 81.8966 99.006 81.7806 99.006H80.8746V92.85H82.3566V96.444C82.3566 96.536 82.3506 96.638 82.3386 96.75C82.3306 96.858 82.3186 96.968 82.3026 97.08C82.3906 96.884 82.4786 96.722 82.5666 96.594C82.5706 96.586 82.6086 96.532 82.6806 96.432C82.7526 96.332 82.8446 96.202 82.9566 96.042C83.0726 95.882 83.2026 95.702 83.3466 95.502C83.4906 95.298 83.6366 95.09 83.7846 94.878C84.1326 94.386 84.5286 93.83 84.9726 93.21C85.0286 93.122 85.1026 93.04 85.1946 92.964C85.2866 92.884 85.3906 92.844 85.5066 92.844H86.4066ZM91.0807 95.616V93.81H90.2767C90.0887 93.81 89.9327 93.838 89.8087 93.894C89.6847 93.946 89.5827 94.016 89.5027 94.104C89.4267 94.188 89.3727 94.284 89.3407 94.392C89.3087 94.5 89.2927 94.606 89.2927 94.71C89.2927 94.994 89.3867 95.216 89.5747 95.376C89.7667 95.536 90.0227 95.616 90.3427 95.616H91.0807ZM92.4907 92.844V99H91.0807V96.528H90.8227C90.7027 96.528 90.6027 96.54 90.5227 96.564C90.4467 96.584 90.3807 96.614 90.3247 96.654C90.2727 96.69 90.2267 96.736 90.1867 96.792C90.1507 96.848 90.1127 96.91 90.0727 96.978L89.0887 98.49C89.0407 98.574 88.9887 98.648 88.9327 98.712C88.8807 98.776 88.8187 98.83 88.7467 98.874C88.6787 98.914 88.5967 98.946 88.5007 98.97C88.4087 98.99 88.2967 99 88.1647 99H87.1387L88.6927 96.828C88.7767 96.676 88.8747 96.554 88.9867 96.462C89.0987 96.37 89.2307 96.296 89.3827 96.24C89.0947 96.188 88.8487 96.108 88.6447 96C88.4447 95.888 88.2827 95.76 88.1587 95.616C88.0347 95.468 87.9447 95.31 87.8887 95.142C87.8327 94.974 87.8047 94.808 87.8047 94.644C87.8047 94.416 87.8487 94.194 87.9367 93.978C88.0287 93.762 88.1727 93.57 88.3687 93.402C88.5647 93.234 88.8167 93.1 89.1247 93C89.4327 92.896 89.8027 92.844 90.2347 92.844H92.4907Z" fill="#060F42"/>
<defs>
<clipPath id="clip0_6924_6573">
<rect width="43.1138" height="60" fill="white" transform="translate(33.4414 10)"/>
</clipPath>
</defs>
</svg>
