<svg width="110" height="110" viewBox="0 0 110 110" fill="none" xmlns="http://www.w3.org/2000/svg">
<g clip-path="url(#clip0_6924_6539)">
<g clip-path="url(#clip1_6924_6539)">
<path d="M83.8948 42.9296C84.505 45.0518 83.28 47.2671 81.158 47.8785L48.3561 57.3299C47.2173 57.658 45.9917 57.4643 45.0097 56.801L33.6195 49.1073C32.0221 48.0282 31.4215 45.9633 32.191 44.1959L37.693 31.5586C38.1691 30.465 39.1083 29.641 40.2545 29.3112L73.0996 19.8619C75.2228 19.2511 77.4392 20.4773 78.0497 22.6007L83.8948 42.9296Z" fill="#01579B"/>
<path d="M82.9857 57.8156C82.9857 60.0248 81.1948 61.8156 78.9857 61.8156H44.8789C43.6918 61.8156 42.566 61.2883 41.806 60.3764L32.9929 49.8006C31.7587 48.3195 31.7565 46.1688 32.9878 44.6853L41.8058 34.0606C42.5658 33.145 43.6939 32.6152 44.8838 32.6152H78.9857C81.1948 32.6152 82.9857 34.4061 82.9857 36.6152V57.8156Z" fill="white"/>
<path d="M84.2225 59.0525C84.194 61.2412 82.4117 63.0006 80.2228 63.0006H44.2912C43.102 63.0006 41.9744 62.4715 41.2145 61.5568L31.4528 49.8074C30.2195 48.323 30.2219 46.1698 31.4584 44.6882L41.274 32.9272C42.034 32.0166 43.1589 31.4902 44.345 31.4902H80.2304C82.4396 31.4902 84.2304 33.2811 84.2304 35.4902V58.4399L84.2225 59.0525ZM42.3399 59.1895C43.0999 60.103 44.2267 60.6314 45.415 60.6314H77.802C80.0111 60.6314 81.802 58.8405 81.802 56.6314V37.8002C81.802 35.5911 80.0111 33.8002 77.802 33.8002H45.4203C44.229 33.8002 43.0996 34.3313 42.3397 35.2488L34.5219 44.6884C33.294 46.171 33.2963 48.3179 34.5274 49.7978L42.3399 59.1895Z" fill="#060F42"/>
<path d="M47.6233 51.4517C49.9458 51.4517 51.8286 49.5689 51.8286 47.2463C51.8286 44.9238 49.9458 43.041 47.6233 43.041C45.3008 43.041 43.418 44.9238 43.418 47.2463C43.418 49.5689 45.3008 51.4517 47.6233 51.4517Z" fill="#01579B"/>
<path d="M47.6243 52.5767C44.6628 52.5767 42.2344 50.1483 42.2344 47.1868C42.2344 44.2253 44.6628 41.7969 47.6243 41.7969C50.5858 41.7969 53.0142 44.2253 53.0142 47.1868C53.0142 50.1483 50.5858 52.5767 47.6243 52.5767ZM47.6243 44.2253C45.9659 44.2253 44.6036 45.5876 44.6036 47.246C44.6036 48.9045 45.9659 50.2668 47.6243 50.2668C49.2827 50.2668 50.645 48.9045 50.645 47.246C50.645 45.5876 49.2827 44.2253 47.6243 44.2253Z" fill="#060F42"/>
<path d="M46.4413 46.0605H26.1846C25.5304 46.0605 25 46.5909 25 47.2451C25 47.8994 25.5304 48.4297 26.1846 48.4297H46.4413C47.0955 48.4297 47.6259 47.8994 47.6259 47.2451C47.6259 46.5909 47.0955 46.0605 46.4413 46.0605Z" fill="#060F42"/>
<path d="M67.527 56.308C72.5319 56.308 76.5892 52.2507 76.5892 47.2458C76.5892 42.2409 72.5319 38.1836 67.527 38.1836C62.5221 38.1836 58.4648 42.2409 58.4648 47.2458C58.4648 52.2507 62.5221 56.308 67.527 56.308Z" fill="#FFCD1B"/>
<path d="M67.5291 39.1309L70.1352 44.4616L75.999 45.2908L71.7345 49.4369L72.7414 55.3006L67.5291 52.5168L62.2576 55.3006L63.2646 49.4369L59 45.2908L64.8638 44.4616L67.5291 39.1309Z" fill="white"/>
<path d="M74.0104 55.439C74.1454 56.2557 73.2864 56.8734 72.5552 56.4855L67.9971 54.0678C67.704 53.9123 67.353 53.9123 67.0599 54.0678L62.5162 56.478C61.7823 56.8672 60.9213 56.2438 61.062 55.4251L61.9312 50.368C61.9869 50.0441 61.8799 49.7136 61.6451 49.4838L57.9649 45.8828C57.3716 45.3023 57.703 44.2934 58.525 44.1778L63.5708 43.4682C63.8977 43.4222 64.1808 43.2179 64.3275 42.9221L66.6325 38.2722C66.9999 37.5311 68.0571 37.5311 68.4245 38.2722L70.7314 42.9258C70.877 43.2196 71.1573 43.4232 71.4816 43.471L76.6096 44.2263C77.4278 44.3468 77.7544 45.352 77.1633 45.9304L73.4683 49.5459C73.235 49.7741 73.1278 50.1018 73.1811 50.4238L74.0104 55.439ZM67.0627 51.4535C67.3544 51.303 67.7014 51.3052 67.9912 51.4594L69.3953 52.2067C70.1299 52.5977 70.9929 51.9726 70.8503 51.1526L70.58 49.5986C70.5237 49.2744 70.6303 48.9433 70.8653 48.713L72.0085 47.5927C72.5998 47.0133 72.2713 46.0075 71.452 45.8888L69.8859 45.6618C69.5596 45.6145 69.2776 45.4095 69.1321 45.1137L68.4258 43.6782C68.0593 42.9336 66.9977 42.9336 66.6312 43.6782L65.9249 45.1137C65.7794 45.4095 65.4974 45.6145 65.1711 45.6618L63.605 45.8888C62.7857 46.0075 62.4573 47.0133 63.0485 47.5927L64.1905 48.7119C64.4262 48.9428 64.5327 49.275 64.4754 49.5999L64.2072 51.12C64.0633 51.9349 64.9152 52.5619 65.6506 52.1824L67.0627 51.4535Z" fill="#060F42"/>
</g>
</g>
<path d="M26.3643 87H24.7383V79.566H22.3683C22.3123 80.654 22.2323 81.596 22.1283 82.392C22.0283 83.184 21.9063 83.86 21.7623 84.42C21.6223 84.976 21.4603 85.428 21.2763 85.776C21.0963 86.124 20.8983 86.396 20.6823 86.592C20.4663 86.784 20.2343 86.916 19.9863 86.988C19.7383 87.056 19.4783 87.09 19.2063 87.09C18.9183 87.09 18.7083 87.064 18.5763 87.012C18.4443 86.96 18.3783 86.884 18.3783 86.784V85.776H18.8403C18.9443 85.776 19.0483 85.764 19.1523 85.74C19.2603 85.716 19.3663 85.666 19.4703 85.59C19.5783 85.51 19.6823 85.396 19.7823 85.248C19.8863 85.1 19.9843 84.902 20.0763 84.654C20.1723 84.402 20.2603 84.094 20.3403 83.73C20.4243 83.366 20.4983 82.928 20.5623 82.416C20.6303 81.904 20.6883 81.312 20.7363 80.64C20.7883 79.964 20.8263 79.192 20.8503 78.324H26.3643V87ZM33.5271 80.844L30.1731 88.692C30.1291 88.796 30.0711 88.874 29.9991 88.926C29.9311 88.982 29.8251 89.01 29.6811 89.01H28.5771L29.7291 86.538L27.2391 80.844H28.5411C28.6571 80.844 28.7471 80.872 28.8111 80.928C28.8791 80.984 28.9291 81.048 28.9611 81.12L30.2691 84.312C30.3131 84.42 30.3491 84.528 30.3771 84.636C30.4091 84.744 30.4391 84.854 30.4671 84.966C30.5031 84.854 30.5391 84.744 30.5751 84.636C30.6111 84.524 30.6511 84.414 30.6951 84.306L31.9311 81.12C31.9631 81.04 32.0151 80.974 32.0871 80.922C32.1631 80.87 32.2471 80.844 32.3391 80.844H33.5271ZM39.1233 80.844V87H37.6413V84.582C37.1133 84.71 36.6233 84.784 36.1713 84.804C35.7193 84.82 35.3273 84.766 34.9953 84.642C34.6673 84.514 34.4093 84.308 34.2213 84.024C34.0373 83.74 33.9453 83.362 33.9453 82.89V80.844H35.4273V82.662C35.4273 82.914 35.4673 83.118 35.5473 83.274C35.6313 83.426 35.7613 83.536 35.9373 83.604C36.1173 83.672 36.3473 83.7 36.6273 83.688C36.9073 83.676 37.2453 83.63 37.6413 83.55V80.844H39.1233ZM49.1054 80.844V87H40.5914V80.844H42.0734V85.902H44.1074V80.844H45.5894V85.902H47.6234V80.844H49.1054ZM53.816 84.372C53.388 84.392 53.028 84.43 52.736 84.486C52.444 84.538 52.21 84.606 52.034 84.69C51.858 84.774 51.732 84.872 51.656 84.984C51.58 85.096 51.542 85.218 51.542 85.35C51.542 85.61 51.618 85.796 51.77 85.908C51.926 86.02 52.128 86.076 52.376 86.076C52.68 86.076 52.942 86.022 53.162 85.914C53.386 85.802 53.604 85.634 53.816 85.41V84.372ZM50.42 81.702C51.128 81.054 51.98 80.73 52.976 80.73C53.336 80.73 53.658 80.79 53.942 80.91C54.226 81.026 54.466 81.19 54.662 81.402C54.858 81.61 55.006 81.86 55.106 82.152C55.21 82.444 55.262 82.764 55.262 83.112V87H54.59C54.45 87 54.342 86.98 54.266 86.94C54.19 86.896 54.13 86.81 54.086 86.682L53.954 86.238C53.798 86.378 53.646 86.502 53.498 86.61C53.35 86.714 53.196 86.802 53.036 86.874C52.876 86.946 52.704 87 52.52 87.036C52.34 87.076 52.14 87.096 51.92 87.096C51.66 87.096 51.42 87.062 51.2 86.994C50.98 86.922 50.79 86.816 50.63 86.676C50.47 86.536 50.346 86.362 50.258 86.154C50.17 85.946 50.126 85.704 50.126 85.428C50.126 85.272 50.152 85.118 50.204 84.966C50.256 84.81 50.34 84.662 50.456 84.522C50.576 84.382 50.73 84.25 50.918 84.126C51.106 84.002 51.336 83.894 51.608 83.802C51.884 83.71 52.204 83.636 52.568 83.58C52.932 83.52 53.348 83.484 53.816 83.472V83.112C53.816 82.7 53.728 82.396 53.552 82.2C53.376 82 53.122 81.9 52.79 81.9C52.55 81.9 52.35 81.928 52.19 81.984C52.034 82.04 51.896 82.104 51.776 82.176C51.656 82.244 51.546 82.306 51.446 82.362C51.35 82.418 51.242 82.446 51.122 82.446C51.018 82.446 50.93 82.42 50.858 82.368C50.786 82.312 50.728 82.248 50.684 82.176L50.42 81.702ZM59.8678 83.616V81.81H59.0638C58.8758 81.81 58.7198 81.838 58.5958 81.894C58.4718 81.946 58.3698 82.016 58.2898 82.104C58.2138 82.188 58.1598 82.284 58.1278 82.392C58.0958 82.5 58.0798 82.606 58.0798 82.71C58.0798 82.994 58.1738 83.216 58.3618 83.376C58.5538 83.536 58.8098 83.616 59.1298 83.616H59.8678ZM61.2778 80.844V87H59.8678V84.528H59.6098C59.4898 84.528 59.3898 84.54 59.3098 84.564C59.2338 84.584 59.1678 84.614 59.1118 84.654C59.0598 84.69 59.0138 84.736 58.9738 84.792C58.9378 84.848 58.8998 84.91 58.8598 84.978L57.8758 86.49C57.8278 86.574 57.7758 86.648 57.7198 86.712C57.6678 86.776 57.6058 86.83 57.5338 86.874C57.4658 86.914 57.3838 86.946 57.2878 86.97C57.1958 86.99 57.0838 87 56.9518 87H55.9258L57.4798 84.828C57.5638 84.676 57.6618 84.554 57.7738 84.462C57.8858 84.37 58.0178 84.296 58.1698 84.24C57.8818 84.188 57.6358 84.108 57.4318 84C57.2318 83.888 57.0698 83.76 56.9458 83.616C56.8218 83.468 56.7318 83.31 56.6758 83.142C56.6198 82.974 56.5918 82.808 56.5918 82.644C56.5918 82.416 56.6358 82.194 56.7238 81.978C56.8158 81.762 56.9598 81.57 57.1558 81.402C57.3518 81.234 57.6038 81.1 57.9118 81C58.2198 80.896 58.5898 80.844 59.0218 80.844H61.2778ZM72.1675 85.902V88.62C72.1675 88.756 72.1275 88.864 72.0475 88.944C71.9675 89.024 71.8655 89.064 71.7415 89.064H70.8175V87H65.6695V80.844H67.1515V85.902H69.5515V80.844H71.0335V85.902H72.1675ZM76.9597 83.214C76.9597 83.022 76.9317 82.842 76.8757 82.674C76.8237 82.502 76.7437 82.352 76.6357 82.224C76.5277 82.096 76.3897 81.996 76.2217 81.924C76.0577 81.848 75.8657 81.81 75.6457 81.81C75.2177 81.81 74.8797 81.932 74.6317 82.176C74.3877 82.42 74.2317 82.766 74.1637 83.214H76.9597ZM74.1337 84.108C74.1577 84.424 74.2137 84.698 74.3017 84.93C74.3897 85.158 74.5057 85.348 74.6497 85.5C74.7937 85.648 74.9637 85.76 75.1597 85.836C75.3597 85.908 75.5797 85.944 75.8197 85.944C76.0597 85.944 76.2657 85.916 76.4377 85.86C76.6137 85.804 76.7657 85.742 76.8937 85.674C77.0257 85.606 77.1397 85.544 77.2357 85.488C77.3357 85.432 77.4317 85.404 77.5237 85.404C77.6477 85.404 77.7397 85.45 77.7997 85.542L78.2257 86.082C78.0617 86.274 77.8777 86.436 77.6737 86.568C77.4697 86.696 77.2557 86.8 77.0317 86.88C76.8117 86.956 76.5857 87.01 76.3537 87.042C76.1257 87.074 75.9037 87.09 75.6877 87.09C75.2597 87.09 74.8617 87.02 74.4937 86.88C74.1257 86.736 73.8057 86.526 73.5337 86.25C73.2617 85.97 73.0477 85.626 72.8917 85.218C72.7357 84.806 72.6577 84.33 72.6577 83.79C72.6577 83.37 72.7257 82.976 72.8617 82.608C72.9977 82.236 73.1917 81.914 73.4437 81.642C73.6997 81.366 74.0097 81.148 74.3737 80.988C74.7417 80.828 75.1557 80.748 75.6157 80.748C76.0037 80.748 76.3617 80.81 76.6897 80.934C77.0177 81.058 77.2997 81.24 77.5357 81.48C77.7717 81.716 77.9557 82.008 78.0877 82.356C78.2237 82.7 78.2917 83.094 78.2917 83.538C78.2917 83.762 78.2677 83.914 78.2197 83.994C78.1717 84.07 78.0797 84.108 77.9437 84.108H74.1337ZM84.7679 80.844V87H83.2859V84.276H80.8859V87H79.4039V80.844H80.8859V83.178H83.2859V80.844H84.7679ZM89.4879 84.372C89.0599 84.392 88.6999 84.43 88.4079 84.486C88.1159 84.538 87.8819 84.606 87.7059 84.69C87.5299 84.774 87.4039 84.872 87.3279 84.984C87.2519 85.096 87.2139 85.218 87.2139 85.35C87.2139 85.61 87.2899 85.796 87.4419 85.908C87.5979 86.02 87.7999 86.076 88.0479 86.076C88.3519 86.076 88.6139 86.022 88.8339 85.914C89.0579 85.802 89.2759 85.634 89.4879 85.41V84.372ZM86.0919 81.702C86.7999 81.054 87.6519 80.73 88.6479 80.73C89.0079 80.73 89.3299 80.79 89.6139 80.91C89.8979 81.026 90.1379 81.19 90.3339 81.402C90.5299 81.61 90.6779 81.86 90.7779 82.152C90.8819 82.444 90.9339 82.764 90.9339 83.112V87H90.2619C90.1219 87 90.0139 86.98 89.9379 86.94C89.8619 86.896 89.8019 86.81 89.7579 86.682L89.6259 86.238C89.4699 86.378 89.3179 86.502 89.1699 86.61C89.0219 86.714 88.8679 86.802 88.7079 86.874C88.5479 86.946 88.3759 87 88.1919 87.036C88.0119 87.076 87.8119 87.096 87.5919 87.096C87.3319 87.096 87.0919 87.062 86.8719 86.994C86.6519 86.922 86.4619 86.816 86.3019 86.676C86.1419 86.536 86.0179 86.362 85.9299 86.154C85.8419 85.946 85.7979 85.704 85.7979 85.428C85.7979 85.272 85.8239 85.118 85.8759 84.966C85.9279 84.81 86.0119 84.662 86.1279 84.522C86.2479 84.382 86.4019 84.25 86.5899 84.126C86.7779 84.002 87.0079 83.894 87.2799 83.802C87.5559 83.71 87.8759 83.636 88.2399 83.58C88.6039 83.52 89.0199 83.484 89.4879 83.472V83.112C89.4879 82.7 89.3999 82.396 89.2239 82.2C89.0479 82 88.7939 81.9 88.4619 81.9C88.2219 81.9 88.0219 81.928 87.8619 81.984C87.7059 82.04 87.5679 82.104 87.4479 82.176C87.3279 82.244 87.2179 82.306 87.1179 82.362C87.0219 82.418 86.9139 82.446 86.7939 82.446C86.6899 82.446 86.6019 82.42 86.5299 82.368C86.4579 82.312 86.3999 82.248 86.3559 82.176L86.0919 81.702Z" fill="#060F42"/>
<defs>
<clipPath id="clip0_6924_6539">
<rect width="60" height="44.2448" fill="white" transform="translate(25 18.7559)"/>
</clipPath>
<clipPath id="clip1_6924_6539">
<rect width="60" height="44.2448" fill="white" transform="translate(25 18.7559)"/>
</clipPath>
</defs>
</svg>
