<svg width="110" height="110" viewBox="0 0 110 110" fill="none" xmlns="http://www.w3.org/2000/svg">
<g clip-path="url(#clip0_6924_6504)">
<path d="M77.3139 28.0605C78.7569 28.0605 79.9326 29.221 79.9326 30.6452V56.9133C79.9326 58.3375 78.7569 59.4979 77.3139 59.4979H32.689C31.2461 59.4452 30.0703 58.2847 30.0703 56.8605V30.6452C30.0703 29.221 31.2461 28.0605 32.689 28.0605H46.6376" fill="white"/>
<path d="M77.3124 60.5004H32.6876C30.6567 60.5004 29 58.8652 29 56.8608V30.6454C29 28.641 30.6567 27.0059 32.6876 27.0059H46.6362V29.1157H32.6876C31.8325 29.1157 31.1377 29.8015 31.1377 30.6454V56.9136C31.1377 57.7048 31.8325 58.3905 32.6876 58.3905H77.3124C78.1675 58.3905 78.8623 57.7048 78.8623 56.8608V30.6454C78.8623 29.8015 78.1675 29.1157 77.3124 29.1157V27.0059C79.3433 27.0059 81 28.641 81 30.6454V56.9136C81 58.8652 79.3433 60.5004 77.3124 60.5004Z" fill="#060F42"/>
<path d="M41.3049 44.5176H34.5432C33.9606 44.5176 33.4883 44.9899 33.4883 45.5725C33.4883 46.1552 33.9606 46.6275 34.5432 46.6275H41.3049C41.8875 46.6275 42.3598 46.1552 42.3598 45.5725C42.3598 44.9899 41.8875 44.5176 41.3049 44.5176Z" fill="#060F42"/>
<path d="M51.3521 50.373H34.5432C33.9606 50.373 33.4883 50.8454 33.4883 51.428C33.4883 52.0106 33.9606 52.4829 34.5432 52.4829H51.3521C51.9348 52.4829 52.4071 52.0106 52.4071 51.428C52.4071 50.8454 51.9348 50.373 51.3521 50.373Z" fill="#060F42"/>
<path d="M52.4221 44.5176H45.6604C45.0778 44.5176 44.6055 44.9899 44.6055 45.5725C44.6055 46.1552 45.0778 46.6275 45.6604 46.6275H52.4221C53.0047 46.6275 53.477 46.1552 53.477 45.5725C53.477 44.9899 53.0047 44.5176 52.4221 44.5176Z" fill="#060F42"/>
<path d="M63.4846 44.5176H56.7229C56.1403 44.5176 55.668 44.9899 55.668 45.5725C55.668 46.1552 56.1403 46.6275 56.7229 46.6275H63.4846C64.0672 46.6275 64.5395 46.1552 64.5395 45.5725C64.5395 44.9899 64.0672 44.5176 63.4846 44.5176Z" fill="#060F42"/>
<path d="M74.6017 44.5176H67.8401C67.2575 44.5176 66.7852 44.9899 66.7852 45.5725C66.7852 46.1552 67.2575 46.6275 67.8401 46.6275H74.6017C75.1844 46.6275 75.6567 46.1552 75.6567 45.5725C75.6567 44.9899 75.1844 44.5176 74.6017 44.5176Z" fill="#060F42"/>
<path d="M40.3073 34.6016H35.8633C34.7587 34.6016 33.8633 35.497 33.8633 36.6016V38.4038C33.8633 39.5083 34.7587 40.4038 35.8633 40.4038H40.3073C41.4118 40.4038 42.3073 39.5083 42.3073 38.4038V36.6016C42.3073 35.497 41.4118 34.6016 40.3073 34.6016Z" fill="#FFCD1B"/>
<path d="M69.3518 17.2996C66.359 16.7722 63.7938 15.5062 62.1905 13.9766C60.5872 15.5062 58.0219 16.7722 55.0291 17.2996C53.1586 17.6689 51.3416 17.6689 49.7383 17.4051V27.5326C49.7383 35.3392 55.0291 38.715 62.1905 40.8249C69.4053 38.7678 74.6427 35.3392 74.6427 27.5326V17.4579C73.0929 17.6689 71.2223 17.6689 69.3518 17.2996Z" fill="white"/>
<path d="M62.189 41.933L61.8684 41.8275C55.7224 40.0868 48.668 36.8692 48.668 27.5857V16.1923L49.8972 16.4033C51.447 16.6143 53.1572 16.6143 54.8674 16.2978C57.5395 15.8231 59.9444 14.6626 61.4943 13.2385L62.189 12.5L62.9372 13.2385C64.4336 14.7154 66.8386 15.8231 69.5642 16.2978C71.2743 16.6143 72.9845 16.667 74.5344 16.4033L75.7635 16.1923V27.5857C75.7635 36.8692 68.7091 40.0868 62.5097 41.8802L62.189 41.933ZM50.8057 18.6187V27.5857C50.8057 33.7571 54.226 37.3967 62.189 39.7703C70.152 37.3967 73.5724 33.7571 73.5724 27.5857V18.6187C72.1294 18.7242 70.633 18.6187 69.1366 18.3549C66.411 17.8802 63.9527 16.7725 62.189 15.4011C60.4254 16.8253 57.9136 17.8802 55.2415 18.3549C53.745 18.6187 52.2486 18.7242 50.8057 18.6187Z" fill="#060F42"/>
<path d="M62.187 37.5556C55.5601 35.4984 52.9414 32.6501 52.9414 27.5863V20.7292C53.8499 20.6765 54.7585 20.571 55.6136 20.4127C58.0719 19.938 60.3165 19.094 62.187 17.9336C64.0575 19.094 66.3021 19.938 68.7605 20.4127C69.6691 20.571 70.5776 20.6765 71.4327 20.7292V27.5336C71.4861 32.5973 68.8674 35.4457 62.187 37.5556Z" fill="#01579B"/>
<path d="M62.1873 32.8603C65.434 32.8603 68.066 30.2625 68.066 27.0581C68.066 23.8536 65.434 21.2559 62.1873 21.2559C58.9406 21.2559 56.3086 23.8536 56.3086 27.0581C56.3086 30.2625 58.9406 32.8603 62.1873 32.8603Z" fill="white"/>
<path d="M64.6994 24.8945L61.7066 28.6396L59.6758 27.3737" fill="white"/>
<path d="M63.0425 28.6432C62.4019 29.4243 61.2793 29.605 60.4259 29.0644L59.2264 28.3046C58.736 27.9939 58.5886 27.3455 58.8966 26.8534C59.208 26.3558 59.8656 26.2079 60.36 26.5245L60.5122 26.6219C61.0406 26.9602 61.7386 26.8482 62.1347 26.3617L63.182 25.0754C63.5507 24.6226 64.213 24.5459 64.6754 24.9024C65.1566 25.2735 65.2359 25.969 64.8505 26.4389L63.0425 28.6432Z" fill="#060F42"/>
</g>
<path d="M25.2752 82.662C25.2752 83.298 25.1692 83.888 24.9572 84.432C24.7492 84.972 24.4532 85.44 24.0692 85.836C23.6852 86.232 23.2232 86.542 22.6832 86.766C22.1432 86.986 21.5432 87.096 20.8832 87.096C20.2272 87.096 19.6292 86.986 19.0892 86.766C18.5492 86.542 18.0852 86.232 17.6972 85.836C17.3132 85.44 17.0152 84.972 16.8032 84.432C16.5912 83.888 16.4852 83.298 16.4852 82.662C16.4852 82.026 16.5912 81.438 16.8032 80.898C17.0152 80.354 17.3132 79.884 17.6972 79.488C18.0852 79.092 18.5492 78.784 19.0892 78.564C19.6292 78.34 20.2272 78.228 20.8832 78.228C21.3232 78.228 21.7372 78.28 22.1252 78.384C22.5132 78.484 22.8692 78.628 23.1932 78.816C23.5172 79 23.8072 79.226 24.0632 79.494C24.3232 79.758 24.5432 80.054 24.7232 80.382C24.9032 80.71 25.0392 81.066 25.1312 81.45C25.2272 81.834 25.2752 82.238 25.2752 82.662ZM23.6252 82.662C23.6252 82.186 23.5612 81.76 23.4332 81.384C23.3052 81.004 23.1232 80.682 22.8872 80.418C22.6512 80.154 22.3632 79.952 22.0232 79.812C21.6872 79.672 21.3072 79.602 20.8832 79.602C20.4592 79.602 20.0772 79.672 19.7372 79.812C19.4012 79.952 19.1132 80.154 18.8732 80.418C18.6372 80.682 18.4552 81.004 18.3272 81.384C18.1992 81.76 18.1352 82.186 18.1352 82.662C18.1352 83.138 18.1992 83.566 18.3272 83.946C18.4552 84.322 18.6372 84.642 18.8732 84.906C19.1132 85.166 19.4012 85.366 19.7372 85.506C20.0772 85.646 20.4592 85.716 20.8832 85.716C21.3072 85.716 21.6872 85.646 22.0232 85.506C22.3632 85.366 22.6512 85.166 22.8872 84.906C23.1232 84.642 23.3052 84.322 23.4332 83.946C23.5612 83.566 23.6252 83.138 23.6252 82.662ZM30.6903 85.986C31.2863 85.942 31.7463 85.742 32.0703 85.386C32.3983 85.03 32.5623 84.542 32.5623 83.922C32.5623 83.302 32.3983 82.814 32.0703 82.458C31.7463 82.098 31.2863 81.896 30.6903 81.852V85.986ZM29.3943 81.852C29.0983 81.876 28.8343 81.94 28.6023 82.044C28.3743 82.144 28.1783 82.282 28.0143 82.458C27.8543 82.634 27.7323 82.846 27.6483 83.094C27.5643 83.338 27.5223 83.614 27.5223 83.922C27.5223 84.23 27.5643 84.508 27.6483 84.756C27.7323 85 27.8543 85.21 28.0143 85.386C28.1783 85.558 28.3743 85.696 28.6023 85.8C28.8343 85.9 29.0983 85.962 29.3943 85.986V81.852ZM30.7383 80.754C31.2303 80.782 31.6783 80.876 32.0823 81.036C32.4903 81.192 32.8383 81.406 33.1263 81.678C33.4183 81.95 33.6443 82.274 33.8043 82.65C33.9643 83.026 34.0443 83.446 34.0443 83.91C34.0443 84.378 33.9643 84.802 33.8043 85.182C33.6443 85.558 33.4183 85.882 33.1263 86.154C32.8383 86.426 32.4903 86.642 32.0823 86.802C31.6783 86.962 31.2303 87.056 30.7383 87.084V89.064H29.3463V87.084C28.8543 87.056 28.4043 86.962 27.9963 86.802C27.5923 86.642 27.2443 86.426 26.9523 86.154C26.6643 85.882 26.4403 85.558 26.2803 85.182C26.1203 84.802 26.0403 84.378 26.0403 83.91C26.0403 83.446 26.1203 83.026 26.2803 82.65C26.4403 82.274 26.6643 81.95 26.9523 81.678C27.2443 81.406 27.5923 81.192 27.9963 81.036C28.4043 80.876 28.8543 80.782 29.3463 80.754V78.324H30.7383V80.754ZM40.6976 80.844V87H39.2156V83.406C39.2156 83.314 39.2196 83.214 39.2276 83.106C39.2396 82.994 39.2536 82.882 39.2696 82.77C39.1896 82.954 39.1016 83.116 39.0056 83.256C38.9976 83.264 38.9576 83.32 38.8856 83.424C38.8136 83.524 38.7196 83.654 38.6036 83.814C38.4916 83.974 38.3636 84.156 38.2196 84.36C38.0756 84.56 37.9296 84.764 37.7816 84.972C37.4336 85.464 37.0396 86.02 36.5996 86.64C36.5436 86.724 36.4696 86.806 36.3776 86.886C36.2896 86.966 36.1876 87.006 36.0716 87.006H35.1656V80.85H36.6476V84.444C36.6476 84.536 36.6416 84.638 36.6296 84.75C36.6216 84.858 36.6096 84.968 36.5936 85.08C36.6816 84.884 36.7696 84.722 36.8576 84.594C36.8616 84.586 36.8996 84.532 36.9716 84.432C37.0436 84.332 37.1356 84.202 37.2476 84.042C37.3636 83.882 37.4936 83.702 37.6376 83.502C37.7816 83.298 37.9276 83.09 38.0756 82.878C38.4236 82.386 38.8196 81.83 39.2636 81.21C39.3196 81.122 39.3936 81.04 39.4856 80.964C39.5776 80.884 39.6816 80.844 39.7976 80.844H40.6976ZM48.6597 85.902V88.62C48.6597 88.756 48.6197 88.864 48.5397 88.944C48.4597 89.024 48.3577 89.064 48.2337 89.064H47.3097V87H42.1617V80.844H43.6437V85.902H46.0437V80.844H47.5257V85.902H48.6597ZM55.1234 80.844V87H53.6414V83.406C53.6414 83.314 53.6454 83.214 53.6534 83.106C53.6654 82.994 53.6794 82.882 53.6954 82.77C53.6154 82.954 53.5274 83.116 53.4314 83.256C53.4234 83.264 53.3834 83.32 53.3114 83.424C53.2394 83.524 53.1454 83.654 53.0294 83.814C52.9174 83.974 52.7894 84.156 52.6454 84.36C52.5014 84.56 52.3554 84.764 52.2074 84.972C51.8594 85.464 51.4654 86.02 51.0254 86.64C50.9694 86.724 50.8954 86.806 50.8034 86.886C50.7154 86.966 50.6134 87.006 50.4974 87.006H49.5914V80.85H51.0734V84.444C51.0734 84.536 51.0674 84.638 51.0554 84.75C51.0474 84.858 51.0354 84.968 51.0194 85.08C51.1074 84.884 51.1954 84.722 51.2834 84.594C51.2874 84.586 51.3254 84.532 51.3974 84.432C51.4694 84.332 51.5614 84.202 51.6734 84.042C51.7894 83.882 51.9194 83.702 52.0634 83.502C52.2074 83.298 52.3534 83.09 52.5014 82.878C52.8494 82.386 53.2454 81.83 53.6894 81.21C53.7454 81.122 53.8194 81.04 53.9114 80.964C54.0034 80.884 54.1074 80.844 54.2234 80.844H55.1234ZM59.8395 84.372C59.4115 84.392 59.0515 84.43 58.7595 84.486C58.4675 84.538 58.2335 84.606 58.0575 84.69C57.8815 84.774 57.7555 84.872 57.6795 84.984C57.6035 85.096 57.5655 85.218 57.5655 85.35C57.5655 85.61 57.6415 85.796 57.7935 85.908C57.9495 86.02 58.1515 86.076 58.3995 86.076C58.7035 86.076 58.9655 86.022 59.1855 85.914C59.4095 85.802 59.6275 85.634 59.8395 85.41V84.372ZM56.4435 81.702C57.1515 81.054 58.0035 80.73 58.9995 80.73C59.3595 80.73 59.6815 80.79 59.9655 80.91C60.2495 81.026 60.4895 81.19 60.6855 81.402C60.8815 81.61 61.0295 81.86 61.1295 82.152C61.2335 82.444 61.2855 82.764 61.2855 83.112V87H60.6135C60.4735 87 60.3655 86.98 60.2895 86.94C60.2135 86.896 60.1535 86.81 60.1095 86.682L59.9775 86.238C59.8215 86.378 59.6695 86.502 59.5215 86.61C59.3735 86.714 59.2195 86.802 59.0595 86.874C58.8995 86.946 58.7275 87 58.5435 87.036C58.3635 87.076 58.1635 87.096 57.9435 87.096C57.6835 87.096 57.4435 87.062 57.2235 86.994C57.0035 86.922 56.8135 86.816 56.6535 86.676C56.4935 86.536 56.3695 86.362 56.2815 86.154C56.1935 85.946 56.1495 85.704 56.1495 85.428C56.1495 85.272 56.1755 85.118 56.2275 84.966C56.2795 84.81 56.3635 84.662 56.4795 84.522C56.5995 84.382 56.7535 84.25 56.9415 84.126C57.1295 84.002 57.3595 83.894 57.6315 83.802C57.9075 83.71 58.2275 83.636 58.5915 83.58C58.9555 83.52 59.3715 83.484 59.8395 83.472V83.112C59.8395 82.7 59.7515 82.396 59.5755 82.2C59.3995 82 59.1455 81.9 58.8135 81.9C58.5735 81.9 58.3735 81.928 58.2135 81.984C58.0575 82.04 57.9195 82.104 57.7995 82.176C57.6795 82.244 57.5695 82.306 57.4695 82.362C57.3735 82.418 57.2655 82.446 57.1455 82.446C57.0415 82.446 56.9535 82.42 56.8815 82.368C56.8095 82.312 56.7515 82.248 56.7075 82.176L56.4435 81.702ZM68.3932 87H66.9112V81.978H65.3992C65.3512 82.734 65.2772 83.386 65.1772 83.934C65.0772 84.478 64.9572 84.94 64.8172 85.32C64.6812 85.7 64.5272 86.006 64.3552 86.238C64.1872 86.466 64.0072 86.644 63.8152 86.772C63.6232 86.9 63.4252 86.984 63.2212 87.024C63.0172 87.068 62.8112 87.09 62.6032 87.09C62.3832 87.09 62.2212 87.07 62.1172 87.03C62.0172 86.994 61.9672 86.942 61.9672 86.874V85.95H62.3212C62.4532 85.95 62.5852 85.93 62.7172 85.89C62.8492 85.85 62.9772 85.768 63.1012 85.644C63.2252 85.52 63.3432 85.344 63.4552 85.116C63.5672 84.884 63.6692 84.58 63.7612 84.204C63.8572 83.824 63.9412 83.36 64.0132 82.812C64.0852 82.264 64.1412 81.608 64.1812 80.844H68.3932V87ZM72.3671 85.938C72.7031 85.938 72.9531 85.854 73.1171 85.686C73.2851 85.518 73.3691 85.302 73.3691 85.038C73.3691 84.926 73.3491 84.818 73.3091 84.714C73.2731 84.61 73.2151 84.518 73.1351 84.438C73.0551 84.358 72.9511 84.296 72.8231 84.252C72.6951 84.204 72.5411 84.18 72.3611 84.18H71.2631V85.938H72.3671ZM72.3551 83.124C72.7831 83.124 73.1451 83.176 73.4411 83.28C73.7371 83.384 73.9771 83.524 74.1611 83.7C74.3451 83.876 74.4771 84.08 74.5571 84.312C74.6411 84.54 74.6831 84.78 74.6831 85.032C74.6831 85.32 74.6311 85.586 74.5271 85.83C74.4271 86.07 74.2771 86.278 74.0771 86.454C73.8811 86.626 73.6391 86.76 73.3511 86.856C73.0671 86.952 72.7411 87 72.3731 87H69.8531V80.844H71.2631V83.124H72.3551ZM81.0413 80.844V87H79.5593V84.276H77.1593V87H75.6773V80.844H77.1593V83.178H79.5593V80.844H81.0413ZM85.7613 84.372C85.3333 84.392 84.9733 84.43 84.6813 84.486C84.3893 84.538 84.1553 84.606 83.9793 84.69C83.8033 84.774 83.6773 84.872 83.6013 84.984C83.5253 85.096 83.4873 85.218 83.4873 85.35C83.4873 85.61 83.5633 85.796 83.7153 85.908C83.8713 86.02 84.0733 86.076 84.3213 86.076C84.6253 86.076 84.8873 86.022 85.1073 85.914C85.3313 85.802 85.5493 85.634 85.7613 85.41V84.372ZM82.3653 81.702C83.0733 81.054 83.9253 80.73 84.9213 80.73C85.2813 80.73 85.6033 80.79 85.8873 80.91C86.1713 81.026 86.4113 81.19 86.6073 81.402C86.8033 81.61 86.9513 81.86 87.0513 82.152C87.1553 82.444 87.2073 82.764 87.2073 83.112V87H86.5353C86.3953 87 86.2873 86.98 86.2113 86.94C86.1353 86.896 86.0753 86.81 86.0313 86.682L85.8993 86.238C85.7433 86.378 85.5913 86.502 85.4433 86.61C85.2953 86.714 85.1413 86.802 84.9813 86.874C84.8213 86.946 84.6493 87 84.4653 87.036C84.2853 87.076 84.0853 87.096 83.8653 87.096C83.6053 87.096 83.3653 87.062 83.1453 86.994C82.9253 86.922 82.7353 86.816 82.5753 86.676C82.4153 86.536 82.2913 86.362 82.2033 86.154C82.1153 85.946 82.0713 85.704 82.0713 85.428C82.0713 85.272 82.0973 85.118 82.1493 84.966C82.2013 84.81 82.2853 84.662 82.4013 84.522C82.5213 84.382 82.6753 84.25 82.8633 84.126C83.0513 84.002 83.2813 83.894 83.5533 83.802C83.8293 83.71 84.1493 83.636 84.5133 83.58C84.8773 83.52 85.2933 83.484 85.7613 83.472V83.112C85.7613 82.7 85.6733 82.396 85.4973 82.2C85.3213 82 85.0673 81.9 84.7353 81.9C84.4953 81.9 84.2953 81.928 84.1353 81.984C83.9793 82.04 83.8413 82.104 83.7213 82.176C83.6013 82.244 83.4913 82.306 83.3913 82.362C83.2953 82.418 83.1873 82.446 83.0673 82.446C82.9633 82.446 82.8753 82.42 82.8033 82.368C82.7313 82.312 82.6733 82.248 82.6293 82.176L82.3653 81.702ZM91.8131 83.616V81.81H91.0091C90.8211 81.81 90.6651 81.838 90.5411 81.894C90.4171 81.946 90.3151 82.016 90.2351 82.104C90.1591 82.188 90.1051 82.284 90.0731 82.392C90.0411 82.5 90.0251 82.606 90.0251 82.71C90.0251 82.994 90.1191 83.216 90.3071 83.376C90.4991 83.536 90.7551 83.616 91.0751 83.616H91.8131ZM93.2231 80.844V87H91.8131V84.528H91.5551C91.4351 84.528 91.3351 84.54 91.2551 84.564C91.1791 84.584 91.1131 84.614 91.0571 84.654C91.0051 84.69 90.9591 84.736 90.9191 84.792C90.8831 84.848 90.8451 84.91 90.8051 84.978L89.8211 86.49C89.7731 86.574 89.7211 86.648 89.6651 86.712C89.6131 86.776 89.5511 86.83 89.4791 86.874C89.4111 86.914 89.3291 86.946 89.2331 86.97C89.1411 86.99 89.0291 87 88.8971 87H87.8711L89.4251 84.828C89.5091 84.676 89.6071 84.554 89.7191 84.462C89.8311 84.37 89.9631 84.296 90.1151 84.24C89.8271 84.188 89.5811 84.108 89.3771 84C89.1771 83.888 89.0151 83.76 88.8911 83.616C88.7671 83.468 88.6771 83.31 88.6211 83.142C88.5651 82.974 88.5371 82.808 88.5371 82.644C88.5371 82.416 88.5811 82.194 88.6691 81.978C88.7611 81.762 88.9051 81.57 89.1011 81.402C89.2971 81.234 89.5491 81.1 89.8571 81C90.1651 80.896 90.5351 80.844 90.9671 80.844H93.2231ZM34.859 93.942H32.171V99H30.689V92.844H34.859V93.942ZM38.9567 96.372C38.5287 96.392 38.1687 96.43 37.8767 96.486C37.5847 96.538 37.3507 96.606 37.1747 96.69C36.9987 96.774 36.8727 96.872 36.7967 96.984C36.7207 97.096 36.6827 97.218 36.6827 97.35C36.6827 97.61 36.7587 97.796 36.9107 97.908C37.0667 98.02 37.2687 98.076 37.5167 98.076C37.8207 98.076 38.0827 98.022 38.3027 97.914C38.5267 97.802 38.7447 97.634 38.9567 97.41V96.372ZM35.5607 93.702C36.2687 93.054 37.1207 92.73 38.1167 92.73C38.4767 92.73 38.7987 92.79 39.0827 92.91C39.3667 93.026 39.6067 93.19 39.8027 93.402C39.9987 93.61 40.1467 93.86 40.2467 94.152C40.3507 94.444 40.4027 94.764 40.4027 95.112V99H39.7307C39.5907 99 39.4827 98.98 39.4067 98.94C39.3307 98.896 39.2707 98.81 39.2267 98.682L39.0947 98.238C38.9387 98.378 38.7867 98.502 38.6387 98.61C38.4907 98.714 38.3367 98.802 38.1767 98.874C38.0167 98.946 37.8447 99 37.6607 99.036C37.4807 99.076 37.2807 99.096 37.0607 99.096C36.8007 99.096 36.5607 99.062 36.3407 98.994C36.1207 98.922 35.9307 98.816 35.7707 98.676C35.6107 98.536 35.4867 98.362 35.3987 98.154C35.3107 97.946 35.2667 97.704 35.2667 97.428C35.2667 97.272 35.2927 97.118 35.3447 96.966C35.3967 96.81 35.4807 96.662 35.5967 96.522C35.7167 96.382 35.8707 96.25 36.0587 96.126C36.2467 96.002 36.4767 95.894 36.7487 95.802C37.0247 95.71 37.3447 95.636 37.7087 95.58C38.0727 95.52 38.4887 95.484 38.9567 95.472V95.112C38.9567 94.7 38.8687 94.396 38.6927 94.2C38.5167 94 38.2627 93.9 37.9307 93.9C37.6907 93.9 37.4907 93.928 37.3307 93.984C37.1747 94.04 37.0367 94.104 36.9167 94.176C36.7967 94.244 36.6867 94.306 36.5867 94.362C36.4907 94.418 36.3827 94.446 36.2627 94.446C36.1587 94.446 36.0707 94.42 35.9987 94.368C35.9267 94.312 35.8687 94.248 35.8247 94.176L35.5607 93.702ZM43.2804 97.404C43.4484 97.608 43.6304 97.752 43.8264 97.836C44.0264 97.92 44.2424 97.962 44.4744 97.962C44.6984 97.962 44.9004 97.92 45.0804 97.836C45.2604 97.752 45.4124 97.624 45.5364 97.452C45.6644 97.28 45.7624 97.064 45.8304 96.804C45.8984 96.54 45.9324 96.23 45.9324 95.874C45.9324 95.514 45.9024 95.21 45.8424 94.962C45.7864 94.71 45.7044 94.506 45.5964 94.35C45.4884 94.194 45.3564 94.08 45.2004 94.008C45.0484 93.936 44.8744 93.9 44.6784 93.9C44.3704 93.9 44.1084 93.966 43.8924 94.098C43.6764 94.226 43.4724 94.408 43.2804 94.644V97.404ZM43.2024 93.684C43.4544 93.4 43.7404 93.17 44.0604 92.994C44.3804 92.818 44.7564 92.73 45.1884 92.73C45.5244 92.73 45.8304 92.8 46.1064 92.94C46.3864 93.08 46.6264 93.284 46.8264 93.552C47.0304 93.816 47.1864 94.144 47.2944 94.536C47.4064 94.924 47.4624 95.37 47.4624 95.874C47.4624 96.334 47.4004 96.76 47.2764 97.152C47.1524 97.544 46.9744 97.884 46.7424 98.172C46.5144 98.46 46.2364 98.686 45.9084 98.85C45.5844 99.01 45.2204 99.09 44.8164 99.09C44.4724 99.09 44.1784 99.038 43.9344 98.934C43.6904 98.826 43.4724 98.678 43.2804 98.49V101.01H41.7984V92.844H42.7044C42.8964 92.844 43.0224 92.934 43.0824 93.114L43.2024 93.684ZM51.859 96.372C51.431 96.392 51.071 96.43 50.779 96.486C50.487 96.538 50.253 96.606 50.077 96.69C49.901 96.774 49.775 96.872 49.699 96.984C49.623 97.096 49.585 97.218 49.585 97.35C49.585 97.61 49.661 97.796 49.813 97.908C49.969 98.02 50.171 98.076 50.419 98.076C50.723 98.076 50.985 98.022 51.205 97.914C51.429 97.802 51.647 97.634 51.859 97.41V96.372ZM48.463 93.702C49.171 93.054 50.023 92.73 51.019 92.73C51.379 92.73 51.701 92.79 51.985 92.91C52.269 93.026 52.509 93.19 52.705 93.402C52.901 93.61 53.049 93.86 53.149 94.152C53.253 94.444 53.305 94.764 53.305 95.112V99H52.633C52.493 99 52.385 98.98 52.309 98.94C52.233 98.896 52.173 98.81 52.129 98.682L51.997 98.238C51.841 98.378 51.689 98.502 51.541 98.61C51.393 98.714 51.239 98.802 51.079 98.874C50.919 98.946 50.747 99 50.563 99.036C50.383 99.076 50.183 99.096 49.963 99.096C49.703 99.096 49.463 99.062 49.243 98.994C49.023 98.922 48.833 98.816 48.673 98.676C48.513 98.536 48.389 98.362 48.301 98.154C48.213 97.946 48.169 97.704 48.169 97.428C48.169 97.272 48.195 97.118 48.247 96.966C48.299 96.81 48.383 96.662 48.499 96.522C48.619 96.382 48.773 96.25 48.961 96.126C49.149 96.002 49.379 95.894 49.651 95.802C49.927 95.71 50.247 95.636 50.611 95.58C50.975 95.52 51.391 95.484 51.859 95.472V95.112C51.859 94.7 51.771 94.396 51.595 94.2C51.419 94 51.165 93.9 50.833 93.9C50.593 93.9 50.393 93.928 50.233 93.984C50.077 94.04 49.939 94.104 49.819 94.176C49.699 94.244 49.589 94.306 49.489 94.362C49.393 94.418 49.285 94.446 49.165 94.446C49.061 94.446 48.973 94.42 48.901 94.368C48.829 94.312 48.771 94.248 48.727 94.176L48.463 93.702ZM60.0648 92.844V99H58.5828V96.276H56.1828V99H54.7008V92.844H56.1828V95.178H58.5828V92.844H60.0648ZM66.8128 93.942H64.6168V99H63.1348V93.942H60.9448V92.844H66.8128V93.942ZM73.2171 92.844V99H71.7351V95.406C71.7351 95.314 71.7391 95.214 71.7471 95.106C71.7591 94.994 71.7731 94.882 71.7891 94.77C71.7091 94.954 71.6211 95.116 71.5251 95.256C71.5171 95.264 71.4771 95.32 71.4051 95.424C71.3331 95.524 71.2391 95.654 71.1231 95.814C71.0111 95.974 70.8831 96.156 70.7391 96.36C70.5951 96.56 70.4491 96.764 70.3011 96.972C69.9531 97.464 69.5591 98.02 69.1191 98.64C69.0631 98.724 68.9891 98.806 68.8971 98.886C68.8091 98.966 68.7071 99.006 68.5911 99.006H67.6851V92.85H69.1671V96.444C69.1671 96.536 69.1611 96.638 69.1491 96.75C69.1411 96.858 69.1291 96.968 69.1131 97.08C69.2011 96.884 69.2891 96.722 69.3771 96.594C69.3811 96.586 69.4191 96.532 69.4911 96.432C69.5631 96.332 69.6551 96.202 69.7671 96.042C69.8831 95.882 70.0131 95.702 70.1571 95.502C70.3011 95.298 70.4471 95.09 70.5951 94.878C70.9431 94.386 71.3391 93.83 71.7831 93.21C71.8391 93.122 71.9131 93.04 72.0051 92.964C72.0971 92.884 72.2011 92.844 72.3171 92.844H73.2171ZM77.8912 95.616V93.81H77.0872C76.8992 93.81 76.7432 93.838 76.6192 93.894C76.4952 93.946 76.3932 94.016 76.3132 94.104C76.2372 94.188 76.1832 94.284 76.1512 94.392C76.1192 94.5 76.1032 94.606 76.1032 94.71C76.1032 94.994 76.1972 95.216 76.3852 95.376C76.5772 95.536 76.8332 95.616 77.1532 95.616H77.8912ZM79.3012 92.844V99H77.8912V96.528H77.6332C77.5132 96.528 77.4132 96.54 77.3332 96.564C77.2572 96.584 77.1912 96.614 77.1352 96.654C77.0832 96.69 77.0372 96.736 76.9972 96.792C76.9612 96.848 76.9232 96.91 76.8832 96.978L75.8992 98.49C75.8512 98.574 75.7992 98.648 75.7432 98.712C75.6912 98.776 75.6292 98.83 75.5572 98.874C75.4892 98.914 75.4072 98.946 75.3112 98.97C75.2192 98.99 75.1072 99 74.9752 99H73.9492L75.5032 96.828C75.5872 96.676 75.6852 96.554 75.7972 96.462C75.9092 96.37 76.0412 96.296 76.1932 96.24C75.9052 96.188 75.6592 96.108 75.4552 96C75.2552 95.888 75.0932 95.76 74.9692 95.616C74.8452 95.468 74.7552 95.31 74.6992 95.142C74.6432 94.974 74.6152 94.808 74.6152 94.644C74.6152 94.416 74.6592 94.194 74.7472 93.978C74.8392 93.762 74.9832 93.57 75.1792 93.402C75.3752 93.234 75.6272 93.1 75.9352 93C76.2432 92.896 76.6132 92.844 77.0452 92.844H79.3012Z" fill="#060F42"/>
<defs>
<clipPath id="clip0_6924_6504">
<rect width="52" height="48" fill="white" transform="translate(29 12.5)"/>
</clipPath>
</defs>
</svg>
