<svg width="110" height="110" viewBox="0 0 110 110" fill="none" xmlns="http://www.w3.org/2000/svg">
<g clip-path="url(#clip0_6924_6473)">
<path d="M68.668 22.6719H28.668V49.1433H68.668V22.6719Z" fill="white"/>
<path d="M69.8512 48.3141C69.8512 49.4186 68.9558 50.3141 67.8512 50.3141H29.4844C28.3798 50.3141 27.4844 49.4186 27.4844 48.3141V23.5C27.4844 22.3954 28.3798 21.5 29.4844 21.5H67.8512C68.9558 21.5 69.8512 22.3954 69.8512 23.5V48.3141ZM29.8512 45.9714C29.8512 47.076 30.7467 47.9714 31.8512 47.9714H65.4844C66.589 47.9714 67.4844 47.076 67.4844 45.9714V25.8426C67.4844 24.738 66.5889 23.8426 65.4844 23.8426H31.8512C30.7467 23.8426 29.8512 24.738 29.8512 25.8426V45.9714Z" fill="#060F42"/>
<path d="M83.4609 54.3552H68.668V29.8164H80.0881L83.4609 42.0565V47.7373V48.5573V49.5529V54.3552Z" fill="white"/>
<path d="M82.4557 53.5939H77.2486L76.8936 53.1254C76.8936 53.1254 76.1835 52.1883 74.9409 52.1883C73.6391 52.1883 72.9291 53.1254 72.9291 53.1254L72.574 53.6524H69.793V51.3098H71.4498C72.1598 50.6071 73.3433 49.8457 75.0001 49.8457C76.5977 49.8457 78.1953 50.6071 78.8462 51.3098H82.4557V53.5939Z" fill="#FFCD1B"/>
<path d="M84.6441 53.5259C84.6441 54.6305 83.7487 55.5259 82.6441 55.5259H69.4844C68.3798 55.5259 67.4844 54.6305 67.4844 53.5259V30.6445C67.4844 29.54 68.3798 28.6445 69.4844 28.6445H79.4527C80.3523 28.6445 81.1413 29.2452 81.3806 30.1125L84.5721 41.6777C84.6199 41.851 84.6441 42.0299 84.6441 42.2097V53.5259ZM69.8512 51.1833C69.8512 52.2879 70.7467 53.1833 71.8512 53.1833H80.2773C81.3818 53.1833 82.2773 52.2879 82.2773 51.1833V42.5003C82.2773 42.322 82.2534 42.1445 82.2064 41.9725L79.6032 32.4593C79.3653 31.59 78.5754 30.9871 77.6741 30.9871H71.8512C70.7467 30.9871 69.8512 31.8826 69.8512 32.9871V51.1833Z" fill="#060F42"/>
<path d="M40.1611 28.5273H36.4688C35.3642 28.5273 34.4688 29.4228 34.4688 30.5273V31.2126C34.4688 32.3171 35.3642 33.2126 36.4688 33.2126H40.1611C41.2656 33.2126 42.1611 32.3171 42.1611 31.2126V30.5273C42.1611 29.4228 41.2656 28.5273 40.1611 28.5273Z" fill="#FFCD1B"/>
<path d="M66.6688 49.1426H28.1836C27.079 49.1426 26.1836 50.038 26.1836 51.1426V52.3549C26.1836 53.4594 27.079 54.3549 28.1836 54.3549H66.6688C67.7734 54.3549 68.6688 53.4594 68.6688 52.3549V51.1426C68.6688 50.038 67.7734 49.1426 66.6688 49.1426Z" fill="white"/>
<path d="M69.8521 53.5256C69.8521 54.6302 68.9566 55.5256 67.8521 55.5256H27C25.8954 55.5256 25 54.6302 25 53.5256V49.9707C25 48.8661 25.8954 47.9707 27 47.9707H67.8521C68.9566 47.9707 69.8521 48.8661 69.8521 49.9707V53.5256ZM27.3669 51.7482C27.3669 52.5406 28.0093 53.183 28.8017 53.183H66.0504C66.8428 53.183 67.4852 52.5406 67.4852 51.7482C67.4852 50.9557 66.8428 50.3133 66.0504 50.3133H28.8017C28.0093 50.3133 27.3669 50.9557 27.3669 51.7482Z" fill="#060F42"/>
<path d="M79.0983 38.4079C79.3645 39.6527 78.4155 40.8262 77.1425 40.8262H73.3906C72.2861 40.8262 71.3906 39.9307 71.3906 38.8262V34.8027C71.3906 33.6982 72.2861 32.8027 73.3906 32.8027H76.282C77.2254 32.8027 78.0405 33.4619 78.2378 34.3845L79.0983 38.4079Z" fill="#01579B"/>
<path d="M34.4102 60.3285C36.4037 60.3285 38.0197 58.7291 38.0197 56.7561C38.0197 54.783 36.4037 53.1836 34.4102 53.1836C32.4168 53.1836 30.8008 54.783 30.8008 56.7561C30.8008 58.7291 32.4168 60.3285 34.4102 60.3285Z" fill="white"/>
<path d="M34.4101 61.4993C31.7474 61.4993 29.6172 59.3909 29.6172 56.7555C29.6172 54.1201 31.7474 52.0117 34.4101 52.0117C37.0728 52.0117 39.203 54.1201 39.203 56.7555C39.203 59.3909 37.0136 61.4993 34.4101 61.4993ZM34.4101 54.3543C33.0491 54.3543 31.9841 55.4085 31.9841 56.7555C31.9841 58.1025 33.0491 59.1567 34.4101 59.1567C35.771 59.1567 36.8361 58.1025 36.8361 56.7555C36.8361 55.4085 35.7119 54.3543 34.4101 54.3543Z" fill="#060F42"/>
<path d="M56.1251 60.3285C58.1185 60.3285 59.7346 58.7291 59.7346 56.7561C59.7346 54.783 58.1185 53.1836 56.1251 53.1836C54.1316 53.1836 52.5156 54.783 52.5156 56.7561C52.5156 58.7291 54.1316 60.3285 56.1251 60.3285Z" fill="white"/>
<path d="M56.1249 61.4993C53.4622 61.4993 51.332 59.3909 51.332 56.7555C51.332 54.1201 53.4622 52.0117 56.1249 52.0117C58.7877 52.0117 60.9178 54.1201 60.9178 56.7555C60.9178 59.3909 58.7285 61.4993 56.1249 61.4993ZM56.1249 54.3543C54.764 54.3543 53.6989 55.4085 53.6989 56.7555C53.6989 58.1025 54.764 59.1567 56.1249 59.1567C57.4859 59.1567 58.551 58.1025 58.551 56.7555C58.551 55.4085 57.4267 54.3543 56.1249 54.3543Z" fill="#060F42"/>
<path d="M74.9415 60.3285C76.935 60.3285 78.551 58.7291 78.551 56.7561C78.551 54.783 76.935 53.1836 74.9415 53.1836C72.948 53.1836 71.332 54.783 71.332 56.7561C71.332 58.7291 72.948 60.3285 74.9415 60.3285Z" fill="white"/>
<path d="M74.9413 61.4993C72.2786 61.4993 70.1484 59.3909 70.1484 56.7555C70.1484 54.1201 72.2786 52.0117 74.9413 52.0117C77.6041 52.0117 79.7342 54.1201 79.7342 56.7555C79.7342 59.3909 77.6041 61.4993 74.9413 61.4993ZM74.9413 54.3543C73.5804 54.3543 72.5153 55.4085 72.5153 56.7555C72.5153 58.1025 73.5804 59.1567 74.9413 59.1567C76.3023 59.1567 77.3674 58.1025 77.3674 56.7555C77.3674 55.4085 76.3023 54.3543 74.9413 54.3543Z" fill="#060F42"/>
<path d="M83.8307 44.1055H81.9721C81.3252 44.1055 80.8008 44.6299 80.8008 45.2768C80.8008 45.9237 81.3252 46.4481 81.9721 46.4481H83.8307C84.4776 46.4481 85.002 45.9237 85.002 45.2768C85.002 44.6299 84.4776 44.1055 83.8307 44.1055Z" fill="#060F42"/>
<path d="M34.4078 58.1042C35.1595 58.1042 35.7688 57.5011 35.7688 56.7572C35.7688 56.0132 35.1595 55.4102 34.4078 55.4102C33.6562 55.4102 33.0469 56.0132 33.0469 56.7572C33.0469 57.5011 33.6562 58.1042 34.4078 58.1042Z" fill="#060F42"/>
<path d="M56.1227 58.1042C56.8743 58.1042 57.4836 57.5011 57.4836 56.7572C57.4836 56.0132 56.8743 55.4102 56.1227 55.4102C55.371 55.4102 54.7617 56.0132 54.7617 56.7572C54.7617 57.5011 55.371 58.1042 56.1227 58.1042Z" fill="#060F42"/>
<path d="M74.9391 58.1042C75.6907 58.1042 76.3 57.5011 76.3 56.7572C76.3 56.0132 75.6907 55.4102 74.9391 55.4102C74.1874 55.4102 73.5781 56.0132 73.5781 56.7572C73.5781 57.5011 74.1874 58.1042 74.9391 58.1042Z" fill="#060F42"/>
</g>
<path d="M25.0759 85.74C25.3759 85.74 25.6259 85.708 25.8259 85.644C26.0299 85.576 26.1939 85.484 26.3179 85.368C26.4419 85.252 26.5299 85.116 26.5819 84.96C26.6339 84.804 26.6599 84.636 26.6599 84.456C26.6599 84.26 26.6339 84.082 26.5819 83.922C26.5299 83.762 26.4419 83.628 26.3179 83.52C26.1939 83.408 26.0319 83.322 25.8319 83.262C25.6319 83.202 25.3819 83.172 25.0819 83.172H23.6659V85.74H25.0759ZM25.0819 81.912C25.6459 81.912 26.1279 81.974 26.5279 82.098C26.9319 82.222 27.2599 82.392 27.5119 82.608C27.7679 82.82 27.9559 83.072 28.0759 83.364C28.1959 83.652 28.2559 83.962 28.2559 84.294C28.2559 84.702 28.1839 85.072 28.0399 85.404C27.8999 85.736 27.6939 86.022 27.4219 86.262C27.1499 86.498 26.8159 86.68 26.4199 86.808C26.0279 86.936 25.5799 87 25.0759 87H22.0519V78.324H27.9379V79.572H23.6659V81.912H25.0819ZM33.3308 83.214C33.3308 83.022 33.3028 82.842 33.2468 82.674C33.1948 82.502 33.1148 82.352 33.0068 82.224C32.8988 82.096 32.7608 81.996 32.5928 81.924C32.4288 81.848 32.2368 81.81 32.0168 81.81C31.5888 81.81 31.2508 81.932 31.0028 82.176C30.7588 82.42 30.6028 82.766 30.5348 83.214H33.3308ZM30.5048 84.108C30.5288 84.424 30.5848 84.698 30.6728 84.93C30.7608 85.158 30.8768 85.348 31.0208 85.5C31.1648 85.648 31.3348 85.76 31.5308 85.836C31.7308 85.908 31.9508 85.944 32.1908 85.944C32.4308 85.944 32.6368 85.916 32.8088 85.86C32.9848 85.804 33.1368 85.742 33.2648 85.674C33.3968 85.606 33.5108 85.544 33.6068 85.488C33.7068 85.432 33.8028 85.404 33.8948 85.404C34.0188 85.404 34.1108 85.45 34.1708 85.542L34.5968 86.082C34.4328 86.274 34.2488 86.436 34.0448 86.568C33.8408 86.696 33.6268 86.8 33.4028 86.88C33.1828 86.956 32.9568 87.01 32.7248 87.042C32.4968 87.074 32.2748 87.09 32.0588 87.09C31.6308 87.09 31.2328 87.02 30.8648 86.88C30.4968 86.736 30.1768 86.526 29.9048 86.25C29.6328 85.97 29.4188 85.626 29.2628 85.218C29.1068 84.806 29.0288 84.33 29.0288 83.79C29.0288 83.37 29.0968 82.976 29.2328 82.608C29.3688 82.236 29.5628 81.914 29.8148 81.642C30.0708 81.366 30.3808 81.148 30.7448 80.988C31.1128 80.828 31.5268 80.748 31.9868 80.748C32.3748 80.748 32.7328 80.81 33.0608 80.934C33.3888 81.058 33.6708 81.24 33.9068 81.48C34.1428 81.716 34.3268 82.008 34.4588 82.356C34.5948 82.7 34.6628 83.094 34.6628 83.538C34.6628 83.762 34.6388 83.914 34.5908 83.994C34.5428 84.07 34.4508 84.108 34.3148 84.108H30.5048ZM40.185 82.146C40.141 82.202 40.097 82.246 40.053 82.278C40.013 82.31 39.953 82.326 39.873 82.326C39.797 82.326 39.723 82.304 39.651 82.26C39.579 82.212 39.493 82.16 39.393 82.104C39.293 82.044 39.173 81.992 39.033 81.948C38.897 81.9 38.727 81.876 38.523 81.876C38.263 81.876 38.035 81.924 37.839 82.02C37.643 82.112 37.479 82.246 37.347 82.422C37.219 82.598 37.123 82.812 37.059 83.064C36.995 83.312 36.963 83.594 36.963 83.91C36.963 84.238 36.997 84.53 37.065 84.786C37.137 85.042 37.239 85.258 37.371 85.434C37.503 85.606 37.663 85.738 37.851 85.83C38.039 85.918 38.251 85.962 38.487 85.962C38.723 85.962 38.913 85.934 39.057 85.878C39.205 85.818 39.329 85.754 39.429 85.686C39.529 85.614 39.615 85.55 39.687 85.494C39.763 85.434 39.847 85.404 39.939 85.404C40.059 85.404 40.149 85.45 40.209 85.542L40.635 86.082C40.471 86.274 40.293 86.436 40.101 86.568C39.909 86.696 39.709 86.8 39.501 86.88C39.297 86.956 39.085 87.01 38.865 87.042C38.649 87.074 38.433 87.09 38.217 87.09C37.837 87.09 37.479 87.02 37.143 86.88C36.807 86.736 36.513 86.528 36.261 86.256C36.009 85.984 35.809 85.652 35.661 85.26C35.517 84.864 35.445 84.414 35.445 83.91C35.445 83.458 35.509 83.04 35.637 82.656C35.769 82.268 35.961 81.934 36.213 81.654C36.465 81.37 36.777 81.148 37.149 80.988C37.521 80.828 37.949 80.748 38.433 80.748C38.893 80.748 39.295 80.822 39.639 80.97C39.987 81.118 40.299 81.33 40.575 81.606L40.185 82.146ZM46.928 87H45.446V81.942H43.046V87H41.564V80.844H46.928V87ZM54.1081 87H52.6261V81.978H51.1141C51.0661 82.734 50.9921 83.386 50.8921 83.934C50.7921 84.478 50.6721 84.94 50.5321 85.32C50.3961 85.7 50.2421 86.006 50.0701 86.238C49.9021 86.466 49.7221 86.644 49.5301 86.772C49.3381 86.9 49.1401 86.984 48.9361 87.024C48.7321 87.068 48.5261 87.09 48.3181 87.09C48.0981 87.09 47.9361 87.07 47.8321 87.03C47.7321 86.994 47.6821 86.942 47.6821 86.874V85.95H48.0361C48.1681 85.95 48.3001 85.93 48.4321 85.89C48.5641 85.85 48.6921 85.768 48.8161 85.644C48.9401 85.52 49.0581 85.344 49.1701 85.116C49.2821 84.884 49.3841 84.58 49.4761 84.204C49.5721 83.824 49.6561 83.36 49.7281 82.812C49.8001 82.264 49.8561 81.608 49.8961 80.844H54.1081V87ZM58.8199 84.372C58.3919 84.392 58.0319 84.43 57.7399 84.486C57.4479 84.538 57.2139 84.606 57.0379 84.69C56.8619 84.774 56.7359 84.872 56.6599 84.984C56.5839 85.096 56.5459 85.218 56.5459 85.35C56.5459 85.61 56.6219 85.796 56.7739 85.908C56.9299 86.02 57.1319 86.076 57.3799 86.076C57.6839 86.076 57.9459 86.022 58.1659 85.914C58.3899 85.802 58.6079 85.634 58.8199 85.41V84.372ZM55.4239 81.702C56.1319 81.054 56.9839 80.73 57.9799 80.73C58.3399 80.73 58.6619 80.79 58.9459 80.91C59.2299 81.026 59.4699 81.19 59.6659 81.402C59.8619 81.61 60.0099 81.86 60.1099 82.152C60.2139 82.444 60.2659 82.764 60.2659 83.112V87H59.5939C59.4539 87 59.3459 86.98 59.2699 86.94C59.1939 86.896 59.1339 86.81 59.0899 86.682L58.9579 86.238C58.8019 86.378 58.6499 86.502 58.5019 86.61C58.3539 86.714 58.1999 86.802 58.0399 86.874C57.8799 86.946 57.7079 87 57.5239 87.036C57.3439 87.076 57.1439 87.096 56.9239 87.096C56.6639 87.096 56.4239 87.062 56.2039 86.994C55.9839 86.922 55.7939 86.816 55.6339 86.676C55.4739 86.536 55.3499 86.362 55.2619 86.154C55.1739 85.946 55.1299 85.704 55.1299 85.428C55.1299 85.272 55.1559 85.118 55.2079 84.966C55.2599 84.81 55.3439 84.662 55.4599 84.522C55.5799 84.382 55.7339 84.25 55.9219 84.126C56.1099 84.002 56.3399 83.894 56.6119 83.802C56.8879 83.71 57.2079 83.636 57.5719 83.58C57.9359 83.52 58.3519 83.484 58.8199 83.472V83.112C58.8199 82.7 58.7319 82.396 58.5559 82.2C58.3799 82 58.1259 81.9 57.7939 81.9C57.5539 81.9 57.3539 81.928 57.1939 81.984C57.0379 82.04 56.8999 82.104 56.7799 82.176C56.6599 82.244 56.5499 82.306 56.4499 82.362C56.3539 82.418 56.2459 82.446 56.1259 82.446C56.0219 82.446 55.9339 82.42 55.8619 82.368C55.7899 82.312 55.7319 82.248 55.6879 82.176L55.4239 81.702ZM66.8362 81.942H64.6402V87H63.1582V81.942H60.9682V80.844H66.8362V81.942ZM73.0726 80.844V87H71.5906V84.276H69.1906V87H67.7086V80.844H69.1906V83.178H71.5906V80.844H73.0726ZM77.7926 84.372C77.3646 84.392 77.0046 84.43 76.7126 84.486C76.4206 84.538 76.1866 84.606 76.0106 84.69C75.8346 84.774 75.7086 84.872 75.6326 84.984C75.5566 85.096 75.5186 85.218 75.5186 85.35C75.5186 85.61 75.5946 85.796 75.7466 85.908C75.9026 86.02 76.1046 86.076 76.3526 86.076C76.6566 86.076 76.9186 86.022 77.1386 85.914C77.3626 85.802 77.5806 85.634 77.7926 85.41V84.372ZM74.3966 81.702C75.1046 81.054 75.9566 80.73 76.9526 80.73C77.3126 80.73 77.6346 80.79 77.9186 80.91C78.2026 81.026 78.4426 81.19 78.6386 81.402C78.8346 81.61 78.9826 81.86 79.0826 82.152C79.1866 82.444 79.2386 82.764 79.2386 83.112V87H78.5666C78.4266 87 78.3186 86.98 78.2426 86.94C78.1666 86.896 78.1066 86.81 78.0626 86.682L77.9306 86.238C77.7746 86.378 77.6226 86.502 77.4746 86.61C77.3266 86.714 77.1726 86.802 77.0126 86.874C76.8526 86.946 76.6806 87 76.4966 87.036C76.3166 87.076 76.1166 87.096 75.8966 87.096C75.6366 87.096 75.3966 87.062 75.1766 86.994C74.9566 86.922 74.7666 86.816 74.6066 86.676C74.4466 86.536 74.3226 86.362 74.2346 86.154C74.1466 85.946 74.1026 85.704 74.1026 85.428C74.1026 85.272 74.1286 85.118 74.1806 84.966C74.2326 84.81 74.3166 84.662 74.4326 84.522C74.5526 84.382 74.7066 84.25 74.8946 84.126C75.0826 84.002 75.3126 83.894 75.5846 83.802C75.8606 83.71 76.1806 83.636 76.5446 83.58C76.9086 83.52 77.3246 83.484 77.7926 83.472V83.112C77.7926 82.7 77.7046 82.396 77.5286 82.2C77.3526 82 77.0986 81.9 76.7666 81.9C76.5266 81.9 76.3266 81.928 76.1666 81.984C76.0106 82.04 75.8726 82.104 75.7526 82.176C75.6326 82.244 75.5226 82.306 75.4226 82.362C75.3266 82.418 75.2186 82.446 75.0986 82.446C74.9946 82.446 74.9066 82.42 74.8346 82.368C74.7626 82.312 74.7046 82.248 74.6606 82.176L74.3966 81.702ZM83.8443 83.616V81.81H83.0403C82.8523 81.81 82.6963 81.838 82.5723 81.894C82.4483 81.946 82.3463 82.016 82.2663 82.104C82.1903 82.188 82.1363 82.284 82.1043 82.392C82.0723 82.5 82.0563 82.606 82.0563 82.71C82.0563 82.994 82.1503 83.216 82.3383 83.376C82.5303 83.536 82.7863 83.616 83.1063 83.616H83.8443ZM85.2543 80.844V87H83.8443V84.528H83.5863C83.4663 84.528 83.3663 84.54 83.2863 84.564C83.2103 84.584 83.1443 84.614 83.0883 84.654C83.0363 84.69 82.9903 84.736 82.9503 84.792C82.9143 84.848 82.8763 84.91 82.8363 84.978L81.8523 86.49C81.8043 86.574 81.7523 86.648 81.6963 86.712C81.6443 86.776 81.5823 86.83 81.5103 86.874C81.4423 86.914 81.3603 86.946 81.2643 86.97C81.1723 86.99 81.0603 87 80.9283 87H79.9023L81.4563 84.828C81.5403 84.676 81.6383 84.554 81.7503 84.462C81.8623 84.37 81.9943 84.296 82.1463 84.24C81.8583 84.188 81.6123 84.108 81.4083 84C81.2083 83.888 81.0463 83.76 80.9223 83.616C80.7983 83.468 80.7083 83.31 80.6523 83.142C80.5963 82.974 80.5683 82.808 80.5683 82.644C80.5683 82.416 80.6123 82.194 80.7003 81.978C80.7923 81.762 80.9363 81.57 81.1323 81.402C81.3283 81.234 81.5803 81.1 81.8883 81C82.1963 80.896 82.5663 80.844 82.9983 80.844H85.2543ZM34.3184 97.944V93.978H32.8064C32.7664 94.494 32.7164 94.96 32.6564 95.376C32.5964 95.788 32.5264 96.156 32.4464 96.48C32.3664 96.804 32.2784 97.086 32.1824 97.326C32.0904 97.566 31.9904 97.772 31.8824 97.944H34.3184ZM36.8864 97.902V100.62C36.8864 100.756 36.8464 100.864 36.7664 100.944C36.6904 101.024 36.5904 101.064 36.4664 101.064H35.5424V99H30.9344V100.644C30.9344 100.748 30.9004 100.844 30.8324 100.932C30.7684 101.02 30.6664 101.064 30.5264 101.064H29.5904V97.944H29.7644C29.9044 97.944 30.0404 97.926 30.1724 97.89C30.3044 97.85 30.4304 97.77 30.5504 97.65C30.6744 97.53 30.7904 97.358 30.8984 97.134C31.0104 96.906 31.1104 96.604 31.1984 96.228C31.2864 95.848 31.3624 95.382 31.4264 94.83C31.4944 94.278 31.5484 93.616 31.5884 92.844H35.7584V97.902H36.8864ZM40.4384 92.748C40.8944 92.748 41.3084 92.822 41.6804 92.97C42.0564 93.118 42.3764 93.328 42.6404 93.6C42.9084 93.872 43.1144 94.204 43.2584 94.596C43.4024 94.988 43.4744 95.426 43.4744 95.91C43.4744 96.398 43.4024 96.838 43.2584 97.23C43.1144 97.622 42.9084 97.956 42.6404 98.232C42.3764 98.508 42.0564 98.72 41.6804 98.868C41.3084 99.016 40.8944 99.09 40.4384 99.09C39.9784 99.09 39.5604 99.016 39.1844 98.868C38.8084 98.72 38.4864 98.508 38.2184 98.232C37.9544 97.956 37.7484 97.622 37.6004 97.23C37.4564 96.838 37.3844 96.398 37.3844 95.91C37.3844 95.426 37.4564 94.988 37.6004 94.596C37.7484 94.204 37.9544 93.872 38.2184 93.6C38.4864 93.328 38.8084 93.118 39.1844 92.97C39.5604 92.822 39.9784 92.748 40.4384 92.748ZM40.4384 97.95C40.9504 97.95 41.3284 97.778 41.5724 97.434C41.8204 97.09 41.9444 96.586 41.9444 95.922C41.9444 95.258 41.8204 94.752 41.5724 94.404C41.3284 94.056 40.9504 93.882 40.4384 93.882C39.9184 93.882 39.5324 94.058 39.2804 94.41C39.0324 94.758 38.9084 95.262 38.9084 95.922C38.9084 96.582 39.0324 97.086 39.2804 97.434C39.5324 97.778 39.9184 97.95 40.4384 97.95ZM49.015 94.146C48.971 94.202 48.927 94.246 48.883 94.278C48.843 94.31 48.783 94.326 48.703 94.326C48.627 94.326 48.553 94.304 48.481 94.26C48.409 94.212 48.323 94.16 48.223 94.104C48.123 94.044 48.003 93.992 47.863 93.948C47.727 93.9 47.557 93.876 47.353 93.876C47.093 93.876 46.865 93.924 46.669 94.02C46.473 94.112 46.309 94.246 46.177 94.422C46.049 94.598 45.953 94.812 45.889 95.064C45.825 95.312 45.793 95.594 45.793 95.91C45.793 96.238 45.827 96.53 45.895 96.786C45.967 97.042 46.069 97.258 46.201 97.434C46.333 97.606 46.493 97.738 46.681 97.83C46.869 97.918 47.081 97.962 47.317 97.962C47.553 97.962 47.743 97.934 47.887 97.878C48.035 97.818 48.159 97.754 48.259 97.686C48.359 97.614 48.445 97.55 48.517 97.494C48.593 97.434 48.677 97.404 48.769 97.404C48.889 97.404 48.979 97.45 49.039 97.542L49.465 98.082C49.301 98.274 49.123 98.436 48.931 98.568C48.739 98.696 48.539 98.8 48.331 98.88C48.127 98.956 47.915 99.01 47.695 99.042C47.479 99.074 47.263 99.09 47.047 99.09C46.667 99.09 46.309 99.02 45.973 98.88C45.637 98.736 45.343 98.528 45.091 98.256C44.839 97.984 44.639 97.652 44.491 97.26C44.347 96.864 44.275 96.414 44.275 95.91C44.275 95.458 44.339 95.04 44.467 94.656C44.599 94.268 44.791 93.934 45.043 93.654C45.295 93.37 45.607 93.148 45.979 92.988C46.351 92.828 46.779 92.748 47.263 92.748C47.723 92.748 48.125 92.822 48.469 92.97C48.817 93.118 49.129 93.33 49.405 93.606L49.015 94.146ZM55.6741 93.942H53.4781V99H51.9961V93.942H49.8061V92.844H55.6741V93.942ZM59.7633 96.372C59.3353 96.392 58.9753 96.43 58.6833 96.486C58.3913 96.538 58.1573 96.606 57.9813 96.69C57.8053 96.774 57.6793 96.872 57.6033 96.984C57.5273 97.096 57.4893 97.218 57.4893 97.35C57.4893 97.61 57.5653 97.796 57.7173 97.908C57.8733 98.02 58.0753 98.076 58.3233 98.076C58.6273 98.076 58.8893 98.022 59.1093 97.914C59.3333 97.802 59.5513 97.634 59.7633 97.41V96.372ZM56.3673 93.702C57.0753 93.054 57.9273 92.73 58.9233 92.73C59.2833 92.73 59.6053 92.79 59.8893 92.91C60.1733 93.026 60.4133 93.19 60.6093 93.402C60.8053 93.61 60.9533 93.86 61.0533 94.152C61.1573 94.444 61.2093 94.764 61.2093 95.112V99H60.5373C60.3973 99 60.2893 98.98 60.2133 98.94C60.1373 98.896 60.0773 98.81 60.0333 98.682L59.9013 98.238C59.7453 98.378 59.5933 98.502 59.4453 98.61C59.2973 98.714 59.1433 98.802 58.9833 98.874C58.8233 98.946 58.6513 99 58.4673 99.036C58.2873 99.076 58.0873 99.096 57.8673 99.096C57.6073 99.096 57.3673 99.062 57.1473 98.994C56.9273 98.922 56.7373 98.816 56.5773 98.676C56.4173 98.536 56.2933 98.362 56.2053 98.154C56.1173 97.946 56.0733 97.704 56.0733 97.428C56.0733 97.272 56.0993 97.118 56.1513 96.966C56.2033 96.81 56.2873 96.662 56.4033 96.522C56.5233 96.382 56.6773 96.25 56.8653 96.126C57.0533 96.002 57.2833 95.894 57.5553 95.802C57.8313 95.71 58.1513 95.636 58.5153 95.58C58.8793 95.52 59.2953 95.484 59.7633 95.472V95.112C59.7633 94.7 59.6753 94.396 59.4993 94.2C59.3233 94 59.0693 93.9 58.7373 93.9C58.4973 93.9 58.2973 93.928 58.1373 93.984C57.9813 94.04 57.8433 94.104 57.7233 94.176C57.6033 94.244 57.4933 94.306 57.3933 94.362C57.2973 94.418 57.1893 94.446 57.0693 94.446C56.9653 94.446 56.8773 94.42 56.8053 94.368C56.7333 94.312 56.6753 94.248 56.6313 94.176L56.3673 93.702ZM65.119 97.986C65.431 97.986 65.677 97.91 65.857 97.758C66.041 97.606 66.133 97.398 66.133 97.134C66.133 97.022 66.117 96.918 66.085 96.822C66.057 96.722 66.005 96.636 65.929 96.564C65.853 96.492 65.749 96.436 65.617 96.396C65.489 96.356 65.325 96.336 65.125 96.336H64.015V97.986H65.119ZM64.015 93.81V95.424H64.987C65.131 95.424 65.263 95.404 65.383 95.364C65.503 95.32 65.607 95.26 65.695 95.184C65.783 95.104 65.851 95.012 65.899 94.908C65.947 94.8 65.971 94.682 65.971 94.554C65.971 94.462 65.955 94.372 65.923 94.284C65.891 94.192 65.837 94.112 65.761 94.044C65.685 93.972 65.583 93.916 65.455 93.876C65.331 93.832 65.175 93.81 64.987 93.81H64.015ZM65.029 92.844C65.417 92.844 65.751 92.882 66.031 92.958C66.315 93.034 66.549 93.138 66.733 93.27C66.917 93.402 67.053 93.56 67.141 93.744C67.229 93.924 67.273 94.12 67.273 94.332C67.273 94.464 67.255 94.602 67.219 94.746C67.187 94.886 67.127 95.022 67.039 95.154C66.955 95.286 66.839 95.406 66.691 95.514C66.543 95.622 66.355 95.706 66.127 95.766C66.331 95.81 66.517 95.872 66.685 95.952C66.853 96.028 66.997 96.126 67.117 96.246C67.237 96.362 67.329 96.5 67.393 96.66C67.461 96.816 67.495 96.992 67.495 97.188C67.495 97.5 67.429 97.77 67.297 97.998C67.169 98.226 66.995 98.414 66.775 98.562C66.559 98.71 66.307 98.82 66.019 98.892C65.735 98.964 65.437 99 65.125 99H62.605V92.844H65.029ZM72.3182 93.234C72.3902 93.118 72.4882 93.024 72.6122 92.952C72.7362 92.88 72.8682 92.844 73.0082 92.844H74.1722L72.7382 95.13C72.6382 95.29 72.5362 95.42 72.4322 95.52C72.3282 95.616 72.2022 95.692 72.0542 95.748C72.2542 95.808 72.4182 95.898 72.5462 96.018C72.6742 96.134 72.7902 96.282 72.8942 96.462L74.3342 99H73.3082C73.0482 99 72.8462 98.956 72.7022 98.868C72.5582 98.78 72.4362 98.654 72.3362 98.49L71.4302 96.786C71.3502 96.638 71.2462 96.528 71.1182 96.456C70.9942 96.384 70.8482 96.348 70.6802 96.348H70.1222V99H68.6402V92.844H70.1222V95.382H70.6022C70.7702 95.382 70.9042 95.352 71.0042 95.292C71.1082 95.228 71.1962 95.132 71.2682 95.004L72.3182 93.234ZM78.4078 96.372C77.9798 96.392 77.6198 96.43 77.3278 96.486C77.0358 96.538 76.8018 96.606 76.6258 96.69C76.4498 96.774 76.3238 96.872 76.2478 96.984C76.1718 97.096 76.1338 97.218 76.1338 97.35C76.1338 97.61 76.2098 97.796 76.3618 97.908C76.5178 98.02 76.7198 98.076 76.9678 98.076C77.2718 98.076 77.5338 98.022 77.7538 97.914C77.9778 97.802 78.1958 97.634 78.4078 97.41V96.372ZM75.0118 93.702C75.7198 93.054 76.5718 92.73 77.5678 92.73C77.9278 92.73 78.2498 92.79 78.5338 92.91C78.8178 93.026 79.0578 93.19 79.2538 93.402C79.4498 93.61 79.5978 93.86 79.6978 94.152C79.8018 94.444 79.8538 94.764 79.8538 95.112V99H79.1818C79.0418 99 78.9338 98.98 78.8578 98.94C78.7818 98.896 78.7218 98.81 78.6778 98.682L78.5458 98.238C78.3898 98.378 78.2378 98.502 78.0898 98.61C77.9418 98.714 77.7878 98.802 77.6278 98.874C77.4678 98.946 77.2958 99 77.1118 99.036C76.9318 99.076 76.7318 99.096 76.5118 99.096C76.2518 99.096 76.0118 99.062 75.7918 98.994C75.5718 98.922 75.3818 98.816 75.2218 98.676C75.0618 98.536 74.9378 98.362 74.8498 98.154C74.7618 97.946 74.7178 97.704 74.7178 97.428C74.7178 97.272 74.7438 97.118 74.7958 96.966C74.8478 96.81 74.9318 96.662 75.0478 96.522C75.1678 96.382 75.3218 96.25 75.5098 96.126C75.6978 96.002 75.9278 95.894 76.1998 95.802C76.4758 95.71 76.7958 95.636 77.1598 95.58C77.5238 95.52 77.9398 95.484 78.4078 95.472V95.112C78.4078 94.7 78.3198 94.396 78.1438 94.2C77.9678 94 77.7138 93.9 77.3818 93.9C77.1418 93.9 76.9418 93.928 76.7818 93.984C76.6258 94.04 76.4878 94.104 76.3678 94.176C76.2478 94.244 76.1378 94.306 76.0378 94.362C75.9418 94.418 75.8338 94.446 75.7138 94.446C75.6098 94.446 75.5218 94.42 75.4498 94.368C75.3778 94.312 75.3198 94.248 75.2758 94.176L75.0118 93.702Z" fill="#060F42"/>
<defs>
<clipPath id="clip0_6924_6473">
<rect width="60" height="40" fill="white" transform="translate(25 21.5)"/>
</clipPath>
</defs>
</svg>
