<svg width="116" height="110" viewBox="0 0 116 110" fill="none" xmlns="http://www.w3.org/2000/svg">
<path d="M84.1435 25.297C84.1164 25.3016 84.0896 25.3039 84.0621 25.3033C83.6581 25.2941 81.8083 25.188 80.5127 26.0518C80.1052 26.3234 79.6977 27.2119 79.4022 28.4931C79.3486 28.7254 79.1446 28.893 78.9064 28.901C77.85 28.9367 76.3834 29.1159 75.726 29.6418C74.9035 30.3272 74.4579 31.7661 74.0439 35.8001C73.9988 36.2386 73.4502 36.4168 73.1615 36.0837L72.3571 35.1555C72.1602 34.9283 71.8088 34.925 71.6076 35.1485L62.6909 45.056C62.6082 45.1478 62.5625 45.267 62.5625 45.3905V57.2637C62.5625 57.5399 62.7864 57.7637 63.0625 57.7637H63.5583C63.8345 57.7637 64.0583 57.5399 64.0583 57.2637V45.9859C64.0583 45.8641 64.1028 45.7466 64.1832 45.6553L71.4564 37.403C71.6573 37.1751 72.0134 37.1776 72.2111 37.4082L73.4958 38.907C73.5828 39.0085 73.6256 39.1413 73.6139 39.2745C73.4703 40.9076 73.3266 41.465 73.183 41.6086L68.3222 46.1917C68.1171 46.385 68.1123 46.7097 68.3117 46.909L68.6563 47.2537C68.8455 47.4429 69.1502 47.4496 69.3475 47.2689L79.4528 38.0176C79.5563 37.9229 79.6152 37.7891 79.6152 37.6489V37.5698C80.0476 33.2451 80.7579 28.2258 81.2106 27.1978C81.2404 27.13 81.2919 27.0765 81.3567 27.0407C81.6962 26.8533 82.2155 26.7333 82.688 26.6808C82.9695 26.6495 83.1967 26.8852 83.1865 27.1682L82.7612 38.9339C82.7581 39.0203 82.7326 39.1043 82.6874 39.1779L73.457 54.1772C73.3077 54.4198 73.391 54.738 73.64 54.8763L74.1134 55.1394C74.3464 55.2688 74.6399 55.1928 74.7807 54.9666L84.3322 39.6262C84.3779 39.5529 84.4038 39.469 84.4074 39.3828L84.9746 25.7695C84.9878 25.4524 84.7059 25.2033 84.3928 25.2555L84.1435 25.297ZM76.248 38.9548C75.8903 39.2768 75.2586 38.9461 75.2965 38.4664C75.3284 38.0623 75.3648 37.6174 75.4268 37.1211C75.5738 35.3573 75.8652 31.5717 76.5848 30.8727C76.6101 30.8482 76.6388 30.8305 76.671 30.8163C76.9539 30.6913 77.6568 30.4907 78.4412 30.4176C78.7441 30.3893 78.9783 30.6592 78.9363 30.9605C78.6717 32.8582 78.4071 34.9689 78.1424 37.0857C78.1275 37.205 78.0701 37.3149 77.9808 37.3953L76.248 38.9548Z" fill="#060F42" stroke="#060F42" stroke-width="0.7"/>
<path d="M31.6241 25.4295C31.3064 25.366 31.013 25.6168 31.0265 25.9406L31.5928 39.5332C31.5964 39.6195 31.6223 39.7034 31.668 39.7767L41.2195 55.117C41.3603 55.3432 41.6538 55.4192 41.8868 55.2898L42.3602 55.0268C42.6092 54.8884 42.6925 54.5703 42.5432 54.3277L33.3129 39.3284C33.2676 39.2548 33.2421 39.1707 33.239 39.0844L32.8137 27.3186C32.8035 27.0356 33.0307 26.7999 33.3122 26.8312C33.7957 26.8849 34.3282 27.0093 34.667 27.2044C34.7161 27.2326 34.7578 27.2717 34.7845 27.3218C35.2458 28.1857 36.0955 33.2331 36.385 37.7202V37.7992C36.385 37.9395 36.444 38.0733 36.5474 38.168L46.6527 47.4193C46.85 47.6 47.1547 47.5933 47.3439 47.4041L47.6834 47.0646C47.8847 46.8633 47.8775 46.5348 47.6677 46.3425L42.8297 41.9076C42.7264 41.8129 42.668 41.679 42.6516 41.5398C42.6089 41.1773 42.4806 40.5256 42.2667 39.4552C42.2365 39.3045 42.2773 39.148 42.3772 39.0313L43.6395 37.5587C43.8372 37.328 44.1933 37.3255 44.3942 37.5535L51.6674 45.8057C51.7479 45.897 51.7923 46.0146 51.7923 46.1363V57.4142C51.7923 57.6903 52.0161 57.9142 52.2923 57.9142H52.7881C53.0643 57.9142 53.2881 57.6903 53.2881 57.4142V45.5409C53.2881 45.4174 53.2424 45.2983 53.1598 45.2065L44.243 35.2989C44.0419 35.0755 43.6904 35.0788 43.4935 35.306L42.6891 36.2341C42.4004 36.5672 41.8518 36.389 41.8068 35.9505C41.3927 31.9165 40.9471 30.4776 40.1247 29.7922C39.4672 29.2663 38.0007 29.0871 36.9443 29.0514C36.7061 29.0434 36.502 28.8757 36.4485 28.6435C36.153 27.3623 35.7455 26.4739 35.3379 26.2022C34.0505 25.3439 32.2158 25.4432 31.7963 25.4535C31.7634 25.4543 31.7317 25.451 31.6994 25.4446L31.6241 25.4295ZM37.8822 37.4073C37.7854 37.3202 37.7266 37.1988 37.7175 37.069C37.5787 35.0897 37.3252 32.8983 36.9572 30.9966C36.8967 30.6841 37.1343 30.3898 37.452 30.4083C38.2674 30.4559 38.9874 30.5996 39.2272 30.8393C39.9751 31.4377 40.2743 35.3269 40.4238 37.1219C40.4859 37.6183 40.5222 38.0631 40.5541 38.4672C40.592 38.947 39.9603 39.2776 39.6026 38.9557L37.8822 37.4073Z" fill="#060F42" stroke="#060F42" stroke-width="0.7"/>
<path d="M58.3684 36.9908C64.6471 36.9908 69.7369 31.9009 69.7369 25.6223C69.7369 19.3437 64.6471 14.2539 58.3684 14.2539C52.0898 14.2539 47 19.3437 47 25.6223C47 31.9009 52.0898 36.9908 58.3684 36.9908Z" fill="#FFCD1B"/>
<path d="M58.9878 33.2539H58.2005C58.0065 33.2539 57.9095 33.1528 57.9095 32.9507V31.7969C57.9095 31.6363 57.7793 31.506 57.6186 31.506C56.8085 31.506 56.1695 31.2622 55.7017 30.7747C55.2339 30.2753 55 29.5916 55 28.7236V28.3134C55 28.0993 55.1027 27.9923 55.3081 27.9923H56.3863C56.5803 27.9923 56.6773 28.0993 56.6773 28.3134V28.5809C56.6773 29.0803 56.7857 29.443 57.0024 29.6689C57.2192 29.8829 57.5729 29.9899 58.0636 29.9899H58.9535C59.4328 29.9899 59.7808 29.877 59.9976 29.6511C60.2143 29.4132 60.3227 29.0327 60.3227 28.5096V27.9388C60.3227 27.4394 60.1744 27.1005 59.8777 26.9222C59.5811 26.7319 59.1361 26.6189 58.5428 26.5833C57.6985 26.5476 57.1108 26.4822 56.78 26.3871C56.4491 26.292 56.1467 26.1433 55.8729 25.9412C55.291 25.525 55 24.7581 55 23.6404V22.8021C55 21.934 55.2282 21.2563 55.6846 20.7688C56.1524 20.2694 56.7971 20.0197 57.6186 20.0197C57.7793 20.0197 57.9095 19.8894 57.9095 19.7287V18.5571C57.9095 18.355 58.0065 18.2539 58.2005 18.2539H58.9878C59.1817 18.2539 59.2787 18.355 59.2787 18.5571V19.9341C59.2787 19.9813 59.317 20.0197 59.3643 20.0197C60.1402 20.0197 60.7506 20.2694 61.1956 20.7688C61.652 21.2682 61.8802 21.9459 61.8802 22.8021V23.1945C61.8802 23.4085 61.7832 23.5155 61.5892 23.5155H60.511C60.3056 23.5155 60.2029 23.4085 60.2029 23.1945V22.9626C60.2029 22.4632 60.0945 22.1065 59.8777 21.8924C59.6724 21.6665 59.3244 21.5536 58.8337 21.5536H58.0465C57.5444 21.5536 57.1907 21.6725 56.9853 21.9103C56.78 22.1362 56.6773 22.5286 56.6773 23.0874V23.6939C56.6773 24.1457 56.8199 24.4608 57.1051 24.6392C57.4018 24.8175 57.8525 24.9245 58.4572 24.9602L59.3301 24.9959C60.1288 25.0434 60.7734 25.2813 61.2641 25.7093C61.7547 26.1255 62 26.8449 62 27.8675V28.7236C62 29.5916 61.7604 30.2753 61.2812 30.7747C60.8134 31.2622 60.1744 31.506 59.3643 31.506C59.317 31.506 59.2787 31.5443 59.2787 31.5916V32.9507C59.2787 33.1528 59.1817 33.2539 58.9878 33.2539Z" fill="#060F42" stroke="#060F42" stroke-width="0.5"/>
<path d="M55.2815 56.6133H39.9297C39.3774 56.6133 38.9297 57.061 38.9297 57.6133V61.7463C38.9297 62.2985 39.3774 62.7463 39.9297 62.7463H55.2815C55.8338 62.7463 56.2815 62.2985 56.2815 61.7463V57.6133C56.2815 57.061 55.8338 56.6133 55.2815 56.6133Z" fill="#01579B"/>
<path d="M75.6253 56.6133H60.2734C59.7212 56.6133 59.2734 57.061 59.2734 57.6133V61.7463C59.2734 62.2985 59.7212 62.7463 60.2734 62.7463H75.6253C76.1776 62.7463 76.6253 62.2985 76.6253 61.7463V57.6133C76.6253 57.061 76.1776 56.6133 75.6253 56.6133Z" fill="#01579B"/>
<path d="M3.64928 82.686C3.94528 82.686 4.20328 82.65 4.42328 82.578C4.64328 82.502 4.82528 82.396 4.96928 82.26C5.11728 82.12 5.22728 81.952 5.29928 81.756C5.37128 81.556 5.40728 81.334 5.40728 81.09C5.40728 80.858 5.37128 80.648 5.29928 80.46C5.22728 80.272 5.11928 80.112 4.97528 79.98C4.83128 79.848 4.64928 79.748 4.42928 79.68C4.20928 79.608 3.94928 79.572 3.64928 79.572H2.44328V82.686H3.64928ZM3.64928 78.324C4.22928 78.324 4.73128 78.392 5.15528 78.528C5.57928 78.664 5.92928 78.854 6.20528 79.098C6.48128 79.342 6.68528 79.634 6.81728 79.974C6.95328 80.314 7.02128 80.686 7.02128 81.09C7.02128 81.51 6.95128 81.896 6.81128 82.248C6.67128 82.596 6.46128 82.896 6.18128 83.148C5.90128 83.4 5.54928 83.596 5.12528 83.736C4.70528 83.876 4.21328 83.946 3.64928 83.946H2.44328V87H0.829281V78.324H3.64928ZM11.0895 84.372C10.6615 84.392 10.3015 84.43 10.0095 84.486C9.71747 84.538 9.48347 84.606 9.30747 84.69C9.13147 84.774 9.00547 84.872 8.92947 84.984C8.85347 85.096 8.81547 85.218 8.81547 85.35C8.81547 85.61 8.89147 85.796 9.04347 85.908C9.19947 86.02 9.40147 86.076 9.64947 86.076C9.95347 86.076 10.2155 86.022 10.4355 85.914C10.6595 85.802 10.8775 85.634 11.0895 85.41V84.372ZM7.69347 81.702C8.40147 81.054 9.25347 80.73 10.2495 80.73C10.6095 80.73 10.9315 80.79 11.2155 80.91C11.4995 81.026 11.7395 81.19 11.9355 81.402C12.1315 81.61 12.2795 81.86 12.3795 82.152C12.4835 82.444 12.5355 82.764 12.5355 83.112V87H11.8635C11.7235 87 11.6155 86.98 11.5395 86.94C11.4635 86.896 11.4035 86.81 11.3595 86.682L11.2275 86.238C11.0715 86.378 10.9195 86.502 10.7715 86.61C10.6235 86.714 10.4695 86.802 10.3095 86.874C10.1495 86.946 9.97747 87 9.79347 87.036C9.61347 87.076 9.41347 87.096 9.19347 87.096C8.93347 87.096 8.69347 87.062 8.47347 86.994C8.25347 86.922 8.06347 86.816 7.90347 86.676C7.74347 86.536 7.61947 86.362 7.53147 86.154C7.44347 85.946 7.39947 85.704 7.39947 85.428C7.39947 85.272 7.42547 85.118 7.47747 84.966C7.52947 84.81 7.61347 84.662 7.72947 84.522C7.84947 84.382 8.00347 84.25 8.19147 84.126C8.37947 84.002 8.60947 83.894 8.88147 83.802C9.15747 83.71 9.47747 83.636 9.84147 83.58C10.2055 83.52 10.6215 83.484 11.0895 83.472V83.112C11.0895 82.7 11.0015 82.396 10.8255 82.2C10.6495 82 10.3955 81.9 10.0635 81.9C9.82347 81.9 9.62347 81.928 9.46347 81.984C9.30747 82.04 9.16947 82.104 9.04947 82.176C8.92947 82.244 8.81947 82.306 8.71947 82.362C8.62347 82.418 8.51547 82.446 8.39547 82.446C8.29147 82.446 8.20347 82.42 8.13147 82.368C8.05947 82.312 8.00147 82.248 7.95747 82.176L7.69347 81.702ZM18.3412 82.146C18.2972 82.202 18.2532 82.246 18.2092 82.278C18.1692 82.31 18.1092 82.326 18.0292 82.326C17.9532 82.326 17.8792 82.304 17.8072 82.26C17.7352 82.212 17.6492 82.16 17.5492 82.104C17.4492 82.044 17.3292 81.992 17.1892 81.948C17.0532 81.9 16.8832 81.876 16.6792 81.876C16.4192 81.876 16.1912 81.924 15.9952 82.02C15.7992 82.112 15.6352 82.246 15.5032 82.422C15.3752 82.598 15.2792 82.812 15.2152 83.064C15.1512 83.312 15.1192 83.594 15.1192 83.91C15.1192 84.238 15.1532 84.53 15.2212 84.786C15.2932 85.042 15.3952 85.258 15.5272 85.434C15.6592 85.606 15.8192 85.738 16.0072 85.83C16.1952 85.918 16.4072 85.962 16.6432 85.962C16.8792 85.962 17.0692 85.934 17.2132 85.878C17.3612 85.818 17.4852 85.754 17.5852 85.686C17.6852 85.614 17.7712 85.55 17.8432 85.494C17.9192 85.434 18.0032 85.404 18.0952 85.404C18.2152 85.404 18.3052 85.45 18.3652 85.542L18.7912 86.082C18.6272 86.274 18.4492 86.436 18.2572 86.568C18.0652 86.696 17.8652 86.8 17.6572 86.88C17.4532 86.956 17.2412 87.01 17.0212 87.042C16.8052 87.074 16.5892 87.09 16.3732 87.09C15.9932 87.09 15.6352 87.02 15.2992 86.88C14.9632 86.736 14.6692 86.528 14.4172 86.256C14.1652 85.984 13.9652 85.652 13.8172 85.26C13.6732 84.864 13.6012 84.414 13.6012 83.91C13.6012 83.458 13.6652 83.04 13.7932 82.656C13.9252 82.268 14.1172 81.934 14.3692 81.654C14.6212 81.37 14.9332 81.148 15.3052 80.988C15.6772 80.828 16.1052 80.748 16.5892 80.748C17.0492 80.748 17.4512 80.822 17.7952 80.97C18.1432 81.118 18.4552 81.33 18.7312 81.606L18.3412 82.146ZM24.0248 82.146C23.9808 82.202 23.9368 82.246 23.8928 82.278C23.8528 82.31 23.7928 82.326 23.7128 82.326C23.6368 82.326 23.5628 82.304 23.4908 82.26C23.4188 82.212 23.3328 82.16 23.2328 82.104C23.1328 82.044 23.0128 81.992 22.8728 81.948C22.7368 81.9 22.5668 81.876 22.3628 81.876C22.1028 81.876 21.8748 81.924 21.6788 82.02C21.4828 82.112 21.3188 82.246 21.1868 82.422C21.0588 82.598 20.9628 82.812 20.8988 83.064C20.8348 83.312 20.8028 83.594 20.8028 83.91C20.8028 84.238 20.8368 84.53 20.9048 84.786C20.9768 85.042 21.0788 85.258 21.2108 85.434C21.3428 85.606 21.5028 85.738 21.6908 85.83C21.8788 85.918 22.0908 85.962 22.3268 85.962C22.5628 85.962 22.7528 85.934 22.8968 85.878C23.0448 85.818 23.1688 85.754 23.2688 85.686C23.3688 85.614 23.4548 85.55 23.5268 85.494C23.6028 85.434 23.6868 85.404 23.7788 85.404C23.8988 85.404 23.9888 85.45 24.0488 85.542L24.4748 86.082C24.3108 86.274 24.1328 86.436 23.9408 86.568C23.7488 86.696 23.5488 86.8 23.3408 86.88C23.1368 86.956 22.9248 87.01 22.7048 87.042C22.4888 87.074 22.2728 87.09 22.0568 87.09C21.6768 87.09 21.3188 87.02 20.9828 86.88C20.6468 86.736 20.3528 86.528 20.1008 86.256C19.8488 85.984 19.6488 85.652 19.5008 85.26C19.3568 84.864 19.2848 84.414 19.2848 83.91C19.2848 83.458 19.3488 83.04 19.4768 82.656C19.6088 82.268 19.8008 81.934 20.0528 81.654C20.3048 81.37 20.6168 81.148 20.9888 80.988C21.3608 80.828 21.7888 80.748 22.2728 80.748C22.7328 80.748 23.1348 80.822 23.4788 80.97C23.8268 81.118 24.1388 81.33 24.4148 81.606L24.0248 82.146ZM26.8859 85.404C27.0539 85.608 27.2359 85.752 27.4319 85.836C27.6319 85.92 27.8479 85.962 28.0799 85.962C28.3039 85.962 28.5059 85.92 28.6859 85.836C28.8659 85.752 29.0179 85.624 29.1419 85.452C29.2699 85.28 29.3679 85.064 29.4359 84.804C29.5039 84.54 29.5379 84.23 29.5379 83.874C29.5379 83.514 29.5079 83.21 29.4479 82.962C29.3919 82.71 29.3099 82.506 29.2019 82.35C29.0939 82.194 28.9619 82.08 28.8059 82.008C28.6539 81.936 28.4799 81.9 28.2839 81.9C27.9759 81.9 27.7139 81.966 27.4979 82.098C27.2819 82.226 27.0779 82.408 26.8859 82.644V85.404ZM26.8079 81.684C27.0599 81.4 27.3459 81.17 27.6659 80.994C27.9859 80.818 28.3619 80.73 28.7939 80.73C29.1299 80.73 29.4359 80.8 29.7119 80.94C29.9919 81.08 30.2319 81.284 30.4319 81.552C30.6359 81.816 30.7919 82.144 30.8999 82.536C31.0119 82.924 31.0679 83.37 31.0679 83.874C31.0679 84.334 31.0059 84.76 30.8819 85.152C30.7579 85.544 30.5799 85.884 30.3479 86.172C30.1199 86.46 29.8419 86.686 29.5139 86.85C29.1899 87.01 28.8259 87.09 28.4219 87.09C28.0779 87.09 27.7839 87.038 27.5399 86.934C27.2959 86.826 27.0779 86.678 26.8859 86.49V89.01H25.4039V80.844H26.3099C26.5019 80.844 26.6279 80.934 26.6879 81.114L26.8079 81.684ZM34.9365 80.748C35.3925 80.748 35.8065 80.822 36.1785 80.97C36.5545 81.118 36.8745 81.328 37.1385 81.6C37.4065 81.872 37.6125 82.204 37.7565 82.596C37.9005 82.988 37.9725 83.426 37.9725 83.91C37.9725 84.398 37.9005 84.838 37.7565 85.23C37.6125 85.622 37.4065 85.956 37.1385 86.232C36.8745 86.508 36.5545 86.72 36.1785 86.868C35.8065 87.016 35.3925 87.09 34.9365 87.09C34.4765 87.09 34.0585 87.016 33.6825 86.868C33.3065 86.72 32.9845 86.508 32.7165 86.232C32.4525 85.956 32.2465 85.622 32.0985 85.23C31.9545 84.838 31.8825 84.398 31.8825 83.91C31.8825 83.426 31.9545 82.988 32.0985 82.596C32.2465 82.204 32.4525 81.872 32.7165 81.6C32.9845 81.328 33.3065 81.118 33.6825 80.97C34.0585 80.822 34.4765 80.748 34.9365 80.748ZM34.9365 85.95C35.4485 85.95 35.8265 85.778 36.0705 85.434C36.3185 85.09 36.4425 84.586 36.4425 83.922C36.4425 83.258 36.3185 82.752 36.0705 82.404C35.8265 82.056 35.4485 81.882 34.9365 81.882C34.4165 81.882 34.0305 82.058 33.7785 82.41C33.5305 82.758 33.4065 83.262 33.4065 83.922C33.4065 84.582 33.5305 85.086 33.7785 85.434C34.0305 85.778 34.4165 85.95 34.9365 85.95ZM43.9631 80.844V87H42.4811V84.582C41.9531 84.71 41.4631 84.784 41.0111 84.804C40.5591 84.82 40.1671 84.766 39.8351 84.642C39.5071 84.514 39.2491 84.308 39.0611 84.024C38.8771 83.74 38.7851 83.362 38.7851 82.89V80.844H40.2671V82.662C40.2671 82.914 40.3071 83.118 40.3871 83.274C40.4711 83.426 40.6011 83.536 40.7771 83.604C40.9571 83.672 41.1871 83.7 41.4671 83.688C41.7471 83.676 42.0851 83.63 42.4811 83.55V80.844H43.9631ZM49.1092 81.234C49.1812 81.118 49.2792 81.024 49.4032 80.952C49.5272 80.88 49.6592 80.844 49.7992 80.844H50.9632L49.5292 83.13C49.4292 83.29 49.3272 83.42 49.2232 83.52C49.1192 83.616 48.9932 83.692 48.8452 83.748C49.0452 83.808 49.2092 83.898 49.3372 84.018C49.4652 84.134 49.5812 84.282 49.6852 84.462L51.1252 87H50.0992C49.8392 87 49.6372 86.956 49.4932 86.868C49.3492 86.78 49.2272 86.654 49.1272 86.49L48.2212 84.786C48.1412 84.638 48.0372 84.528 47.9092 84.456C47.7852 84.384 47.6392 84.348 47.4712 84.348H46.9132V87H45.4312V80.844H46.9132V83.382H47.3932C47.5612 83.382 47.6952 83.352 47.7952 83.292C47.8992 83.228 47.9872 83.132 48.0592 83.004L49.1092 81.234ZM55.1988 84.372C54.7708 84.392 54.4108 84.43 54.1188 84.486C53.8268 84.538 53.5928 84.606 53.4168 84.69C53.2408 84.774 53.1148 84.872 53.0388 84.984C52.9628 85.096 52.9248 85.218 52.9248 85.35C52.9248 85.61 53.0008 85.796 53.1528 85.908C53.3088 86.02 53.5108 86.076 53.7588 86.076C54.0628 86.076 54.3248 86.022 54.5448 85.914C54.7688 85.802 54.9868 85.634 55.1988 85.41V84.372ZM51.8028 81.702C52.5108 81.054 53.3628 80.73 54.3588 80.73C54.7188 80.73 55.0408 80.79 55.3248 80.91C55.6088 81.026 55.8488 81.19 56.0448 81.402C56.2408 81.61 56.3888 81.86 56.4888 82.152C56.5928 82.444 56.6448 82.764 56.6448 83.112V87H55.9728C55.8328 87 55.7248 86.98 55.6488 86.94C55.5728 86.896 55.5128 86.81 55.4688 86.682L55.3368 86.238C55.1808 86.378 55.0288 86.502 54.8808 86.61C54.7328 86.714 54.5788 86.802 54.4188 86.874C54.2588 86.946 54.0868 87 53.9028 87.036C53.7228 87.076 53.5228 87.096 53.3028 87.096C53.0428 87.096 52.8028 87.062 52.5828 86.994C52.3628 86.922 52.1728 86.816 52.0128 86.676C51.8528 86.536 51.7288 86.362 51.6408 86.154C51.5528 85.946 51.5088 85.704 51.5088 85.428C51.5088 85.272 51.5348 85.118 51.5868 84.966C51.6388 84.81 51.7228 84.662 51.8388 84.522C51.9588 84.382 52.1128 84.25 52.3008 84.126C52.4888 84.002 52.7188 83.894 52.9908 83.802C53.2668 83.71 53.5868 83.636 53.9508 83.58C54.3148 83.52 54.7308 83.484 55.1988 83.472V83.112C55.1988 82.7 55.1108 82.396 54.9348 82.2C54.7588 82 54.5048 81.9 54.1728 81.9C53.9328 81.9 53.7328 81.928 53.5728 81.984C53.4168 82.04 53.2788 82.104 53.1588 82.176C53.0388 82.244 52.9288 82.306 52.8288 82.362C52.7328 82.418 52.6248 82.446 52.5048 82.446C52.4008 82.446 52.3128 82.42 52.2408 82.368C52.1688 82.312 52.1108 82.248 52.0668 82.176L51.8028 81.702ZM64.4986 83.73V80.892C64.4986 80.624 64.5166 80.328 64.5526 80.004L61.8586 83.73H64.4986ZM66.8806 83.73V84.588C66.8806 84.668 66.8546 84.738 66.8026 84.798C66.7506 84.854 66.6766 84.882 66.5806 84.882H65.7886V87H64.4986V84.882H60.8386C60.7386 84.882 60.6506 84.852 60.5746 84.792C60.4986 84.728 60.4506 84.65 60.4306 84.558L60.2746 83.808L64.3846 78.318H65.7886V83.73H66.8806ZM77.9715 80.832V87H76.6335V83.568C76.6335 83.428 76.6395 83.27 76.6515 83.094C76.6675 82.918 76.6915 82.754 76.7235 82.602L74.9115 85.926C74.8235 86.098 74.6835 86.184 74.4915 86.184H74.3355C74.1435 86.184 74.0035 86.098 73.9155 85.926L72.0795 82.584C72.1075 82.736 72.1295 82.902 72.1455 83.082C72.1655 83.262 72.1755 83.424 72.1755 83.568V87H70.8375V80.832H72.0615C72.1655 80.832 72.2675 80.854 72.3675 80.898C72.4715 80.942 72.5575 81.03 72.6255 81.162L74.0775 83.754C74.1415 83.874 74.2015 84.002 74.2575 84.138C74.3135 84.27 74.3655 84.404 74.4135 84.54C74.4615 84.404 74.5115 84.268 74.5635 84.132C74.6195 83.996 74.6795 83.87 74.7435 83.754L76.1835 81.162C76.2555 81.026 76.3415 80.938 76.4415 80.898C76.5415 80.854 76.6435 80.832 76.7475 80.832H77.9715ZM83.405 83.214C83.405 83.022 83.377 82.842 83.321 82.674C83.269 82.502 83.189 82.352 83.081 82.224C82.973 82.096 82.835 81.996 82.667 81.924C82.503 81.848 82.311 81.81 82.091 81.81C81.663 81.81 81.325 81.932 81.077 82.176C80.833 82.42 80.677 82.766 80.609 83.214H83.405ZM80.579 84.108C80.603 84.424 80.659 84.698 80.747 84.93C80.835 85.158 80.951 85.348 81.095 85.5C81.239 85.648 81.409 85.76 81.605 85.836C81.805 85.908 82.025 85.944 82.265 85.944C82.505 85.944 82.711 85.916 82.883 85.86C83.059 85.804 83.211 85.742 83.339 85.674C83.471 85.606 83.585 85.544 83.681 85.488C83.781 85.432 83.877 85.404 83.969 85.404C84.093 85.404 84.185 85.45 84.245 85.542L84.671 86.082C84.507 86.274 84.323 86.436 84.119 86.568C83.915 86.696 83.701 86.8 83.477 86.88C83.257 86.956 83.031 87.01 82.799 87.042C82.571 87.074 82.349 87.09 82.133 87.09C81.705 87.09 81.307 87.02 80.939 86.88C80.571 86.736 80.251 86.526 79.979 86.25C79.707 85.97 79.493 85.626 79.337 85.218C79.181 84.806 79.103 84.33 79.103 83.79C79.103 83.37 79.171 82.976 79.307 82.608C79.443 82.236 79.637 81.914 79.889 81.642C80.145 81.366 80.455 81.148 80.819 80.988C81.187 80.828 81.601 80.748 82.061 80.748C82.449 80.748 82.807 80.81 83.135 80.934C83.463 81.058 83.745 81.24 83.981 81.48C84.217 81.716 84.401 82.008 84.533 82.356C84.669 82.7 84.737 83.094 84.737 83.538C84.737 83.762 84.713 83.914 84.665 83.994C84.617 84.07 84.525 84.108 84.389 84.108H80.579ZM90.2592 82.146C90.2152 82.202 90.1712 82.246 90.1272 82.278C90.0872 82.31 90.0272 82.326 89.9472 82.326C89.8712 82.326 89.7972 82.304 89.7252 82.26C89.6532 82.212 89.5672 82.16 89.4672 82.104C89.3672 82.044 89.2472 81.992 89.1072 81.948C88.9712 81.9 88.8012 81.876 88.5972 81.876C88.3372 81.876 88.1092 81.924 87.9132 82.02C87.7172 82.112 87.5532 82.246 87.4212 82.422C87.2932 82.598 87.1972 82.812 87.1332 83.064C87.0692 83.312 87.0372 83.594 87.0372 83.91C87.0372 84.238 87.0712 84.53 87.1392 84.786C87.2112 85.042 87.3132 85.258 87.4452 85.434C87.5772 85.606 87.7372 85.738 87.9252 85.83C88.1132 85.918 88.3252 85.962 88.5612 85.962C88.7972 85.962 88.9872 85.934 89.1312 85.878C89.2792 85.818 89.4032 85.754 89.5032 85.686C89.6032 85.614 89.6892 85.55 89.7612 85.494C89.8372 85.434 89.9212 85.404 90.0132 85.404C90.1332 85.404 90.2232 85.45 90.2832 85.542L90.7092 86.082C90.5452 86.274 90.3672 86.436 90.1752 86.568C89.9832 86.696 89.7832 86.8 89.5752 86.88C89.3712 86.956 89.1592 87.01 88.9392 87.042C88.7232 87.074 88.5072 87.09 88.2912 87.09C87.9112 87.09 87.5532 87.02 87.2172 86.88C86.8812 86.736 86.5872 86.528 86.3352 86.256C86.0832 85.984 85.8832 85.652 85.7352 85.26C85.5912 84.864 85.5192 84.414 85.5192 83.91C85.5192 83.458 85.5832 83.04 85.7112 82.656C85.8432 82.268 86.0352 81.934 86.2872 81.654C86.5392 81.37 86.8512 81.148 87.2232 80.988C87.5952 80.828 88.0232 80.748 88.5072 80.748C88.9672 80.748 89.3692 80.822 89.7132 80.97C90.0612 81.118 90.3732 81.33 90.6492 81.606L90.2592 82.146ZM91.4223 86.184C91.4223 86.06 91.4443 85.942 91.4883 85.83C91.5363 85.718 91.6003 85.622 91.6803 85.542C91.7603 85.462 91.8563 85.398 91.9683 85.35C92.0803 85.302 92.2003 85.278 92.3283 85.278C92.4563 85.278 92.5743 85.302 92.6823 85.35C92.7943 85.398 92.8903 85.462 92.9703 85.542C93.0543 85.622 93.1203 85.718 93.1683 85.83C93.2163 85.942 93.2403 86.06 93.2403 86.184C93.2403 86.312 93.2163 86.432 93.1683 86.544C93.1203 86.652 93.0543 86.746 92.9703 86.826C92.8903 86.906 92.7943 86.968 92.6823 87.012C92.5743 87.06 92.4563 87.084 92.3283 87.084C92.2003 87.084 92.0803 87.06 91.9683 87.012C91.8563 86.968 91.7603 86.906 91.6803 86.826C91.6003 86.746 91.5363 86.652 91.4883 86.544C91.4443 86.432 91.4223 86.312 91.4223 86.184ZM95.5179 87.018C95.4499 87.202 95.3399 87.34 95.1879 87.432C95.0399 87.524 94.8879 87.57 94.7319 87.57H94.1019L97.6059 78.606C97.6699 78.438 97.7679 78.31 97.8999 78.222C98.0319 78.13 98.1859 78.084 98.3619 78.084H98.9979L95.5179 87.018ZM106.004 82.662C106.004 83.418 105.922 84.076 105.758 84.636C105.598 85.192 105.374 85.652 105.086 86.016C104.802 86.38 104.464 86.652 104.072 86.832C103.684 87.008 103.264 87.096 102.812 87.096C102.36 87.096 101.94 87.008 101.552 86.832C101.168 86.652 100.834 86.38 100.55 86.016C100.266 85.652 100.044 85.192 99.8838 84.636C99.7238 84.076 99.6438 83.418 99.6438 82.662C99.6438 81.902 99.7238 81.244 99.8838 80.688C100.044 80.132 100.266 79.672 100.55 79.308C100.834 78.944 101.168 78.674 101.552 78.498C101.94 78.318 102.36 78.228 102.812 78.228C103.264 78.228 103.684 78.318 104.072 78.498C104.464 78.674 104.802 78.944 105.086 79.308C105.374 79.672 105.598 80.132 105.758 80.688C105.922 81.244 106.004 81.902 106.004 82.662ZM104.474 82.662C104.474 82.034 104.428 81.514 104.336 81.102C104.244 80.69 104.12 80.362 103.964 80.118C103.812 79.874 103.636 79.704 103.436 79.608C103.236 79.508 103.028 79.458 102.812 79.458C102.6 79.458 102.394 79.508 102.194 79.608C101.998 79.704 101.824 79.874 101.672 80.118C101.52 80.362 101.398 80.69 101.306 81.102C101.218 81.514 101.174 82.034 101.174 82.662C101.174 83.29 101.218 83.81 101.306 84.222C101.398 84.634 101.52 84.962 101.672 85.206C101.824 85.45 101.998 85.622 102.194 85.722C102.394 85.818 102.6 85.866 102.812 85.866C103.028 85.866 103.236 85.818 103.436 85.722C103.636 85.622 103.812 85.45 103.964 85.206C104.12 84.962 104.244 84.634 104.336 84.222C104.428 83.81 104.474 83.29 104.474 82.662ZM110.775 80.424C110.775 80.752 110.719 81.048 110.607 81.312C110.499 81.576 110.353 81.802 110.169 81.99C109.985 82.174 109.771 82.316 109.527 82.416C109.283 82.516 109.029 82.566 108.765 82.566C108.477 82.566 108.211 82.516 107.967 82.416C107.723 82.316 107.511 82.174 107.331 81.99C107.155 81.802 107.017 81.576 106.917 81.312C106.817 81.048 106.767 80.752 106.767 80.424C106.767 80.088 106.817 79.784 106.917 79.512C107.017 79.24 107.155 79.01 107.331 78.822C107.511 78.634 107.723 78.49 107.967 78.39C108.211 78.286 108.477 78.234 108.765 78.234C109.053 78.234 109.319 78.286 109.563 78.39C109.811 78.49 110.025 78.634 110.205 78.822C110.385 79.01 110.525 79.24 110.625 79.512C110.725 79.784 110.775 80.088 110.775 80.424ZM109.635 80.424C109.635 80.192 109.611 79.998 109.563 79.842C109.519 79.686 109.457 79.56 109.377 79.464C109.301 79.368 109.209 79.3 109.101 79.26C108.997 79.216 108.885 79.194 108.765 79.194C108.645 79.194 108.533 79.216 108.429 79.26C108.325 79.3 108.235 79.368 108.159 79.464C108.087 79.56 108.029 79.686 107.985 79.842C107.941 79.998 107.919 80.192 107.919 80.424C107.919 80.648 107.941 80.836 107.985 80.988C108.029 81.136 108.087 81.256 108.159 81.348C108.235 81.44 108.325 81.506 108.429 81.546C108.533 81.586 108.645 81.606 108.765 81.606C108.885 81.606 108.997 81.586 109.101 81.546C109.209 81.506 109.301 81.44 109.377 81.348C109.457 81.256 109.519 81.136 109.563 80.988C109.611 80.836 109.635 80.648 109.635 80.424ZM113.661 78.558C113.713 78.498 113.773 78.444 113.841 78.396C113.913 78.348 114.013 78.324 114.141 78.324H115.221L108.777 86.778C108.725 86.842 108.663 86.896 108.591 86.94C108.519 86.98 108.431 87 108.327 87H107.223L113.661 78.558ZM115.677 84.96C115.677 85.288 115.621 85.584 115.509 85.848C115.401 86.112 115.255 86.338 115.071 86.526C114.887 86.71 114.673 86.854 114.429 86.958C114.185 87.058 113.931 87.108 113.667 87.108C113.379 87.108 113.113 87.058 112.869 86.958C112.625 86.854 112.413 86.71 112.233 86.526C112.057 86.338 111.919 86.112 111.819 85.848C111.719 85.584 111.669 85.288 111.669 84.96C111.669 84.624 111.719 84.32 111.819 84.048C111.919 83.776 112.057 83.546 112.233 83.358C112.413 83.17 112.625 83.026 112.869 82.926C113.113 82.822 113.379 82.77 113.667 82.77C113.955 82.77 114.221 82.822 114.465 82.926C114.713 83.026 114.925 83.17 115.101 83.358C115.281 83.546 115.421 83.776 115.521 84.048C115.625 84.32 115.677 84.624 115.677 84.96ZM114.531 84.96C114.531 84.728 114.509 84.534 114.465 84.378C114.421 84.222 114.359 84.096 114.279 84C114.203 83.904 114.111 83.836 114.003 83.796C113.899 83.752 113.787 83.73 113.667 83.73C113.547 83.73 113.435 83.752 113.331 83.796C113.227 83.836 113.137 83.904 113.061 84C112.985 84.096 112.925 84.222 112.881 84.378C112.841 84.534 112.821 84.728 112.821 84.96C112.821 85.184 112.841 85.372 112.881 85.524C112.925 85.676 112.985 85.798 113.061 85.89C113.137 85.982 113.227 86.048 113.331 86.088C113.435 86.128 113.547 86.148 113.667 86.148C113.787 86.148 113.899 86.128 114.003 86.088C114.111 86.048 114.203 85.982 114.279 85.89C114.359 85.798 114.421 85.676 114.465 85.524C114.509 85.372 114.531 85.184 114.531 84.96ZM24.4111 98.01C24.9231 98.01 25.3051 97.846 25.5571 97.518C25.8091 97.19 25.9351 96.71 25.9351 96.078C25.9351 95.45 25.8111 94.972 25.5631 94.644C25.3191 94.316 24.9451 94.152 24.4411 94.152C23.9371 94.152 23.5531 94.308 23.2891 94.62C23.0251 94.928 22.8931 95.39 22.8931 96.006C22.8931 96.658 23.0171 97.156 23.2651 97.5C23.5171 97.84 23.8991 98.01 24.4111 98.01ZM24.8431 91.728C24.4671 91.752 24.1451 91.826 23.8771 91.95C23.6131 92.07 23.3931 92.234 23.2171 92.442C23.0451 92.646 22.9131 92.892 22.8211 93.18C22.7331 93.464 22.6811 93.78 22.6651 94.128C22.7651 93.972 22.8871 93.83 23.0311 93.702C23.1791 93.57 23.3431 93.458 23.5231 93.366C23.7071 93.27 23.9051 93.196 24.1171 93.144C24.3331 93.092 24.5631 93.066 24.8071 93.066C25.2151 93.066 25.5831 93.138 25.9111 93.282C26.2391 93.426 26.5171 93.63 26.7451 93.894C26.9771 94.158 27.1531 94.476 27.2731 94.848C27.3971 95.216 27.4591 95.624 27.4591 96.072C27.4591 96.536 27.3851 96.954 27.2371 97.326C27.0931 97.698 26.8871 98.016 26.6191 98.28C26.3551 98.54 26.0351 98.74 25.6591 98.88C25.2831 99.02 24.8671 99.09 24.4111 99.09C23.9671 99.09 23.5571 99.018 23.1811 98.874C22.8091 98.73 22.4871 98.496 22.2151 98.172C21.9431 97.848 21.7311 97.428 21.5791 96.912C21.4271 96.392 21.3511 95.758 21.3511 95.01C21.3511 94.382 21.4091 93.798 21.5251 93.258C21.6411 92.718 21.8311 92.246 22.0951 91.842C22.3591 91.434 22.7051 91.106 23.1331 90.858C23.5611 90.61 24.0891 90.462 24.7171 90.414L26.9071 90.246L26.9851 91.014C27.0011 91.178 26.9771 91.318 26.9131 91.434C26.8491 91.546 26.7351 91.606 26.5711 91.614L24.8431 91.728ZM32.575 95.214C32.575 95.022 32.547 94.842 32.491 94.674C32.439 94.502 32.359 94.352 32.251 94.224C32.143 94.096 32.005 93.996 31.837 93.924C31.673 93.848 31.481 93.81 31.261 93.81C30.833 93.81 30.495 93.932 30.247 94.176C30.003 94.42 29.847 94.766 29.779 95.214H32.575ZM29.749 96.108C29.773 96.424 29.829 96.698 29.917 96.93C30.005 97.158 30.121 97.348 30.265 97.5C30.409 97.648 30.579 97.76 30.775 97.836C30.975 97.908 31.195 97.944 31.435 97.944C31.675 97.944 31.881 97.916 32.053 97.86C32.229 97.804 32.381 97.742 32.509 97.674C32.641 97.606 32.755 97.544 32.851 97.488C32.951 97.432 33.047 97.404 33.139 97.404C33.263 97.404 33.355 97.45 33.415 97.542L33.841 98.082C33.677 98.274 33.493 98.436 33.289 98.568C33.085 98.696 32.871 98.8 32.647 98.88C32.427 98.956 32.201 99.01 31.969 99.042C31.741 99.074 31.519 99.09 31.303 99.09C30.875 99.09 30.477 99.02 30.109 98.88C29.741 98.736 29.421 98.526 29.149 98.25C28.877 97.97 28.663 97.626 28.507 97.218C28.351 96.806 28.273 96.33 28.273 95.79C28.273 95.37 28.341 94.976 28.477 94.608C28.613 94.236 28.807 93.914 29.059 93.642C29.315 93.366 29.625 93.148 29.989 92.988C30.357 92.828 30.771 92.748 31.231 92.748C31.619 92.748 31.977 92.81 32.305 92.934C32.633 93.058 32.915 93.24 33.151 93.48C33.387 93.716 33.571 94.008 33.703 94.356C33.839 94.7 33.907 95.094 33.907 95.538C33.907 95.762 33.883 95.914 33.835 95.994C33.787 96.07 33.695 96.108 33.559 96.108H29.749ZM34.6591 93.51C34.8911 93.286 35.1791 93.104 35.5231 92.964C35.8671 92.82 36.2791 92.748 36.7591 92.748C37.1391 92.748 37.4771 92.794 37.7731 92.886C38.0691 92.974 38.3171 93.096 38.5171 93.252C38.7211 93.404 38.8751 93.58 38.9791 93.78C39.0871 93.976 39.1411 94.182 39.1411 94.398C39.1411 94.514 39.1231 94.636 39.0871 94.764C39.0551 94.888 38.9991 95.01 38.9191 95.13C38.8431 95.25 38.7411 95.362 38.6131 95.466C38.4851 95.566 38.3271 95.652 38.1391 95.724C38.4751 95.852 38.7451 96.04 38.9491 96.288C39.1571 96.536 39.2611 96.842 39.2611 97.206C39.2611 97.506 39.1911 97.772 39.0511 98.004C38.9151 98.236 38.7331 98.434 38.5051 98.598C38.2771 98.758 38.0151 98.88 37.7191 98.964C37.4271 99.048 37.1251 99.09 36.8131 99.09C36.6371 99.09 36.4471 99.074 36.2431 99.042C36.0431 99.01 35.8411 98.956 35.6371 98.88C35.4331 98.8 35.2331 98.696 35.0371 98.568C34.8411 98.436 34.6631 98.274 34.5031 98.082L34.9291 97.542C34.9891 97.45 35.0791 97.404 35.1991 97.404C35.2911 97.404 35.3791 97.434 35.4631 97.494C35.5471 97.55 35.6431 97.614 35.7511 97.686C35.8631 97.754 35.9951 97.818 36.1471 97.878C36.2991 97.934 36.4891 97.962 36.7171 97.962C37.0891 97.962 37.3711 97.878 37.5631 97.71C37.7551 97.542 37.8511 97.332 37.8511 97.08C37.8511 96.832 37.7511 96.638 37.5511 96.498C37.3551 96.358 37.0351 96.288 36.5911 96.288H35.8951V95.322H36.5911C36.9791 95.322 37.2771 95.254 37.4851 95.118C37.6931 94.982 37.7971 94.802 37.7971 94.578C37.7971 94.374 37.7051 94.206 37.5211 94.074C37.3411 93.942 37.0731 93.876 36.7171 93.876C36.5051 93.876 36.3251 93.898 36.1771 93.942C36.0291 93.986 35.9011 94.034 35.7931 94.086C35.6891 94.134 35.6011 94.18 35.5291 94.224C35.4571 94.268 35.3891 94.29 35.3251 94.29C35.2571 94.29 35.1991 94.278 35.1511 94.254C35.1031 94.226 35.0511 94.168 34.9951 94.08L34.6591 93.51ZM48.7034 99H47.2214V93.942H44.8214V99H43.3394V92.844H48.7034V99ZM54.1375 95.214C54.1375 95.022 54.1095 94.842 54.0535 94.674C54.0015 94.502 53.9215 94.352 53.8135 94.224C53.7055 94.096 53.5675 93.996 53.3995 93.924C53.2355 93.848 53.0435 93.81 52.8235 93.81C52.3955 93.81 52.0575 93.932 51.8095 94.176C51.5655 94.42 51.4095 94.766 51.3415 95.214H54.1375ZM51.3115 96.108C51.3355 96.424 51.3915 96.698 51.4795 96.93C51.5675 97.158 51.6835 97.348 51.8275 97.5C51.9715 97.648 52.1415 97.76 52.3375 97.836C52.5375 97.908 52.7575 97.944 52.9975 97.944C53.2375 97.944 53.4435 97.916 53.6155 97.86C53.7915 97.804 53.9435 97.742 54.0715 97.674C54.2035 97.606 54.3175 97.544 54.4135 97.488C54.5135 97.432 54.6095 97.404 54.7015 97.404C54.8255 97.404 54.9175 97.45 54.9775 97.542L55.4035 98.082C55.2395 98.274 55.0555 98.436 54.8515 98.568C54.6475 98.696 54.4335 98.8 54.2095 98.88C53.9895 98.956 53.7635 99.01 53.5315 99.042C53.3035 99.074 53.0815 99.09 52.8655 99.09C52.4375 99.09 52.0395 99.02 51.6715 98.88C51.3035 98.736 50.9835 98.526 50.7115 98.25C50.4395 97.97 50.2255 97.626 50.0695 97.218C49.9135 96.806 49.8355 96.33 49.8355 95.79C49.8355 95.37 49.9035 94.976 50.0395 94.608C50.1755 94.236 50.3695 93.914 50.6215 93.642C50.8775 93.366 51.1875 93.148 51.5515 92.988C51.9195 92.828 52.3335 92.748 52.7935 92.748C53.1815 92.748 53.5395 92.81 53.8675 92.934C54.1955 93.058 54.4775 93.24 54.7135 93.48C54.9495 93.716 55.1335 94.008 55.2655 94.356C55.4015 94.7 55.4695 95.094 55.4695 95.538C55.4695 95.762 55.4455 95.914 55.3975 95.994C55.3495 96.07 55.2575 96.108 55.1215 96.108H51.3115ZM58.0636 97.404C58.2316 97.608 58.4136 97.752 58.6096 97.836C58.8096 97.92 59.0256 97.962 59.2576 97.962C59.4816 97.962 59.6836 97.92 59.8636 97.836C60.0436 97.752 60.1956 97.624 60.3196 97.452C60.4476 97.28 60.5456 97.064 60.6136 96.804C60.6816 96.54 60.7156 96.23 60.7156 95.874C60.7156 95.514 60.6856 95.21 60.6256 94.962C60.5696 94.71 60.4876 94.506 60.3796 94.35C60.2716 94.194 60.1396 94.08 59.9836 94.008C59.8316 93.936 59.6576 93.9 59.4616 93.9C59.1536 93.9 58.8916 93.966 58.6756 94.098C58.4596 94.226 58.2556 94.408 58.0636 94.644V97.404ZM57.9856 93.684C58.2376 93.4 58.5236 93.17 58.8436 92.994C59.1636 92.818 59.5396 92.73 59.9716 92.73C60.3076 92.73 60.6136 92.8 60.8896 92.94C61.1696 93.08 61.4096 93.284 61.6096 93.552C61.8136 93.816 61.9696 94.144 62.0776 94.536C62.1896 94.924 62.2456 95.37 62.2456 95.874C62.2456 96.334 62.1836 96.76 62.0596 97.152C61.9356 97.544 61.7576 97.884 61.5256 98.172C61.2976 98.46 61.0196 98.686 60.6916 98.85C60.3676 99.01 60.0036 99.09 59.5996 99.09C59.2556 99.09 58.9616 99.038 58.7176 98.934C58.4736 98.826 58.2556 98.678 58.0636 98.49V101.01H56.5816V92.844H57.4876C57.6796 92.844 57.8056 92.934 57.8656 93.114L57.9856 93.684ZM67.3562 95.214C67.3562 95.022 67.3282 94.842 67.2722 94.674C67.2202 94.502 67.1402 94.352 67.0322 94.224C66.9242 94.096 66.7862 93.996 66.6182 93.924C66.4542 93.848 66.2622 93.81 66.0422 93.81C65.6142 93.81 65.2762 93.932 65.0282 94.176C64.7842 94.42 64.6282 94.766 64.5602 95.214H67.3562ZM64.5302 96.108C64.5542 96.424 64.6102 96.698 64.6982 96.93C64.7862 97.158 64.9022 97.348 65.0462 97.5C65.1902 97.648 65.3602 97.76 65.5562 97.836C65.7562 97.908 65.9762 97.944 66.2162 97.944C66.4562 97.944 66.6622 97.916 66.8342 97.86C67.0102 97.804 67.1622 97.742 67.2902 97.674C67.4222 97.606 67.5362 97.544 67.6322 97.488C67.7322 97.432 67.8282 97.404 67.9202 97.404C68.0442 97.404 68.1362 97.45 68.1962 97.542L68.6222 98.082C68.4582 98.274 68.2742 98.436 68.0702 98.568C67.8662 98.696 67.6522 98.8 67.4282 98.88C67.2082 98.956 66.9822 99.01 66.7502 99.042C66.5222 99.074 66.3002 99.09 66.0842 99.09C65.6562 99.09 65.2582 99.02 64.8902 98.88C64.5222 98.736 64.2022 98.526 63.9302 98.25C63.6582 97.97 63.4442 97.626 63.2882 97.218C63.1322 96.806 63.0542 96.33 63.0542 95.79C63.0542 95.37 63.1222 94.976 63.2582 94.608C63.3942 94.236 63.5882 93.914 63.8402 93.642C64.0962 93.366 64.4062 93.148 64.7702 92.988C65.1382 92.828 65.5522 92.748 66.0122 92.748C66.4002 92.748 66.7582 92.81 67.0862 92.934C67.4142 93.058 67.6962 93.24 67.9322 93.48C68.1682 93.716 68.3522 94.008 68.4842 94.356C68.6202 94.7 68.6882 95.094 68.6882 95.538C68.6882 95.762 68.6642 95.914 68.6162 95.994C68.5682 96.07 68.4762 96.108 68.3402 96.108H64.5302ZM75.1644 99H73.6824V93.942H71.2824V99H69.8004V92.844H75.1644V99ZM82.3444 99H80.8624V93.978H79.3504C79.3024 94.734 79.2284 95.386 79.1284 95.934C79.0284 96.478 78.9084 96.94 78.7684 97.32C78.6324 97.7 78.4784 98.006 78.3064 98.238C78.1384 98.466 77.9584 98.644 77.7664 98.772C77.5744 98.9 77.3764 98.984 77.1724 99.024C76.9684 99.068 76.7624 99.09 76.5544 99.09C76.3344 99.09 76.1724 99.07 76.0684 99.03C75.9684 98.994 75.9184 98.942 75.9184 98.874V97.95H76.2724C76.4044 97.95 76.5364 97.93 76.6684 97.89C76.8004 97.85 76.9284 97.768 77.0524 97.644C77.1764 97.52 77.2944 97.344 77.4064 97.116C77.5184 96.884 77.6204 96.58 77.7124 96.204C77.8084 95.824 77.8924 95.36 77.9644 94.812C78.0364 94.264 78.0924 93.608 78.1324 92.844H82.3444V99ZM87.0563 96.372C86.6283 96.392 86.2683 96.43 85.9763 96.486C85.6843 96.538 85.4503 96.606 85.2743 96.69C85.0983 96.774 84.9723 96.872 84.8963 96.984C84.8203 97.096 84.7823 97.218 84.7823 97.35C84.7823 97.61 84.8583 97.796 85.0103 97.908C85.1663 98.02 85.3683 98.076 85.6163 98.076C85.9203 98.076 86.1823 98.022 86.4023 97.914C86.6263 97.802 86.8443 97.634 87.0563 97.41V96.372ZM83.6603 93.702C84.3683 93.054 85.2203 92.73 86.2163 92.73C86.5763 92.73 86.8983 92.79 87.1823 92.91C87.4663 93.026 87.7063 93.19 87.9023 93.402C88.0983 93.61 88.2463 93.86 88.3463 94.152C88.4503 94.444 88.5023 94.764 88.5023 95.112V99H87.8303C87.6903 99 87.5823 98.98 87.5063 98.94C87.4303 98.896 87.3703 98.81 87.3263 98.682L87.1943 98.238C87.0383 98.378 86.8863 98.502 86.7383 98.61C86.5903 98.714 86.4363 98.802 86.2763 98.874C86.1163 98.946 85.9443 99 85.7603 99.036C85.5803 99.076 85.3803 99.096 85.1603 99.096C84.9003 99.096 84.6603 99.062 84.4403 98.994C84.2203 98.922 84.0303 98.816 83.8703 98.676C83.7103 98.536 83.5863 98.362 83.4983 98.154C83.4103 97.946 83.3663 97.704 83.3663 97.428C83.3663 97.272 83.3923 97.118 83.4443 96.966C83.4963 96.81 83.5803 96.662 83.6963 96.522C83.8163 96.382 83.9703 96.25 84.1583 96.126C84.3463 96.002 84.5763 95.894 84.8483 95.802C85.1243 95.71 85.4443 95.636 85.8083 95.58C86.1723 95.52 86.5883 95.484 87.0563 95.472V95.112C87.0563 94.7 86.9683 94.396 86.7923 94.2C86.6163 94 86.3623 93.9 86.0303 93.9C85.7903 93.9 85.5903 93.928 85.4303 93.984C85.2743 94.04 85.1363 94.104 85.0163 94.176C84.8963 94.244 84.7863 94.306 84.6863 94.362C84.5903 94.418 84.4823 94.446 84.3623 94.446C84.2583 94.446 84.1703 94.42 84.0983 94.368C84.0263 94.312 83.9683 94.248 83.9243 94.176L83.6603 93.702ZM95.0725 93.942H92.8765V99H91.3945V93.942H89.2045V92.844H95.0725V93.942Z" fill="#060F42"/>
</svg>
