<svg width="110" height="110" viewBox="0 0 110 110" fill="none" xmlns="http://www.w3.org/2000/svg">
<g clip-path="url(#clip0_6924_6557)">
<path d="M66.2837 66.7873C66.2837 68.2684 64.7299 69.2356 63.4009 68.5819L55.8538 64.8696C55.2958 64.5951 54.6419 64.5958 54.0844 64.8715L46.6015 68.5723C45.2722 69.2297 43.7148 68.2625 43.7148 66.7796V43.0825C43.7148 42.3673 44.0968 41.7065 44.7165 41.3495L53.973 36.0169C54.5895 35.6618 55.3483 35.6609 55.9657 36.0146L65.278 41.3503C65.9 41.7067 66.2837 42.3687 66.2837 43.0856V66.7873Z" fill="#01579B"/>
<path d="M54.9686 60.5805C53.8066 60.5805 53.0114 59.7242 52.3387 58.9902C52.094 58.7456 51.6047 58.2563 51.4212 58.1951C51.2377 58.1951 50.6873 58.5009 50.3203 58.6844C49.5864 59.0514 48.8524 59.4795 48.0573 59.4795C47.8127 59.4795 47.568 59.4184 47.3845 59.3572C46.2836 58.9902 45.7943 57.9505 45.3662 57.0331C45.1827 56.6661 44.9381 56.1156 44.7546 55.9933C44.7546 55.9933 44.6934 55.9933 44.5711 55.9933C44.2653 55.9933 43.8983 56.0545 43.5313 56.1156C43.042 56.1768 42.5527 56.2991 42.0634 56.2991C41.4518 56.2991 40.9014 56.1768 40.4732 55.8098C39.5558 55.137 39.3723 53.975 39.25 52.9964C39.1888 52.6294 39.1277 51.9566 39.0053 51.7731C38.883 51.6508 38.2102 51.5896 37.8432 51.5285C36.8647 51.4061 35.7026 51.2227 35.0298 50.3052C34.357 49.3878 34.5405 48.2869 34.724 47.2471C34.7851 46.8802 34.9075 46.2074 34.8463 46.0239C34.724 45.9016 34.1735 45.5957 33.8066 45.4123C32.9503 44.9841 31.8494 44.4948 31.4824 43.3939C31.1154 42.3542 31.6659 41.3144 32.1552 40.4581C32.3387 40.0912 32.6445 39.5407 32.6445 39.2961C32.5833 39.1126 32.1552 38.6844 31.8494 38.4398C31.1766 37.8893 30.3203 37.0331 30.3203 35.871C30.3203 34.7089 31.1766 33.9138 31.9105 33.241C32.2163 32.9964 32.6445 32.5071 32.7056 32.3236C32.7056 32.1401 32.3998 31.5896 32.2163 31.2227C31.727 30.3052 31.1766 29.3266 31.5436 28.2869C31.9105 27.186 32.9503 26.6967 33.8677 26.2685C34.2347 26.085 34.7851 25.8404 34.9075 25.6569C34.9686 25.4734 34.8463 24.8618 34.7851 24.4337C34.6017 23.4551 34.4182 22.293 35.091 21.3756C35.7637 20.4581 36.9258 20.2746 37.9044 20.1523C38.2714 20.0912 38.9442 20.03 39.1277 19.9077C39.25 19.7853 39.3111 19.1126 39.3723 18.7456C39.4946 17.767 39.6781 16.6049 40.5955 15.9321C40.9014 15.6263 41.4518 15.504 42.0634 15.504C42.5527 15.504 43.042 15.5652 43.5313 15.6875C43.8983 15.7487 44.2653 15.8098 44.5711 15.8098C44.6934 15.8098 44.7546 15.8098 44.7546 15.8098C44.8769 15.6875 45.1827 15.137 45.3662 14.7701C45.7943 13.9138 46.2836 12.8129 47.3845 12.4459C47.6292 12.3847 47.8127 12.3236 48.0573 12.3236C48.8524 12.3236 49.5864 12.6905 50.3203 13.1187C50.6873 13.3022 51.2377 13.608 51.4824 13.608C51.6659 13.5468 52.094 13.1187 52.3387 12.8129C53.0114 12.0789 53.8677 11.2227 54.9686 11.2227C56.1307 11.2227 56.9258 12.0789 57.5986 12.8129C57.8433 13.1187 58.3325 13.5468 58.516 13.608C58.6995 13.608 59.25 13.3022 59.617 13.1187C60.3509 12.7517 61.0848 12.3236 61.8799 12.3236C62.1246 12.3236 62.3692 12.3847 62.5527 12.4459C63.6536 12.8129 64.1429 13.8526 64.5711 14.7701C64.7546 15.137 64.9992 15.6875 65.1827 15.8098C65.1827 15.8098 65.2439 15.8098 65.3662 15.8098C65.672 15.8098 66.039 15.7487 66.4059 15.6875C66.8952 15.5652 67.4457 15.504 67.935 15.504C68.5466 15.504 69.0971 15.6263 69.5252 15.9933C70.4426 16.6661 70.6261 17.8282 70.7484 18.8068C70.8096 19.1737 70.8708 19.8465 70.9931 20.03C71.1154 20.1523 71.7882 20.2135 72.1552 20.2746C73.1338 20.397 74.2959 20.5805 74.9686 21.4979C75.6414 22.4153 75.4579 23.5162 75.2744 24.556C75.2133 24.923 75.091 25.5957 75.1521 25.7792C75.2744 25.9016 75.8249 26.2074 76.1919 26.3909C77.0481 26.819 78.1491 27.3083 78.516 28.4092C78.883 29.449 78.3325 30.4887 77.8433 31.345C77.6598 31.712 77.354 32.2624 77.354 32.5071C77.4151 32.6905 77.8433 33.1187 78.1491 33.3633C78.8218 34.0361 79.7393 34.8924 79.7393 35.9933C79.7393 37.1554 78.883 37.9505 78.1491 38.6233C77.8433 38.8679 77.4151 39.3572 77.354 39.5407C77.354 39.7242 77.6598 40.2746 77.8433 40.6416C78.3325 41.559 78.883 42.5376 78.516 43.5774C78.1491 44.6783 77.1093 45.1676 76.1919 45.5957C75.8249 45.7792 75.2744 46.0239 75.1521 46.2074C75.091 46.3909 75.2133 47.0025 75.2744 47.4306C75.4579 48.4092 75.6414 49.5713 74.9686 50.4887C74.2959 51.4061 73.1338 51.5896 72.1552 51.712C71.7882 51.7731 71.1154 51.8343 70.9319 51.9566C70.8096 52.0789 70.7485 52.7517 70.6873 53.1187C70.565 54.0973 70.3815 55.2594 69.464 55.9321C69.0359 56.2379 68.5466 56.4214 67.8738 56.4214C67.3845 56.4214 66.8952 56.3603 66.4059 56.2379C66.039 56.1768 65.672 56.1156 65.3662 56.1156C65.2439 56.1156 65.1827 56.1156 65.1827 56.1156C65.0604 56.2379 64.7546 56.7884 64.5711 57.1554C64.1429 58.0117 63.6536 59.1126 62.5527 59.4795C62.3081 59.5407 62.1246 59.6019 61.8799 59.6019C61.0848 59.6019 60.3509 59.2349 59.617 58.8068C59.25 58.6233 58.6995 58.3175 58.4549 58.3175C58.2714 58.3786 57.8433 58.8068 57.5986 59.1126C56.987 59.663 56.1307 60.5805 54.9686 60.5805Z" fill="white"/>
<path d="M54.9692 12.4465C56.1313 12.4465 57.171 14.5872 58.3331 14.7706C58.3943 14.7706 58.4555 14.7706 58.5166 14.7706C59.5564 14.7706 60.9019 13.4862 61.9417 13.4862C62.064 13.4862 62.1863 13.4862 62.2475 13.5474C63.3484 13.9144 63.6542 16.2997 64.694 16.789C64.8775 16.9113 65.1833 16.9113 65.4279 16.9113C66.223 16.9113 67.1405 16.6055 67.9356 16.6055C68.2414 16.6055 68.5472 16.6667 68.7918 16.8502C69.7704 17.5229 69.2811 19.9083 70.1374 20.7034C70.9937 21.5596 73.3178 21.0703 73.9906 22.0489C74.6634 22.9664 73.5013 25.107 74.0518 26.1468C74.6022 27.1865 76.9264 27.4924 77.2934 28.5933C77.6603 29.6942 75.8866 31.3456 76.0701 32.5076C76.2536 33.6697 78.3943 34.6483 78.3943 35.8716C78.3943 37.0948 76.2536 38.0734 76.0701 39.2355C75.8866 40.3976 77.6603 42.0489 77.2934 43.1498C76.9264 44.2508 74.5411 44.5566 74.0518 45.5963C73.5013 46.6361 74.6634 48.7156 73.9906 49.6942C73.3178 50.6728 70.9325 50.1835 70.1374 51.0398C69.2811 51.896 69.7704 54.2202 68.7918 54.893C68.5472 55.0765 68.2414 55.1376 67.9356 55.1376C67.2016 55.1376 66.223 54.8318 65.4279 54.8318C65.1221 54.8318 64.8775 54.893 64.694 54.9541C63.6542 55.5046 63.3484 57.8288 62.2475 58.1957C62.1252 58.2569 62.064 58.2569 61.9417 58.2569C60.9019 58.2569 59.5564 56.9725 58.5166 56.9725C58.4555 56.9725 58.3943 56.9725 58.3331 56.9725C57.171 57.156 56.1925 59.2966 54.9692 59.2966C53.746 59.2966 52.7674 57.156 51.6053 56.9725C51.5441 56.9725 51.483 56.9725 51.4218 56.9725C50.3821 56.9725 49.0365 58.2569 47.9967 58.2569C47.8744 58.2569 47.7521 58.2569 47.6909 58.1957C46.59 57.8288 46.2842 55.4434 45.2444 54.9541C45.061 54.8318 44.7551 54.8318 44.5105 54.8318C43.7154 54.8318 42.798 55.1376 42.0029 55.1376C41.697 55.1376 41.3912 55.0765 41.1466 54.893C40.168 54.2202 40.6573 51.8349 39.801 51.0398C38.9447 50.1835 36.6206 50.6728 35.9478 49.6942C35.275 48.7768 36.4371 46.6361 35.8866 45.5963C35.3362 44.5566 32.9509 44.2508 32.6451 43.1498C32.2781 42.0489 34.0518 40.3976 33.8683 39.2355C33.6848 38.0734 31.5441 37.0948 31.5441 35.8716C31.5441 34.7095 33.6848 33.6697 33.8683 32.5076C34.0518 31.3456 32.2781 29.6942 32.6451 28.5933C33.012 27.4924 35.3973 27.1865 35.8866 26.1468C36.4371 25.107 35.275 23.0275 35.9478 22.0489C36.6206 21.0703 39.0059 21.5596 39.801 20.7034C40.6573 19.8471 40.168 17.5229 41.1466 16.8502C41.3912 16.6667 41.697 16.6055 42.0029 16.6055C42.798 16.6055 43.7154 16.9113 44.5105 16.9113C44.8163 16.9113 45.061 16.8502 45.2444 16.789C46.2842 16.2385 46.59 13.9144 47.6909 13.5474C47.8132 13.4862 47.8744 13.4862 47.9967 13.4862C49.0365 13.4862 50.3821 14.7706 51.4218 14.7706C51.483 14.7706 51.5441 14.7706 51.6053 14.7706C52.7674 14.5872 53.8071 12.4465 54.9692 12.4465ZM54.9692 10C53.3178 10 52.1558 11.1621 51.4218 11.9572C51.3607 12.0183 51.2995 12.1407 51.1772 12.2018C51.0548 12.1407 50.9325 12.0795 50.8714 12.0183C50.0762 11.5902 49.1588 11.1009 48.0579 11.1009C47.6909 11.1009 47.324 11.1621 46.957 11.2844C45.3668 11.7737 44.694 13.2416 44.2047 14.2202C44.1435 14.2813 44.0824 14.4037 44.0824 14.526C43.96 14.526 43.8377 14.4648 43.7154 14.4648C43.2261 14.3425 42.6756 14.2813 42.064 14.2813C41.1466 14.2813 40.4126 14.526 39.7399 14.9541C38.3943 15.9327 38.2108 17.5229 38.0273 18.5627C38.0273 18.685 37.9662 18.8073 37.9662 18.9297C37.8438 18.9297 37.7215 18.9908 37.5992 18.9908C36.5594 19.1132 34.9692 19.3578 33.9906 20.7034C33.012 22.0489 33.3178 23.6391 33.5013 24.6789C33.5013 24.8012 33.5625 24.9235 33.5625 25.0459C33.4402 25.107 33.379 25.1682 33.2567 25.1682C32.2781 25.6575 30.8102 26.3303 30.3209 27.9205C29.8316 29.5107 30.5655 30.8563 31.0548 31.8349C31.116 31.9572 31.1772 32.0184 31.2383 32.1407C31.1772 32.2018 31.0548 32.3242 30.9937 32.3853C30.2597 33.1193 29.0977 34.2202 29.0977 35.8716C29.0977 37.5229 30.2597 38.685 31.0548 39.419C31.116 39.4801 31.2383 39.5413 31.2995 39.6636C31.2383 39.7859 31.1772 39.9083 31.116 39.9694C30.5655 40.948 29.8316 42.2936 30.3821 43.8838C30.8714 45.474 32.3392 46.1468 33.3178 46.6361C33.379 46.6973 33.5013 46.7584 33.6236 46.8196C33.6236 46.9419 33.5625 47.0642 33.5625 47.1865C33.379 48.1651 33.0732 49.7554 34.0518 51.1009C35.0304 52.4465 36.6206 52.63 37.6603 52.8135C37.7827 52.8135 37.905 52.8746 38.0273 52.8746C38.0273 52.9969 38.0885 53.1193 38.0885 53.2416C38.2108 54.2813 38.4555 55.8716 39.801 56.8502C40.4126 57.3395 41.2077 57.5229 42.1252 57.5229C42.7368 57.5229 43.2873 57.4006 43.7766 57.3395C43.8989 57.3395 44.0212 57.2783 44.1435 57.2783C44.2047 57.4006 44.2659 57.4618 44.2659 57.5841C44.7551 58.5627 45.4279 60.0306 47.0181 60.5199C47.3851 60.6422 47.7521 60.7034 48.1191 60.7034C49.22 60.7034 50.1986 60.2141 50.9325 59.7859C51.0548 59.7248 51.116 59.6636 51.2383 59.6025C51.2995 59.6636 51.4218 59.7859 51.483 59.8471C52.2169 60.6422 53.379 61.8043 55.0304 61.8043C56.6818 61.8043 57.8438 60.6422 58.5778 59.8471C58.6389 59.7859 58.7001 59.6636 58.8224 59.6025C58.9447 59.6636 59.0671 59.7248 59.1282 59.7859C59.9233 60.2141 60.8408 60.7034 61.9417 60.7034C62.3087 60.7034 62.6756 60.6422 63.0426 60.5199C64.6328 60.0306 65.3056 58.5627 65.7949 57.5841C65.8561 57.5229 65.9172 57.4006 65.9172 57.2783C66.0395 57.2783 66.1619 57.3395 66.2842 57.3395C66.7735 57.4006 67.3851 57.5229 67.9356 57.5229C68.853 57.5229 69.5869 57.2783 70.2597 56.8502C71.6053 55.8716 71.7888 54.2813 71.9723 53.2416C71.9723 53.1193 72.0334 52.9969 72.0334 52.8746C72.1558 52.8746 72.2781 52.8135 72.4004 52.8135C73.4402 52.6911 75.0304 52.4465 76.009 51.1009C76.9876 49.7554 76.6817 48.1651 76.4983 47.1254C76.4983 47.0031 76.4371 46.8807 76.4371 46.7584C76.5594 46.6973 76.6206 46.6361 76.7429 46.6361C77.7215 46.1468 79.1894 45.474 79.6787 43.8838C80.168 42.2936 79.434 40.948 78.9447 39.9694C78.8836 39.8471 78.8224 39.7859 78.7613 39.6636C78.8224 39.6024 78.9447 39.4801 79.0059 39.419C79.801 38.685 80.9631 37.5229 80.9631 35.8716C80.9631 34.2202 79.801 33.0581 79.0059 32.3242C78.9447 32.263 78.8224 32.2018 78.7613 32.0795C78.8224 31.9572 78.8836 31.8349 78.9447 31.7737C79.4952 30.7951 80.2291 29.4495 79.6787 27.8593C79.1894 26.2691 77.7215 25.5963 76.7429 25.107C76.6818 25.0459 76.5594 24.9847 76.4371 24.9847C76.4371 24.8624 76.4983 24.7401 76.4983 24.6177C76.6817 23.578 76.9876 21.9878 76.009 20.6422C75.0304 19.2966 73.4402 19.1132 72.4004 18.9297C72.2781 18.9297 72.1558 18.8685 72.0334 18.8685C72.0334 18.7462 71.9723 18.6239 71.9723 18.5015C71.8499 17.4618 71.6053 15.8716 70.2597 14.893C69.6481 14.4037 68.853 14.2202 67.9356 14.2202C67.324 14.2202 66.7735 14.3425 66.2842 14.4037C66.1619 14.4037 66.0395 14.4648 65.9172 14.4648C65.8561 14.4037 65.7949 14.2813 65.7337 14.2202C65.2444 13.2416 64.5717 11.7737 62.9814 11.2844C62.6145 11.1621 62.2475 11.1009 61.8805 11.1009C60.7796 11.1009 59.801 11.5902 59.0671 12.0183C58.9447 12.0795 58.8836 12.1407 58.7613 12.2018C58.7001 12.1407 58.5778 12.0183 58.5166 11.9572C57.7827 11.1621 56.6818 10 54.9692 10Z" fill="#060F42"/>
<path d="M71.1776 35.8701C71.1776 44.8609 63.9605 52.078 54.9697 52.078C46.04 52.078 38.7617 44.7997 38.7617 35.8701C38.7617 26.9404 46.04 19.6621 54.9697 19.6621C63.9605 19.6621 71.1776 26.9404 71.1776 35.8701Z" fill="white"/>
<path d="M54.9703 53.3018C45.3678 53.3018 37.5391 45.4731 37.5391 35.8706C37.5391 26.2682 45.3678 18.4395 54.9703 18.4395C64.5727 18.4395 72.4014 26.2682 72.4014 35.8706C72.4014 45.4731 64.5727 53.3018 54.9703 53.3018ZM54.9703 20.8859C46.7134 20.8859 39.9855 27.6138 39.9855 35.8706C39.9855 44.1275 46.7134 50.8554 54.9703 50.8554C63.2271 50.8554 69.955 44.1275 69.955 35.8706C69.955 27.6138 63.2271 20.8859 54.9703 20.8859Z" fill="#060F42"/>
<path d="M54.0827 29.2852C54.4479 28.5464 55.4997 28.5416 55.8716 29.277L57.4282 32.3549C57.5738 32.6426 57.8491 32.8425 58.1678 32.8918L61.6089 33.4239C62.4247 33.5501 62.745 34.5543 62.1529 35.1295L59.6864 37.5255C59.4515 37.7537 59.3432 38.0824 59.3965 38.4055L59.9619 41.8334C60.0965 42.6493 59.2389 43.2667 58.5079 42.8802L55.4364 41.2562C55.1439 41.1015 54.794 41.1015 54.5015 41.2562L51.4527 42.8682C50.7175 43.2569 49.8567 42.6306 50.0003 41.8115L50.5963 38.4109C50.6534 38.0849 50.5455 37.7517 50.308 37.521L47.8461 35.1295C47.2541 34.5543 47.5744 33.5501 48.3901 33.4239L51.8255 32.8927C52.1474 32.8429 52.4249 32.6395 52.5692 32.3475L54.0827 29.2852Z" fill="#FFCD1B"/>
<path d="M61.5941 44.0142C61.736 44.8335 60.8742 45.458 60.1398 45.0681L55.5001 42.6045C55.2069 42.4488 54.8555 42.4488 54.5622 42.6045L49.9256 45.0665C49.1906 45.4567 48.3284 44.831 48.4715 44.0113L49.3736 38.8444C49.431 38.5159 49.3209 38.1805 49.0799 37.9499L45.265 34.299C44.6619 33.7219 44.9896 32.7036 45.816 32.5865L51.0167 31.8494C51.3468 31.8026 51.6319 31.5943 51.7769 31.294L54.0813 26.5206C54.443 25.7713 55.5083 25.7657 55.8778 26.5113L58.2223 31.2413C58.3687 31.5367 58.6514 31.741 58.9779 31.7873L64.1991 32.5273C65.0231 32.6441 65.3522 33.6575 64.754 34.2361L60.9773 37.8897C60.7393 38.1199 60.6307 38.4529 60.6872 38.7791L61.5941 44.0142ZM51.0314 34.2947C50.2133 34.415 49.8864 35.4198 50.4771 35.9984L51.6564 37.1536C51.8928 37.3852 51.9993 37.7186 51.941 38.0443L51.6636 39.5932C51.5164 40.4151 52.3817 41.0448 53.1185 40.6519L54.4994 39.9154C54.7935 39.7585 55.1465 39.7585 55.4406 39.9154L56.8546 40.6695C57.5854 41.0593 58.4461 40.4425 58.312 39.6251L58.0511 38.0365C57.9984 37.715 58.1054 37.3881 58.3381 37.1601L59.5279 35.9946C60.1179 35.4167 59.7926 34.4131 58.9758 34.2912L57.3844 34.0537C57.0598 34.0052 56.7796 33.8005 56.6347 33.506L55.9285 32.07C55.5622 31.3251 54.5002 31.3251 54.1338 32.07L53.4282 33.5047C53.283 33.8 53.0019 34.0049 52.6764 34.0528L51.0314 34.2947Z" fill="#060F42"/>
</g>
<path d="M42.9463 85.89V87H38.1463V85.89H39.9043V80.832C39.9043 80.632 39.9103 80.426 39.9223 80.214L38.6743 81.258C38.6023 81.314 38.5303 81.35 38.4583 81.366C38.3903 81.378 38.3243 81.378 38.2603 81.366C38.2003 81.354 38.1463 81.334 38.0983 81.306C38.0503 81.274 38.0143 81.24 37.9903 81.204L37.5223 80.562L40.1683 78.312H41.3863V85.89H42.9463ZM49.9073 85.89V87H45.1073V85.89H46.8653V80.832C46.8653 80.632 46.8713 80.426 46.8833 80.214L45.6353 81.258C45.5633 81.314 45.4913 81.35 45.4193 81.366C45.3513 81.378 45.2853 81.378 45.2213 81.366C45.1613 81.354 45.1073 81.334 45.0593 81.306C45.0113 81.274 44.9753 81.24 44.9513 81.204L44.4833 80.562L47.1293 78.312H48.3473V85.89H49.9073ZM60.0202 87H58.5382V81.978H57.0262C56.9782 82.734 56.9042 83.386 56.8042 83.934C56.7042 84.478 56.5842 84.94 56.4442 85.32C56.3082 85.7 56.1542 86.006 55.9822 86.238C55.8142 86.466 55.6342 86.644 55.4422 86.772C55.2502 86.9 55.0522 86.984 54.8482 87.024C54.6442 87.068 54.4382 87.09 54.2302 87.09C54.0102 87.09 53.8482 87.07 53.7442 87.03C53.6442 86.994 53.5942 86.942 53.5942 86.874V85.95H53.9482C54.0802 85.95 54.2122 85.93 54.3442 85.89C54.4762 85.85 54.6042 85.768 54.7282 85.644C54.8522 85.52 54.9702 85.344 55.0822 85.116C55.1942 84.884 55.2962 84.58 55.3882 84.204C55.4842 83.824 55.5682 83.36 55.6402 82.812C55.7122 82.264 55.7682 81.608 55.8082 80.844H60.0202V87ZM65.446 83.214C65.446 83.022 65.418 82.842 65.362 82.674C65.31 82.502 65.23 82.352 65.122 82.224C65.014 82.096 64.876 81.996 64.708 81.924C64.544 81.848 64.352 81.81 64.132 81.81C63.704 81.81 63.366 81.932 63.118 82.176C62.874 82.42 62.718 82.766 62.65 83.214H65.446ZM62.62 84.108C62.644 84.424 62.7 84.698 62.788 84.93C62.876 85.158 62.992 85.348 63.136 85.5C63.28 85.648 63.45 85.76 63.646 85.836C63.846 85.908 64.066 85.944 64.306 85.944C64.546 85.944 64.752 85.916 64.924 85.86C65.1 85.804 65.252 85.742 65.38 85.674C65.512 85.606 65.626 85.544 65.722 85.488C65.822 85.432 65.918 85.404 66.01 85.404C66.134 85.404 66.226 85.45 66.286 85.542L66.712 86.082C66.548 86.274 66.364 86.436 66.16 86.568C65.956 86.696 65.742 86.8 65.518 86.88C65.298 86.956 65.072 87.01 64.84 87.042C64.612 87.074 64.39 87.09 64.174 87.09C63.746 87.09 63.348 87.02 62.98 86.88C62.612 86.736 62.292 86.526 62.02 86.25C61.748 85.97 61.534 85.626 61.378 85.218C61.222 84.806 61.144 84.33 61.144 83.79C61.144 83.37 61.212 82.976 61.348 82.608C61.484 82.236 61.678 81.914 61.93 81.642C62.186 81.366 62.496 81.148 62.86 80.988C63.228 80.828 63.642 80.748 64.102 80.748C64.49 80.748 64.848 80.81 65.176 80.934C65.504 81.058 65.786 81.24 66.022 81.48C66.258 81.716 66.442 82.008 66.574 82.356C66.71 82.7 66.778 83.094 66.778 83.538C66.778 83.762 66.754 83.914 66.706 83.994C66.658 84.07 66.566 84.108 66.43 84.108H62.62ZM73.1233 81.942H70.9273V87H69.4453V81.942H67.2553V80.844H73.1233V81.942ZM35.555 92.844V99H34.073V96.276H31.673V99H30.191V92.844H31.673V95.178H34.073V92.844H35.555ZM40.275 96.372C39.847 96.392 39.487 96.43 39.195 96.486C38.903 96.538 38.669 96.606 38.493 96.69C38.317 96.774 38.191 96.872 38.115 96.984C38.039 97.096 38.001 97.218 38.001 97.35C38.001 97.61 38.077 97.796 38.229 97.908C38.385 98.02 38.587 98.076 38.835 98.076C39.139 98.076 39.401 98.022 39.621 97.914C39.845 97.802 40.063 97.634 40.275 97.41V96.372ZM36.879 93.702C37.587 93.054 38.439 92.73 39.435 92.73C39.795 92.73 40.117 92.79 40.401 92.91C40.685 93.026 40.925 93.19 41.121 93.402C41.317 93.61 41.465 93.86 41.565 94.152C41.669 94.444 41.721 94.764 41.721 95.112V99H41.049C40.909 99 40.801 98.98 40.725 98.94C40.649 98.896 40.589 98.81 40.545 98.682L40.413 98.238C40.257 98.378 40.105 98.502 39.957 98.61C39.809 98.714 39.655 98.802 39.495 98.874C39.335 98.946 39.163 99 38.979 99.036C38.799 99.076 38.599 99.096 38.379 99.096C38.119 99.096 37.879 99.062 37.659 98.994C37.439 98.922 37.249 98.816 37.089 98.676C36.929 98.536 36.805 98.362 36.717 98.154C36.629 97.946 36.585 97.704 36.585 97.428C36.585 97.272 36.611 97.118 36.663 96.966C36.715 96.81 36.799 96.662 36.915 96.522C37.035 96.382 37.189 96.25 37.377 96.126C37.565 96.002 37.795 95.894 38.067 95.802C38.343 95.71 38.663 95.636 39.027 95.58C39.391 95.52 39.807 95.484 40.275 95.472V95.112C40.275 94.7 40.187 94.396 40.011 94.2C39.835 94 39.581 93.9 39.249 93.9C39.009 93.9 38.809 93.928 38.649 93.984C38.493 94.04 38.355 94.104 38.235 94.176C38.115 94.244 38.005 94.306 37.905 94.362C37.809 94.418 37.701 94.446 37.581 94.446C37.477 94.446 37.389 94.42 37.317 94.368C37.245 94.312 37.187 94.248 37.143 94.176L36.879 93.702ZM47.5167 97.404C47.6847 97.608 47.8667 97.752 48.0627 97.836C48.2627 97.92 48.4787 97.962 48.7107 97.962C48.9347 97.962 49.1367 97.92 49.3167 97.836C49.4967 97.752 49.6487 97.624 49.7727 97.452C49.9007 97.28 49.9987 97.064 50.0667 96.804C50.1347 96.54 50.1687 96.23 50.1687 95.874C50.1687 95.514 50.1387 95.21 50.0787 94.962C50.0227 94.71 49.9407 94.506 49.8327 94.35C49.7247 94.194 49.5927 94.08 49.4367 94.008C49.2847 93.936 49.1107 93.9 48.9147 93.9C48.6067 93.9 48.3447 93.966 48.1287 94.098C47.9127 94.226 47.7087 94.408 47.5167 94.644V97.404ZM47.4387 93.684C47.6907 93.4 47.9767 93.17 48.2967 92.994C48.6167 92.818 48.9927 92.73 49.4247 92.73C49.7607 92.73 50.0667 92.8 50.3427 92.94C50.6227 93.08 50.8627 93.284 51.0627 93.552C51.2667 93.816 51.4227 94.144 51.5307 94.536C51.6427 94.924 51.6987 95.37 51.6987 95.874C51.6987 96.334 51.6367 96.76 51.5127 97.152C51.3887 97.544 51.2107 97.884 50.9787 98.172C50.7507 98.46 50.4727 98.686 50.1447 98.85C49.8207 99.01 49.4567 99.09 49.0527 99.09C48.7087 99.09 48.4147 99.038 48.1707 98.934C47.9267 98.826 47.7087 98.678 47.5167 98.49V101.01H46.0347V92.844H46.9407C47.1327 92.844 47.2587 92.934 47.3187 93.114L47.4387 93.684ZM55.3573 97.938C55.6933 97.938 55.9433 97.854 56.1073 97.686C56.2753 97.518 56.3593 97.302 56.3593 97.038C56.3593 96.926 56.3393 96.818 56.2993 96.714C56.2633 96.61 56.2053 96.518 56.1253 96.438C56.0453 96.358 55.9413 96.296 55.8133 96.252C55.6853 96.204 55.5313 96.18 55.3513 96.18H54.2533V97.938H55.3573ZM55.3453 95.124C55.7733 95.124 56.1353 95.176 56.4313 95.28C56.7273 95.384 56.9673 95.524 57.1513 95.7C57.3353 95.876 57.4673 96.08 57.5473 96.312C57.6313 96.54 57.6733 96.78 57.6733 97.032C57.6733 97.32 57.6213 97.586 57.5173 97.83C57.4173 98.07 57.2673 98.278 57.0673 98.454C56.8713 98.626 56.6293 98.76 56.3413 98.856C56.0573 98.952 55.7313 99 55.3633 99H52.8433V92.844H54.2533V95.124H55.3453ZM60.2773 92.844V99H58.7953V92.844H60.2773ZM67.1019 92.844V99H65.6199V96.276H63.2199V99H61.7379V92.844H63.2199V95.178H65.6199V92.844H67.1019ZM72.2479 93.234C72.3199 93.118 72.4179 93.024 72.5419 92.952C72.6659 92.88 72.7979 92.844 72.9379 92.844H74.1019L72.6679 95.13C72.5679 95.29 72.4659 95.42 72.3619 95.52C72.2579 95.616 72.1319 95.692 71.9839 95.748C72.1839 95.808 72.3479 95.898 72.4759 96.018C72.6039 96.134 72.7199 96.282 72.8239 96.462L74.2639 99H73.2379C72.9779 99 72.7759 98.956 72.6319 98.868C72.4879 98.78 72.3659 98.654 72.2659 98.49L71.3599 96.786C71.2799 96.638 71.1759 96.528 71.0479 96.456C70.9239 96.384 70.7779 96.348 70.6099 96.348H70.0519V99H68.5699V92.844H70.0519V95.382H70.5319C70.6999 95.382 70.8339 95.352 70.9339 95.292C71.0379 95.228 71.1259 95.132 71.1979 95.004L72.2479 93.234ZM78.8289 95.214C78.8289 95.022 78.8009 94.842 78.7449 94.674C78.6929 94.502 78.6129 94.352 78.5049 94.224C78.3969 94.096 78.2589 93.996 78.0909 93.924C77.9269 93.848 77.7349 93.81 77.5149 93.81C77.0869 93.81 76.7489 93.932 76.5009 94.176C76.2569 94.42 76.1009 94.766 76.0329 95.214H78.8289ZM76.0029 96.108C76.0269 96.424 76.0829 96.698 76.1709 96.93C76.2589 97.158 76.3749 97.348 76.5189 97.5C76.6629 97.648 76.8329 97.76 77.0289 97.836C77.2289 97.908 77.4489 97.944 77.6889 97.944C77.9289 97.944 78.1349 97.916 78.3069 97.86C78.4829 97.804 78.6349 97.742 78.7629 97.674C78.8949 97.606 79.0089 97.544 79.1049 97.488C79.2049 97.432 79.3009 97.404 79.3929 97.404C79.5169 97.404 79.6089 97.45 79.6689 97.542L80.0949 98.082C79.9309 98.274 79.7469 98.436 79.5429 98.568C79.3389 98.696 79.1249 98.8 78.9009 98.88C78.6809 98.956 78.4549 99.01 78.2229 99.042C77.9949 99.074 77.7729 99.09 77.5569 99.09C77.1289 99.09 76.7309 99.02 76.3629 98.88C75.9949 98.736 75.6749 98.526 75.4029 98.25C75.1309 97.97 74.9169 97.626 74.7609 97.218C74.6049 96.806 74.5269 96.33 74.5269 95.79C74.5269 95.37 74.5949 94.976 74.7309 94.608C74.8669 94.236 75.0609 93.914 75.3129 93.642C75.5689 93.366 75.8789 93.148 76.2429 92.988C76.6109 92.828 77.0249 92.748 77.4849 92.748C77.8729 92.748 78.2309 92.81 78.5589 92.934C78.8869 93.058 79.1689 93.24 79.4049 93.48C79.6409 93.716 79.8249 94.008 79.9569 94.356C80.0929 94.7 80.1609 95.094 80.1609 95.538C80.1609 95.762 80.1369 95.914 80.0889 95.994C80.0409 96.07 79.9489 96.108 79.8129 96.108H76.0029Z" fill="#060F42"/>
<defs>
<clipPath id="clip0_6924_6557">
<rect width="51.8043" height="60" fill="white" transform="translate(29.0977 10)"/>
</clipPath>
</defs>
</svg>
